<svg height="512pt" viewBox="0 0 512 512" width="512pt" xmlns="http://www.w3.org/2000/svg"><g fill="#cbe558"><path d="m10 10h64v64h-64zm0 0"/><path d="m502 74h-64v-64h64zm0 0"/><path d="m10 438h64v64h-64zm0 0"/><path d="m502 502h-64v-64h64zm0 0"/></g><path d="m288 74h-64v-64h64zm0 0" fill="#d8ec84"/><path d="m10 224h64v64h-64zm0 0" fill="#d8ec84"/><path d="m502 288h-64v-64h64zm0 0" fill="#d8ec84"/><path d="m288 502h-64v-64h64zm0 0" fill="#d8ec84"/><path d="m396 256c0 77.320312-62.679688 140-140 140s-140-62.679688-140-140 62.679688-140 140-140 140 62.679688 140 140zm0 0" fill="#91def5"/><path d="m256 116.035156c-40.375 0-73.105469 32.730469-73.105469 73.105469v133.71875c0 40.375 32.730469 73.105469 73.105469 73.105469s73.105469-32.730469 73.105469-73.105469v-133.71875c0-40.375-32.730469-73.105469-73.105469-73.105469zm0 0" fill="#cff1fb"/><path d="m502 84c5.523438 0 10-4.476562 10-10v-64c0-5.523438-4.476562-10-10-10h-64c-5.523438 0-10 4.476562-10 10v22h-130v-22c0-5.523438-4.476562-10-10-10h-64c-5.523438 0-10 4.476562-10 10v22h-50c-5.523438 0-10 4.476562-10 10s4.476562 10 10 10h50v22c0 5.523438 4.476562 10 10 10h64c5.523438 0 10-4.476562 10-10v-22h130v22c0 5.523438 4.476562 10 10 10h22v130h-22c-5.523438 0-10 4.476562-10 10v64c0 5.523438 4.476562 10 10 10h22v130h-22c-5.523438 0-10 4.476562-10 10v22h-130v-22c0-5.523438-4.476562-10-10-10h-64c-5.523438 0-10 4.476562-10 10v22h-130v-22c0-5.523438-4.476562-10-10-10h-22v-130h22c5.523438 0 10-4.476562 10-10v-64c0-5.523438-4.476562-10-10-10h-22v-130h22c5.523438 0 10-4.476562 10-10v-64c0-5.523438-4.476562-10-10-10h-64c-5.523438 0-10 4.476562-10 10v64c0 5.523438 4.476562 10 10 10h22v130h-22c-5.523438 0-10 4.476562-10 10v64c0 5.523438 4.476562 10 10 10h22v130h-22c-5.523438 0-10 4.476562-10 10v64c0 5.523438 4.476562 10 10 10h64c5.523438 0 10-4.476562 10-10v-22h130v22c0 5.523438 4.476562 10 10 10h64c5.523438 0 10-4.476562 10-10v-22h130v22c0 5.523438 4.476562 10 10 10h64c5.523438 0 10-4.476562 10-10v-64c0-5.523438-4.476562-10-10-10h-22v-130h22c5.523438 0 10-4.476562 10-10v-64c0-5.523438-4.476562-10-10-10h-22v-130zm-224-20h-44v-44h44zm-258-44h44v44h-44zm0 214h44v44h-44zm44 258h-44v-44h44zm214 0h-44v-44h44zm214 0h-44v-44h44zm0-214h-44v-44h44zm-44-258h44v44h-44zm0 0"/><path d="m119 52c2.628906 0 5.210938-1.070312 7.070312-2.929688 1.859376-1.859374 2.929688-4.441406 2.929688-7.070312s-1.070312-5.210938-2.929688-7.070312c-1.859374-1.859376-4.441406-2.929688-7.070312-2.929688s-5.210938 1.070312-7.070312 2.929688c-1.859376 1.859374-2.929688 4.441406-2.929688 7.070312s1.070312 5.210938 2.929688 7.070312c1.859374 1.859376 4.441406 2.929688 7.070312 2.929688zm0 0"/><path d="m256 406c82.710938 0 150-67.289062 150-150s-67.289062-150-150-150-150 67.289062-150 150 67.289062 150 150 150zm-129.617188-140h46.511719v54.167969c-8.519531 1.683593-16.703125 4.703125-24.308593 8.972656-12.476563-18.261719-20.425782-39.851563-22.203126-63.140625zm22.203126-83.140625c7.609374 4.269531 15.789062 7.289063 24.308593 8.972656v54.167969h-46.511719c1.777344-23.289062 9.726563-44.878906 22.203126-63.140625zm214.828124 0c12.476563 18.261719 20.425782 39.851563 22.203126 63.140625h-46.511719v-54.167969c8.519531-1.683593 16.703125-4.703125 24.308593-8.972656zm0 146.28125c-7.609374-4.269531-15.789062-7.289063-24.308593-8.972656v-54.167969h46.511719c-1.777344 23.289062-9.726563 44.878906-22.203126 63.140625zm-117.414062 56.023437c-24.863281-3.976562-44.929688-22.519531-51.121094-46.582031h51.121094zm20-46.582031h51.121094c-6.191406 24.0625-26.257813 42.605469-51.121094 46.582031zm0-20v-52.582031h53.105469v52.582031zm0-72.582031v-52.582031h53.105469v52.582031zm0-72.582031v-46.582031c24.863281 3.976562 44.929688 22.519531 51.121094 46.582031zm-20 0h-51.121094c6.191406-24.0625 26.257813-42.605469 51.121094-46.582031zm0 20v52.582031h-53.105469v-52.582031zm0 72.582031v52.582031h-53.105469v-52.582031zm-84.648438 79.015625c4.269532-2.101563 8.753907-3.707031 13.382813-4.785156 1.820313 8.523437 4.957031 16.554687 9.175781 23.898437-8.230468-5.507812-15.796875-11.925781-22.558594-19.113281zm166.738282 19.113281c4.21875-7.34375 7.355468-15.375 9.175781-23.898437 4.628906 1.078125 9.109375 2.683593 13.382813 4.785156-6.761719 7.1875-14.332032 13.605469-22.558594 19.113281zm22.558594-197.144531c-4.269532 2.101563-8.753907 3.707031-13.382813 4.785156-1.820313-8.523437-4.957031-16.554687-9.175781-23.898437 8.230468 5.507812 15.796875 11.925781 22.558594 19.113281zm-166.738282-19.113281c-4.21875 7.34375-7.355468 15.375-9.175781 23.898437-4.628906-1.078125-9.109375-2.683593-13.382813-4.785156 6.761719-7.1875 14.332032-13.605469 22.558594-19.113281zm0 0"/></svg>