<svg height="512pt" viewBox="0 -22 512 512" width="512pt" xmlns="http://www.w3.org/2000/svg"><path d="m470 458h-428c-17.671875 0-32-14.328125-32-32v-384c0-17.671875 14.328125-32 32-32h428c17.671875 0 32 14.328125 32 32v384c0 17.671875-14.328125 32-32 32zm0 0" fill="#fff"/><path d="m216 106h-206v-64c0-17.671875 14.328125-32 32-32h428c17.671875 0 32 14.328125 32 32v64zm0 0" fill="#91def5"/><path d="m470 468h-169c-5.523438 0-10-4.476562-10-10s4.476562-10 10-10h169c12.132812 0 22-9.867188 22-22v-384c0-12.132812-9.867188-22-22-22h-428c-12.132812 0-22 9.867188-22 22v384c0 12.132812 9.867188 22 22 22h169c5.523438 0 10 4.476562 10 10s-4.476562 10-10 10h-169c-23.160156 0-42-18.839844-42-42v-384c0-23.160156 18.839844-42 42-42h428c23.160156 0 42 18.839844 42 42v384c0 23.160156-18.839844 42-42 42zm0 0"/><path d="m239.167969 68h-174.167969c-5.523438 0-10-4.476562-10-10s4.476562-10 10-10h174.167969c5.523437 0 10 4.476562 10 10s-4.480469 10-10 10zm0 0"/><path d="m360 68c-2.628906 0-5.210938-1.070312-7.070312-2.929688-1.859376-1.859374-2.929688-4.441406-2.929688-7.070312s1.070312-5.210938 2.929688-7.070312c1.859374-1.859376 4.441406-2.929688 7.070312-2.929688s5.210938 1.070312 7.070312 2.929688c1.859376 1.859374 2.929688 4.441406 2.929688 7.070312s-1.070312 5.210938-2.929688 7.070312c-1.859374 1.859376-4.441406 2.929688-7.070312 2.929688zm0 0"/><path d="m448 68c-2.628906 0-5.210938-1.070312-7.070312-2.929688-1.859376-1.859374-2.929688-4.441406-2.929688-7.070312s1.070312-5.210938 2.929688-7.070312c1.859374-1.859376 4.441406-2.929688 7.070312-2.929688s5.210938 1.070312 7.070312 2.929688c1.859376 1.859374 2.929688 4.441406 2.929688 7.070312s-1.070312 5.210938-2.929688 7.070312c-1.859374 1.859376-4.441406 2.929688-7.070312 2.929688zm0 0"/><path d="m404 68c-2.628906 0-5.210938-1.070312-7.070312-2.929688-1.859376-1.859374-2.929688-4.441406-2.929688-7.070312s1.070312-5.210938 2.929688-7.070312c1.859374-1.859376 4.441406-2.929688 7.070312-2.929688s5.210938 1.070312 7.070312 2.929688c1.859376 1.859374 2.929688 4.441406 2.929688 7.070312s-1.070312 5.210938-2.929688 7.070312c-1.859374 1.859376-4.441406 2.929688-7.070312 2.929688zm0 0"/><path d="m497 116h-481.332031c-5.523438 0-10-4.476562-10-10s4.476562-10 10-10h481.332031c5.523438 0 10 4.476562 10 10s-4.476562 10-10 10zm0 0"/><path d="m79 220c-17.644531 0-32-14.355469-32-32v-20c0-17.644531 14.355469-32 32-32s32 14.355469 32 32v20c0 17.644531-14.355469 32-32 32zm0-64c-6.617188 0-12 5.382812-12 12v20c0 6.617188 5.382812 12 12 12s12-5.382812 12-12v-20c0-6.617188-5.382812-12-12-12zm0 0"/><path d="m145 220c-5.523438 0-10-4.476562-10-10v-64c0-5.523438 4.476562-10 10-10s10 4.476562 10 10v64c0 5.523438-4.476562 10-10 10zm0 0"/><path d="m211 220c-17.644531 0-32-14.355469-32-32v-20c0-17.644531 14.355469-32 32-32s32 14.355469 32 32v20c0 17.644531-14.355469 32-32 32zm0-64c-6.617188 0-12 5.382812-12 12v20c0 6.617188 5.382812 12 12 12s12-5.382812 12-12v-20c0-6.617188-5.382812-12-12-12zm0 0"/><path d="m277 220c-5.523438 0-10-4.476562-10-10v-64c0-5.523438 4.476562-10 10-10s10 4.476562 10 10v64c0 5.523438-4.476562 10-10 10zm0 0"/><path d="m345 220c-17.644531 0-32-14.355469-32-32v-20c0-17.644531 14.355469-32 32-32s32 14.355469 32 32v20c0 17.644531-14.355469 32-32 32zm0-64c-6.617188 0-12 5.382812-12 12v20c0 6.617188 5.382812 12 12 12s12-5.382812 12-12v-20c0-6.617188-5.382812-12-12-12zm0 0"/><path d="m433 220c-17.644531 0-32-14.355469-32-32v-20c0-17.644531 14.355469-32 32-32s32 14.355469 32 32v20c0 17.644531-14.355469 32-32 32zm0-64c-6.617188 0-12 5.382812-12 12v20c0 6.617188 5.382812 12 12 12s12-5.382812 12-12v-20c0-6.617188-5.382812-12-12-12zm0 0"/><path d="m79 428c-17.644531 0-32-14.355469-32-32v-20c0-17.644531 14.355469-32 32-32s32 14.355469 32 32v20c0 17.644531-14.355469 32-32 32zm0-64c-6.617188 0-12 5.382812-12 12v20c0 6.617188 5.382812 12 12 12s12-5.382812 12-12v-20c0-6.617188-5.382812-12-12-12zm0 0"/><path d="m145 428c-5.523438 0-10-4.476562-10-10v-64c0-5.523438 4.476562-10 10-10s10 4.476562 10 10v64c0 5.523438-4.476562 10-10 10zm0 0"/><path d="m211 428c-17.644531 0-32-14.355469-32-32v-20c0-17.644531 14.355469-32 32-32s32 14.355469 32 32v20c0 17.644531-14.355469 32-32 32zm0-64c-6.617188 0-12 5.382812-12 12v20c0 6.617188 5.382812 12 12 12s12-5.382812 12-12v-20c0-6.617188-5.382812-12-12-12zm0 0"/><path d="m277 428c-5.523438 0-10-4.476562-10-10v-64c0-5.523438 4.476562-10 10-10s10 4.476562 10 10v64c0 5.523438-4.476562 10-10 10zm0 0"/><path d="m323 428c-5.523438 0-10-4.476562-10-10v-64c0-5.523438 4.476562-10 10-10s10 4.476562 10 10v64c0 5.523438-4.476562 10-10 10zm0 0"/><path d="m367 428c-5.523438 0-10-4.476562-10-10v-64c0-5.523438 4.476562-10 10-10s10 4.476562 10 10v64c0 5.523438-4.476562 10-10 10zm0 0"/><path d="m433 428c-17.644531 0-32-14.355469-32-32v-20c0-17.644531 14.355469-32 32-32s32 14.355469 32 32v20c0 17.644531-14.355469 32-32 32zm0-64c-6.617188 0-12 5.382812-12 12v20c0 6.617188 5.382812 12 12 12s12-5.382812 12-12v-20c0-6.617188-5.382812-12-12-12zm0 0"/><path d="m389 324c-17.644531 0-32-14.355469-32-32v-20c0-17.644531 14.355469-32 32-32s32 14.355469 32 32v20c0 17.644531-14.355469 32-32 32zm0-64c-6.617188 0-12 5.382812-12 12v20c0 6.617188 5.382812 12 12 12s12-5.382812 12-12v-20c0-6.617188-5.382812-12-12-12zm0 0"/><path d="m455 324c-5.523438 0-10-4.476562-10-10v-64c0-5.523438 4.476562-10 10-10s10 4.476562 10 10v64c0 5.523438-4.476562 10-10 10zm0 0"/><path d="m301 324c-17.644531 0-32-14.355469-32-32v-20c0-17.644531 14.355469-32 32-32s32 14.355469 32 32v20c0 17.644531-14.355469 32-32 32zm0-64c-6.617188 0-12 5.382812-12 12v20c0 6.617188 5.382812 12 12 12s12-5.382812 12-12v-20c0-6.617188-5.382812-12-12-12zm0 0"/><path d="m235 324c-5.523438 0-10-4.476562-10-10v-64c0-5.523438 4.476562-10 10-10s10 4.476562 10 10v64c0 5.523438-4.476562 10-10 10zm0 0"/><path d="m101 324c-5.523438 0-10-4.476562-10-10v-64c0-5.523438 4.476562-10 10-10s10 4.476562 10 10v64c0 5.523438-4.476562 10-10 10zm0 0"/><path d="m57 324c-5.523438 0-10-4.476562-10-10v-64c0-5.523438 4.476562-10 10-10s10 4.476562 10 10v64c0 5.523438-4.476562 10-10 10zm0 0"/><path d="m167 324c-17.644531 0-32-14.355469-32-32v-20c0-17.644531 14.355469-32 32-32s32 14.355469 32 32v20c0 17.644531-14.355469 32-32 32zm0-64c-6.617188 0-12 5.382812-12 12v20c0 6.617188 5.382812 12 12 12s12-5.382812 12-12v-20c0-6.617188-5.382812-12-12-12zm0 0"/><path d="m256 468c-2.628906 0-5.210938-1.070312-7.070312-2.929688-1.859376-1.859374-2.929688-4.441406-2.929688-7.070312s1.070312-5.210938 2.929688-7.070312c1.859374-1.859376 4.441406-2.929688 7.070312-2.929688s5.210938 1.070312 7.070312 2.929688c1.859376 1.859374 2.929688 4.441406 2.929688 7.070312s-1.070312 5.210938-2.929688 7.070312c-1.859374 1.859376-4.441406 2.929688-7.070312 2.929688zm0 0"/></svg>