<svg height="512pt" viewBox="-46 0 512 512" width="512pt" xmlns="http://www.w3.org/2000/svg"><path d="m323.34375 249.96875h16.355469c38.828125 0 70.300781-31.453125 70.300781-70.253906 0-38.800782-31.472656-70.257813-70.300781-70.257813-1.375 0-2.734375.054688-4.089844.132813-11.714844-56.847656-62.042969-99.589844-122.355469-99.589844-53.855468 0-99.75 34.074219-117.300781 81.839844-1.761719-.183594-3.546875-.289063-5.359375-.289063-27.820312 0-50.375 22.539063-50.375 50.34375 0 3.804688.433594 7.507813 1.234375 11.070313-18.441406 7.476562-31.453125 25.546875-31.453125 46.660156 0 27.804688 22.554688 50.34375 50.378906 50.34375zm0 0" fill="#b0e7f8"/><path d="m330 309.96875h-240c-11.046875 0-20-8.953125-20-20v-80c0-11.042969 8.953125-20 20-20h240c11.046875 0 20 8.957031 20 20v80c0 11.046875-8.953125 20-20 20zm0 0" fill="#ffcb7c"/><path d="m242 470c0 17.671875-14.328125 32-32 32s-32-14.328125-32-32 14.328125-32 32-32 32 14.328125 32 32zm0 0" fill="#f5737f"/><path d="m74 451.625c0 15.464844-12.535156 28-28 28s-28-12.535156-28-28 12.535156-28 28-28 28 12.535156 28 28zm0 0" fill="#d8ec84"/><path d="m402 451.625c0 15.464844-12.535156 28-28 28s-28-12.535156-28-28 12.535156-28 28-28 28 12.535156 28 28zm0 0" fill="#ffcb7c"/><path d="m109.222656 264.96875c1.851563 3.210938 5.210938 5.003906 8.667969 5.003906 1.699219 0 3.417969-.433594 4.992187-1.34375l2.320313-1.339844v2.679688c0 5.523438 4.476563 10 10 10 5.519531 0 10-4.476562 10-10v-2.679688l2.320313 1.339844c1.574218.910156 3.292968 1.34375 4.988281 1.34375 3.457031 0 6.816406-1.792968 8.671875-5.003906 2.761718-4.78125 1.121094-10.898438-3.660156-13.660156l-2.324219-1.339844 2.324219-1.339844c4.78125-2.761718 6.421874-8.875 3.660156-13.660156-2.761719-4.78125-8.878906-6.417969-13.660156-3.660156l-2.320313 1.339844v-2.679688c0-5.523438-4.480469-10-10-10-5.523437 0-10 4.476562-10 10v2.679688l-2.320313-1.339844c-4.785156-2.757813-10.898437-1.121094-13.660156 3.660156-2.761718 4.785156-1.125 10.898438 3.660156 13.660156l2.320313 1.339844-2.320313 1.339844c-4.785156 2.761718-6.421874 8.878906-3.660156 13.660156zm0 0"/><path d="m184.019531 264.96875c1.851563 3.210938 5.214844 5.003906 8.671875 5.003906 1.695313 0 3.414063-.433594 4.988282-1.34375l2.320312-1.339844v2.679688c0 5.523438 4.476562 10 10 10s10-4.476562 10-10v-2.679688l2.320312 1.339844c1.574219.910156 3.292969 1.34375 4.988282 1.34375 3.457031 0 6.820312-1.792968 8.671875-5.003906 2.761719-4.78125 1.121093-10.898438-3.660157-13.660156l-2.320312-1.339844 2.320312-1.339844c4.785157-2.761718 6.421876-8.875 3.660157-13.660156-2.761719-4.78125-8.875-6.417969-13.660157-3.660156l-2.320312 1.339844v-2.679688c0-5.523438-4.476562-10-10-10-5.519531 0-10 4.476562-10 10v2.679688l-2.320312-1.339844c-4.78125-2.757813-10.898438-1.121094-13.660157 3.660156-2.761719 4.785156-1.121093 10.898438 3.660157 13.660156l2.324218 1.339844-2.324218 1.339844c-4.785157 2.761718-6.421876 8.878906-3.660157 13.660156zm0 0"/><path d="m258.644531 264.96875c1.851563 3.210938 5.214844 5.003906 8.671875 5.003906 1.695313 0 3.414063-.433594 4.988282-1.34375l2.320312-1.339844v2.679688c0 5.523438 4.476562 10 10 10s10-4.476562 10-10v-2.679688l2.320312 1.339844c1.574219.910156 3.292969 1.34375 4.988282 1.34375 3.457031 0 6.820312-1.792968 8.671875-5.003906 2.761719-4.78125 1.121093-10.898438-3.660157-13.660156l-2.320312-1.339844 2.320312-1.339844c4.78125-2.761718 6.421876-8.875 3.660157-13.660156-2.761719-4.78125-8.878907-6.417969-13.660157-3.660156l-2.320312 1.339844v-2.679688c0-5.523438-4.476562-10-10-10s-10 4.476562-10 10v2.679688l-2.320312-1.339844c-4.785157-2.757813-10.898438-1.121094-13.660157 3.660156-2.761719 4.785156-1.121093 10.898438 3.660157 13.660156l2.320312 1.339844-2.320312 1.339844c-4.785157 2.761718-6.421876 8.878906-3.660157 13.660156zm0 0"/><path d="m220.070312 429.230469-.070312-29.285157c-.011719-5.515624-4.488281-9.976562-10-9.976562-.007812 0-.015625 0-.023438 0-5.523437.011719-9.988281 4.5-9.976562 10.023438l.070312 29.203124c-18.382812 4.476563-32.070312 21.066407-32.070312 40.804688 0 23.160156 18.839844 42 42 42s42-18.839844 42-42c0-19.6875-13.621094-36.246094-31.929688-40.769531zm-10.070312 62.769531c-12.132812 0-22-9.867188-22-22s9.867188-22 22-22 22 9.867188 22 22-9.867188 22-22 22zm0 0"/><path d="m374 413.625c-6.847656 0-13.269531 1.828125-18.824219 5.011719l-23.121093-23.371094v-75.375c15.585937-1.058594 27.945312-14.070313 27.945312-29.921875v-32.609375c15.527344-4.054687 29.601562-12.710937 40.265625-24.949219 12.726563-14.597656 19.734375-33.3125 19.734375-52.695312 0-42.984375-33.984375-78.183594-76.511719-80.167969-7.285156-26.789063-22.871093-50.984375-44.472656-68.785156-24.066406-19.835938-54.523437-30.761719-85.761719-30.761719-28.171875 0-55.164062 8.59375-78.054687 24.855469-20.375 14.472656-36.136719 33.96875-45.914063 56.707031-32.691406.699219-59.066406 27.492188-59.066406 60.332031 0 1.765625.078125 3.539063.234375 5.308594-18.726563 10.636719-30.453125 30.441406-30.453125 52.421875 0 33.148438 26.882812 60.132812 60 60.335938v30.011718c0 15.847656 12.359375 28.859375 27.945312 29.921875v75.375l-23.121093 23.367188c-5.554688-3.179688-11.976563-5.007813-18.824219-5.007813-20.953125 0-38 17.046875-38 38 0 20.949219 17.046875 38 38 38s38-17.050781 38-38c0-6.859375-1.835938-13.292968-5.027344-18.855468l26.082032-26.363282c1.851562-1.871094 2.890624-4.398437 2.890624-7.03125v-79.410156h204.109376v79.410156c0 2.632813 1.039062 5.160156 2.890624 7.03125l26.082032 26.363282c-3.191406 5.558593-5.027344 11.992187-5.027344 18.851562 0 20.953125 17.046875 38 38 38s38-17.046875 38-38-17.046875-38-38-38zm-328 56c-9.925781 0-18-8.074219-18-18s8.074219-18 18-18 18 8.074219 18 18-8.074219 18-18 18zm-26-270c0-16.503906 9.894531-31.183594 25.210938-37.390625 4.535156-1.839844 7.070312-6.6875 6-11.460937-.660157-2.933594-.992188-5.921876-.992188-8.878907 0-22.246093 18.109375-40.34375 40.375-40.34375 1.390625 0 2.800781.078125 4.308594.234375 4.546875.480469 8.855468-2.191406 10.4375-6.496094 16.546875-45.03125 59.914062-75.289062 107.914062-75.289062 50.664063 0 95.269532 33.566406 109.886719 81.195312-14.070313 2.949219-27.15625 9.625-37.902344 19.542969-4.058593 3.746094-4.3125 10.070313-.566406 14.128907 1.972656 2.136718 4.65625 3.21875 7.351563 3.21875 2.425781 0 4.855468-.875 6.78125-2.648438 10.308593-9.515625 23.484374-15.070312 37.414062-15.867188.40625-.023437.792969-.042968 1.167969-.058593.769531-.027344 1.539062-.054688 2.3125-.054688 33.25 0 60.300781 27.03125 60.300781 60.257813 0 25.667968-16.550781 48.296875-40 56.730468v-26.476562c0-16.539062-13.457031-30-30-30h-240c-16.542969 0-30 13.460938-30 30v29.992188c-22.089844-.203126-40-18.214844-40-40.335938zm60 90.34375v-80c0-5.511719 4.484375-10 10-10h240c5.515625 0 10 4.488281 10 10v80c0 5.515625-4.484375 10-10 10h-240c-5.515625 0-10-4.484375-10-10zm294 179.65625c-9.925781 0-18-8.074219-18-18s8.074219-18 18-18 18 8.074219 18 18-8.074219 18-18 18zm0 0"/><path d="m210.128906 364.96875c2.632813 0 5.210938-1.070312 7.070313-2.929688 1.859375-1.859374 2.929687-4.4375 2.929687-7.070312 0-2.628906-1.070312-5.207031-2.929687-7.070312-1.859375-1.859376-4.4375-2.929688-7.070313-2.929688-2.628906 0-5.207031 1.070312-7.078125 2.929688-1.859375 1.863281-2.921875 4.441406-2.921875 7.070312 0 2.632812 1.0625 5.210938 2.921875 7.070312 1.871094 1.859376 4.449219 2.929688 7.078125 2.929688zm0 0"/></svg>