<svg height="512pt" viewBox="0 0 512 512" width="512pt" xmlns="http://www.w3.org/2000/svg"><path d="m33.3125 207.871094h187.75c13.253906 0 24-10.742188 24-24v-173.871094h-74.417969l-23.703125 40h-92.925781v143.085938" fill="#ffcb7c"/><path d="m170.644531 10-23.703125 40h-52.011718l25.921874-40h50.375" fill="#ff9d6c"/><path d="m290.25 502h187.75c13.253906 0 24-10.746094 24-24v-173.871094h-74.414062l-23.707032 40h-92.925781v143.082032" fill="#ffcb7c"/><path d="m427.585938 304.128906-23.707032 40h-52.011718l25.921874-40h50.375" fill="#ff9d6c"/><path d="m448 96c0 17.671875-14.328125 32-32 32s-32-14.328125-32-32 14.328125-32 32-32 32 14.328125 32 32zm0 0" fill="#d8ec84"/><path d="m128 416c0 17.671875-14.328125 32-32 32s-32-14.328125-32-32 14.328125-32 32-32 32 14.328125 32 32zm0 0" fill="#d8ec84"/><path d="m502 294.128906h-76v-157.34375c18.347656-4.496094 32-21.074218 32-40.785156 0-23.160156-18.839844-42-42-42-19.714844 0-36.289062 13.65625-40.789062 32h-120.148438v-76c0-5.523438-4.476562-10-10-10h-124.210938c-3.390624 0-6.546874 1.71875-8.390624 4.5625l-22.96875 35.4375h-79.492188c-5.523438 0-10 4.476562-10 10v135.863281c0 17.652344 14.359375 32.007813 32.007812 32.007813h189.054688c18.75 0 34-15.25 34-34v-77.871094h120.152344c3.710937 15.136719 15.648437 27.074219 30.785156 30.785156v157.339844h-28.210938c-3.386718 0-6.546874 1.71875-8.390624 4.5625l-22.964844 35.4375h-79.496094c-5.523438 0-10 4.476562-10 10v61.875h-120.148438c-3.714843-15.136719-15.648437-27.074219-30.789062-30.785156v-77.390625c0-5.523438-4.476562-10-10-10s-10 4.476562-10 10v77.390625c-18.34375 4.496094-32 21.070312-32 40.785156 0 23.160156 18.839844 42 42 42 19.714844 0 36.289062-13.65625 40.789062-32h120.148438v53.992188c0 17.648437 14.359375 32.007812 32.007812 32.007812h189.054688c18.746094 0 34-15.253906 34-34v-173.871094c0-5.523437-4.476562-10-10-10zm-375.710938-274.128906h26.804688l-11.851562 20h-27.917969zm-82.273437 165.863281c0 6.625-5.386719 12.007813-12.007813 12.007813-6.621093 0-12.007812-5.386719-12.007812-12.007813v-125.863281h24.015625zm191.046875-1.992187c0 7.722656-6.28125 14-14 14h-159.382812c1.507812-3.707032 2.335937-7.761719 2.335937-12.007813v-125.863281h30.890625.015625.015625 52.003906c3.53125 0 6.800782-1.863281 8.605469-4.902344l20.796875-35.097656h58.71875zm158.9375-87.871094c0-12.132812 9.867188-22 22-22s22 9.867188 22 22-9.867188 22-22 22-22-9.867188-22-22zm-298 342c-12.132812 0-22-9.867188-22-22s9.867188-22 22-22 22 9.867188 22 22-9.867188 22-22 22zm287.226562-123.871094h26.808594l-11.855468 20h-27.914063zm-82.273437 165.863282c0 6.621093-5.386719 12.007812-12.007813 12.007812-6.621093 0-12.007812-5.386719-12.007812-12.007812v-125.863282h24.015625zm191.046875-1.992188c0 7.71875-6.28125 14-14 14h-159.382812c1.507812-3.710938 2.335937-7.765625 2.335937-12.007812v-125.863282h30.890625.011719.015625 52.007812c3.53125 0 6.800782-1.863281 8.601563-4.902344l20.800781-35.097656h58.71875zm0 0"/><path d="m96 262.871094c2.628906 0 5.210938-1.0625 7.070312-2.929688 1.859376-1.863281 2.929688-4.429687 2.929688-7.070312 0-2.632813-1.070312-5.210938-2.929688-7.070313-1.859374-1.859375-4.441406-2.929687-7.070312-2.929687s-5.210938 1.070312-7.070312 2.929687c-1.859376 1.859375-2.929688 4.4375-2.929688 7.070313 0 2.640625 1.070312 5.207031 2.929688 7.070312 1.859374 1.867188 4.441406 2.929688 7.070312 2.929688zm0 0"/></svg>