<svg height="512pt" viewBox="0 -27 512 512" width="512pt" xmlns="http://www.w3.org/2000/svg"><path d="m278 156v108h208v-108c0-11.046875-8.953125-20-20-20h-168c-11.046875 0-20 8.953125-20 20zm0 0" fill="#dff6fc"/><path d="m415.238281 264h86.761719c0 22.089844-17.910156 40-40 40h-160c-22.089844 0-40-17.910156-40-40zm0 0" fill="#91def5"/><path d="m202 224h-172c-11.046875 0-20 8.953125-20 20v40c0 11.046875 8.953125 20 20 20h172c11.046875 0 20-8.953125 20-20v-40c0-11.046875-8.953125-20-20-20zm0 0" fill="#b5bcc9"/><path d="m202 144h-172c-11.046875 0-20 8.953125-20 20v40c0 11.046875 8.953125 20 20 20h172c11.046875 0 20-8.953125 20-20v-40c0-11.046875-8.953125-20-20-20zm0 0" fill="#e1e3e9"/><path d="m202 64h-172c-11.046875 0-20 8.953125-20 20v40c0 11.046875 8.953125 20 20 20h172c11.046875 0 20-8.953125 20-20v-40c0-11.046875-8.953125-20-20-20zm0 0" fill="#b5bcc9"/><path d="m406 424c0 13.253906-10.746094 24-24 24s-24-10.746094-24-24 10.746094-24 24-24 24 10.746094 24 24zm0 0" fill="#f5737f"/><path d="m462 74.933594c0 13.253906-10.746094 24-24 24s-24-10.746094-24-24c0-13.257813 10.746094-24 24-24s24 10.742187 24 24zm0 0" fill="#d8ec84"/><path d="m350 34c0 13.253906-10.746094 24-24 24s-24-10.746094-24-24 10.746094-24 24-24 24 10.746094 24 24zm0 0" fill="#ffd89e"/><path d="m52.410156 254c-2.632812 0-5.210937 1.070312-7.070312 2.929688-1.859375 1.859374-2.929688 4.441406-2.929688 7.070312s1.070313 5.210938 2.929688 7.070312c1.859375 1.859376 4.4375 2.929688 7.070312 2.929688 2.628906 0 5.210938-1.070312 7.070313-2.929688 1.867187-1.859374 2.929687-4.441406 2.929687-7.070312s-1.0625-5.210938-2.929687-7.070312c-1.859375-1.859376-4.441407-2.929688-7.070313-2.929688zm0 0"/><path d="m88.539062 254c-2.628906 0-5.210937 1.070312-7.070312 2.929688-1.859375 1.859374-2.929688 4.441406-2.929688 7.070312s1.070313 5.210938 2.929688 7.070312c1.863281 1.859376 4.441406 2.929688 7.070312 2.929688 2.632813 0 5.210938-1.070312 7.070313-2.929688 1.859375-1.859374 2.929687-4.441406 2.929687-7.070312s-1.070312-5.210938-2.929687-7.070312c-1.859375-1.859376-4.4375-2.929688-7.070313-2.929688zm0 0"/><path d="m134.34375 274h48.214844c5.523437 0 10-4.476562 10-10s-4.476563-10-10-10h-48.214844c-5.523438 0-10 4.476562-10 10s4.476562 10 10 10zm0 0"/><path d="m52.410156 174c-2.632812 0-5.210937 1.070312-7.070312 2.929688-1.859375 1.859374-2.929688 4.441406-2.929688 7.070312s1.070313 5.210938 2.929688 7.070312c1.859375 1.859376 4.4375 2.929688 7.070312 2.929688 2.628906 0 5.210938-1.070312 7.070313-2.929688 1.867187-1.859374 2.929687-4.441406 2.929687-7.070312s-1.0625-5.210938-2.929687-7.070312c-1.859375-1.859376-4.441407-2.929688-7.070313-2.929688zm0 0"/><path d="m88.539062 174c-2.628906 0-5.210937 1.070312-7.070312 2.929688-1.859375 1.859374-2.929688 4.441406-2.929688 7.070312s1.070313 5.210938 2.929688 7.070312c1.863281 1.859376 4.441406 2.929688 7.070312 2.929688 2.632813 0 5.210938-1.070312 7.070313-2.929688 1.859375-1.859374 2.929687-4.441406 2.929687-7.070312s-1.070312-5.210938-2.929687-7.070312c-1.859375-1.859376-4.4375-2.929688-7.070313-2.929688zm0 0"/><path d="m182.558594 174h-48.214844c-5.523438 0-10 4.476562-10 10s4.476562 10 10 10h48.214844c5.523437 0 10-4.476562 10-10s-4.476563-10-10-10zm0 0"/><path d="m52.410156 114c2.628906 0 5.210938-1.070312 7.070313-2.929688 1.867187-1.859374 2.929687-4.441406 2.929687-7.070312s-1.0625-5.210938-2.929687-7.070312c-1.859375-1.859376-4.441407-2.929688-7.070313-2.929688-2.632812 0-5.210937 1.070312-7.070312 2.929688-1.859375 1.859374-2.929688 4.441406-2.929688 7.070312s1.070313 5.210938 2.929688 7.070312c1.859375 1.859376 4.4375 2.929688 7.070312 2.929688zm0 0"/><path d="m88.539062 114c2.632813 0 5.210938-1.070312 7.070313-2.929688 1.859375-1.859374 2.929687-4.441406 2.929687-7.070312s-1.070312-5.210938-2.929687-7.070312c-1.859375-1.859376-4.4375-2.929688-7.070313-2.929688-2.628906 0-5.210937 1.070312-7.070312 2.929688-1.859375 1.859374-2.929688 4.441406-2.929688 7.070312s1.070313 5.210938 2.929688 7.070312c1.863281 1.859376 4.441406 2.929688 7.070312 2.929688zm0 0"/><path d="m134.34375 114h48.214844c5.523437 0 10-4.476562 10-10s-4.476563-10-10-10h-48.214844c-5.523438 0-10 4.476562-10 10s4.476562 10 10 10zm0 0"/><path d="m267.996094 414h-141.996094v-100h76c16.542969 0 30-13.457031 30-30v-40c0-7.679688-2.902344-14.6875-7.664062-20 4.761718-5.3125 7.664062-12.320312 7.664062-20v-40c0-7.679688-2.902344-14.6875-7.664062-20 4.761718-5.3125 7.664062-12.320312 7.664062-20v-40c0-16.542969-13.457031-30-30-30h-172c-16.542969 0-30 13.457031-30 30v40c0 7.679688 2.902344 14.6875 7.664062 20-4.761718 5.3125-7.664062 12.320312-7.664062 20v40c0 7.679688 2.902344 14.6875 7.664062 20-4.761718 5.3125-7.664062 12.320312-7.664062 20v40c0 16.542969 13.457031 30 30 30h76v110c0 5.523438 4.476562 10 10 10h151.996094c5.523437 0 10-4.476562 10-10s-4.476563-10-10-10zm-247.996094-210v-40c0-5.515625 4.484375-10 10-10h172c5.515625 0 10 4.484375 10 10v40c0 5.515625-4.484375 10-10 10h-172c-5.515625 0-10-4.484375-10-10zm0-120c0-5.515625 4.484375-10 10-10h172c5.515625 0 10 4.484375 10 10v40c0 5.515625-4.484375 10-10 10h-172c-5.515625 0-10-4.484375-10-10zm0 200v-40c0-5.515625 4.484375-10 10-10h172c5.515625 0 10 4.484375 10 10v40c0 5.515625-4.484375 10-10 10h-172c-5.515625 0-10-4.484375-10-10zm0 0"/><path d="m502 254h-6.003906v-98c0-16.542969-13.457032-30-30-30h-18v-18.570312c13.882812-4.28125 24-17.230469 24-32.496094 0-18.75-15.25-34-34-34-18.746094 0-34 15.25-34 34 0 15.265625 10.121094 28.214844 24 32.496094v18.570312h-92v-59.503906c13.882812-4.28125 24-17.226563 24-32.496094 0-18.746094-15.25-34-34-34-18.746094 0-34 15.253906-34 34 0 15.269531 10.121094 28.21875 24 32.496094v59.503906h-18c-16.539063 0-30 13.457031-30 30v98h-5.996094c-5.523438 0-10 4.476562-10 10 0 27.570312 22.429688 50 50 50h69.996094v77.503906c-13.878906 4.28125-24 17.226563-24 32.496094 0 18.746094 15.253906 34 34 34 18.75 0 34-15.253906 34-34 0-15.269531-10.117188-28.21875-24-32.496094v-77.503906h70.003906c27.570312 0 50-22.429688 50-50 0-5.523438-4.476562-10-10-10zm-64.003906-193.066406c7.722656 0 14 6.277344 14 14 0 7.71875-6.277344 14-14 14-7.71875 0-14-6.28125-14-14 0-7.722656 6.28125-14 14-14zm-112-40.933594c7.722656 0 14 6.28125 14 14s-6.277344 14-14 14c-7.71875 0-14-6.28125-14-14s6.28125-14 14-14zm56 418c-7.71875 0-14-6.28125-14-14s6.28125-14 14-14c7.722656 0 14 6.28125 14 14s-6.277344 14-14 14zm-94-282c0-5.515625 4.488281-10 10-10h18v23.914062c0 5.523438 4.480468 10 10 10 5.523437 0 10-4.476562 10-10v-23.914062h92v66.980469c0 5.523437 4.480468 10 10 10 5.523437 0 10-4.476563 10-10v-66.980469h18c5.515625 0 10 4.484375 10 10v98h-188zm174.003906 138h-160c-13.035156 0-24.160156-8.359375-28.285156-20h216.570312c-4.125 11.640625-15.25 20-28.285156 20zm0 0"/><path d="m313 414c-2.640625 0-5.210938 1.070312-7.070312 2.929688-1.859376 1.859374-2.929688 4.441406-2.929688 7.070312s1.070312 5.210938 2.929688 7.070312c1.859374 1.859376 4.441406 2.929688 7.070312 2.929688s5.210938-1.070312 7.070312-2.929688c1.859376-1.859374 2.929688-4.441406 2.929688-7.070312s-1.070312-5.210938-2.929688-7.070312c-1.859374-1.859376-4.441406-2.929688-7.070312-2.929688zm0 0"/></svg>