<svg height="512pt" viewBox="0 0 512 512" width="512pt" xmlns="http://www.w3.org/2000/svg"><path d="m82 10-72 41.5v83l72 41.5 72-41.5v-83zm0 0" fill="#e2f1a1"/><path d="m154 134.5v-83l-72 41.5v83zm0 0" fill="#cbe558"/><path d="m10 134.5v-83l72 41.5v83zm0 0" fill="#d8ec84"/><path d="m430 10-72 41.5v83l72 41.5 72-41.5v-83zm0 0" fill="#e2f1a1"/><path d="m502 134.5v-83l-72 41.5v83zm0 0" fill="#cbe558"/><path d="m358 134.5v-83l72 41.5v83zm0 0" fill="#d8ec84"/><path d="m82 342.433594-72 39.890625v79.785156l72 39.890625 72-39.890625v-79.785156zm0 0" fill="#e2f1a1"/><path d="m154 462.109375v-79.785156l-72 39.890625v79.785156zm0 0" fill="#cbe558"/><path d="m10 462.109375v-79.785156l72 39.890625v79.785156zm0 0" fill="#d8ec84"/><path d="m430 342.433594-72 39.890625v79.785156l72 39.890625 72-39.890625v-79.785156zm0 0" fill="#e2f1a1"/><path d="m502 462.109375v-79.785156l-72 39.890625v79.785156zm0 0" fill="#cbe558"/><path d="m358 462.109375v-79.785156l72 39.890625v79.785156zm0 0" fill="#d8ec84"/><path d="m315.125 200.277344h-118.25c-11.527344 0-20.875 9.347656-20.875 20.875v97.761718c0 11.53125 9.347656 20.875 20.875 20.875h118.25c11.527344 0 20.875-9.34375 20.875-20.875v-97.761718c0-11.527344-9.347656-20.875-20.875-20.875zm0 0" fill="#b0e7f8"/><path d="m276 276.089844c0 11.046875-8.953125 20-20 20s-20-8.953125-20-20 8.953125-20 20-20 20 8.953125 20 20zm0 0" fill="#fff"/><path d="m425.007812 184.664062c1.542969.890626 3.269532 1.335938 4.992188 1.335938s3.449219-.445312 4.992188-1.335938l72-41.5c3.097656-1.785156 5.007812-5.089843 5.007812-8.664062v-83c0-3.574219-1.910156-6.878906-5.007812-8.664062l-72-41.5c-3.089844-1.78125-6.894532-1.78125-9.984376 0l-72 41.5c-3.097656 1.785156-5.007812 5.089843-5.007812 8.664062v83c0 3.574219 1.910156 6.878906 5.007812 8.664062l1.066407.617188-40.074219 40.074219v-13.992188c0-31.980469-26.019531-58-58-58s-58 26.019531-58 58v13.996094l-40.074219-40.078125 1.066407-.617188c3.097656-1.785156 5.007812-5.089843 5.007812-8.664062v-83c0-3.574219-1.910156-6.878906-5.007812-8.664062l-72-41.5c-3.089844-1.78125-6.894532-1.78125-9.984376 0l-72 41.5c-3.097656 1.785156-5.007812 5.089843-5.007812 8.664062v83c0 3.574219 1.910156 6.878906 5.007812 8.664062l72 41.5c1.542969.890626 3.265626 1.335938 4.992188 1.335938s3.449219-.445312 4.992188-1.335938l52.988281-30.542968 40.734375 40.738281c-8.820313 5.441406-14.714844 15.191406-14.714844 26.292969v97.761718c0 3.851563.714844 7.535157 2.007812 10.9375l-31.402343 31.402344-49.757813-27.570312c-3.015625-1.667969-6.679687-1.667969-9.695312 0l-72 39.894531c-3.179688 1.761719-5.152344 5.109375-5.152344 8.746094v79.785156c0 3.632813 1.972656 6.984375 5.152344 8.746094l72 39.890625c1.507812.835937 3.175781 1.253906 4.847656 1.253906s3.339844-.417969 4.847656-1.253906l72-39.890625c3.179688-1.761719 5.152344-5.113281 5.152344-8.746094v-79.785156c0-3.636719-1.972656-6.984375-5.152344-8.746094l-4.042968-2.242187 26.042968-26.042969c4.675782 2.851562 10.164063 4.496093 16.027344 4.496093h14.125c5.523438 0 10-4.476562 10-10 0-5.523437-4.476562-10-10-10h-14.125c-5.996094 0-10.875-4.878906-10.875-10.875v-97.761718c0-5.996094 4.878906-10.875 10.875-10.875h118.25c5.996094 0 10.875 4.878906 10.875 10.875v97.761718c0 5.996094-4.878906 10.875-10.875 10.875h-14.125c-5.523438 0-10 4.476563-10 10 0 5.523438 4.476562 10 10 10h14.125c5.863281 0 11.351562-1.644531 16.027344-4.496093l26.042968 26.042969-4.042968 2.242187c-3.179688 1.761719-5.152344 5.109375-5.152344 8.746094v79.785156c0 3.632813 1.972656 6.984375 5.152344 8.746094l72 39.890625c1.507812.835937 3.175781 1.253906 4.847656 1.253906s3.339844-.417969 4.847656-1.253906l72-39.890625c3.179688-1.761719 5.152344-5.113281 5.152344-8.746094v-79.785156c0-3.636719-1.972656-6.984375-5.152344-8.746094l-72-39.894531c-3.015625-1.667969-6.679687-1.667969-9.695312 0l-49.753906 27.570312-31.40625-31.402344c1.292968-3.402343 2.007812-7.085937 2.007812-10.9375v-97.761718c0-11.101563-5.894531-20.851563-14.714844-26.292969l40.734375-40.738281zm-333.007812-85.886718 52-29.96875v59.914062l-52 29.972656zm-10-77.234375 51.976562 29.957031-51.976562 29.957031-51.976562-29.957031zm-62 47.261719 52 29.972656v59.914062l-52-29.96875zm62 285.058593 51.367188 28.460938-51.367188 28.460937-51.367188-28.460937zm-62 45.433594 52 28.8125v56.917969l-52-28.8125zm72 85.730469v-56.917969l52-28.8125v56.917969zm276-85.730469 52 28.8125v56.917969l-52-28.8125zm72 85.730469v-56.917969l52-28.8125v56.917969zm-10-131.164063 51.367188 28.460938-51.367188 28.460937-51.367188-28.460937zm-174-222c20.953125 0 38 17.046875 38 38v20.414063h-76v-20.414063c0-20.953125 17.046875-38 38-38zm164-33.085937v59.917968l-52-29.972656v-59.917968zm20 59.917968v-59.917968l52-29.96875v59.914062zm-10-137.152343 51.976562 29.957031-51.976562 29.957031-51.976562-29.957031zm0 0"/><path d="m266 247.808594v-7.828125c0-5.523438-4.476562-10-10-10s-10 4.476562-10 10v7.828125c-11.640625 4.128906-20 15.246094-20 28.28125 0 16.542968 13.457031 30 30 30s30-13.457032 30-30c0-13.035156-8.359375-24.152344-20-28.28125zm-10 38.28125c-5.515625 0-10-4.484375-10-10s4.484375-10 10-10 10 4.484375 10 10-4.484375 10-10 10zm0 0"/><path d="m256 329.75c-2.628906 0-5.210938 1.058594-7.070312 2.917969-1.859376 1.871093-2.929688 4.453125-2.929688 7.082031 0 2.621094 1.070312 5.199219 2.929688 7.070312 1.859374 1.859376 4.441406 2.929688 7.070312 2.929688s5.210938-1.070312 7.070312-2.929688c1.859376-1.859374 2.929688-4.441406 2.929688-7.070312 0-2.640625-1.070312-5.210938-2.929688-7.082031-1.859374-1.859375-4.441406-2.917969-7.070312-2.917969zm0 0"/></svg>