<svg height="512pt" viewBox="0 0 512 512" width="512pt" xmlns="http://www.w3.org/2000/svg"><path d="m436 322c0 99.410156-80.589844 180-180 180s-180-80.589844-180-180 80.589844-180 180-180 180 80.589844 180 180zm0 0" fill="#cff1fb"/><g fill="#cbe558"><path d="m164.996094 340.113281c-.183594-.183593-.371094-.359375-.5625-.535156l-24.222656-21.480469c-2.371094-2.105468-5.429688-3.265625-8.601563-3.265625h-55.453125c-.09375 2.378907-.15625 4.765625-.15625 7.167969 0 46.207031 17.417969 88.34375 46.039062 120.214844l15.601563-28.972656c2.257813-4.199219 6.644531-6.816407 11.410156-6.816407 5.402344 0 10.242188-3.351562 12.136719-8.410156l7.484375-19.953125c.855469-2.285156 2.339844-4.28125 4.28125-5.757812l1.957031-1.492188c6.242188-4.757812 6.859375-13.925781 1.308594-19.476562zm0 0"/><path d="m85.292969 264.773438 25.414062-18.480469c2.808594-2.042969 6.1875-3.140625 9.660157-3.140625h15.777343c9.335938 0 16.792969-7.769532 16.414063-17.097656-.191406-4.585938 1.550781-9.042969 4.796875-12.289063l1-1c3.457031-3.457031 8.269531-5.195313 13.136719-4.742187l24.09375 2.242187c6.667968.621094 13.046874-2.871094 16.117187-8.820313l13.097656-25.378906c4.070313-7.886718 1.140625-17.582031-6.617187-21.890625l-10.226563-5.679687c-57.695312 15.941406-103.765625 59.875-122.664062 116.277344zm0 0"/><path d="m402.578125 217.511719h-78.765625c-1.097656 0-2.183594-.226563-3.195312-.664063l-14.042969-6.109375c-1.007813-.4375-2.09375-.664062-3.195313-.664062h-19.78125c-2.421875 0-4.714844 1.097656-6.234375 2.984375l-12.386719 15.359375c-2.246093 2.785156-2.375 6.722656-.3125 9.648437 2.851563 4.035156 1.402344 9.660156-3.039062 11.820313l-14.527344 7.066406c-2.757812 1.34375-4.507812 4.140625-4.507812 7.203125v15.234375c0 4.425781-3.585938 8.011719-8.007813 8.011719-6.492187 0-12.4375 3.636718-15.386719 9.417968l-3.742187 7.328126c-5.984375 11.722656-3.734375 25.964843 5.574219 35.273437l18.90625 18.90625c1.5 1.5 3.539062 2.34375 5.664062 2.34375h12.988282c3.75 0 7 2.605469 7.816406 6.269531l4.453125 19.972656c.128906.570313.191406 1.15625.191406 1.742188v25.050781c0 18.941407 15.351563 34.292969 34.292969 34.292969 2.1875 0 4.28125-.894531 5.792968-2.476562l46.542969-48.734376c1.421875-1.492187 2.214844-3.472656 2.214844-5.53125v-50.703124c0-4.882813 2.414063-9.445313 6.445313-12.195313l6.574218-4.488281c6.230469-4.253906 14.660156-3.125 19.554688 2.613281l2.585937 3.03125c5.589844 6.554687 15.582031 6.949219 21.671875.859375 2.769532-2.769531 6.523438-4.324219 10.441406-4.324219h8.785157c.03125-1.347656.054687-2.695312.054687-4.050781-.003906-38.960938-12.386718-75.027344-33.425781-104.488281zm0 0"/></g><path d="m280 34c0 13.253906-10.746094 24-24 24s-24-10.746094-24-24 10.746094-24 24-24 24 10.746094 24 24zm0 0" fill="#f5737f"/><path d="m66 38c0 15.464844-12.535156 28-28 28s-28-12.535156-28-28 12.535156-28 28-28 28 12.535156 28 28zm0 0" fill="#d8ec84"/><path d="m502 38c0 15.464844-12.535156 28-28 28s-28-12.535156-28-28 12.535156-28 28-28 28 12.535156 28 28zm0 0" fill="#d8ec84"/><path d="m512 38c0-10.148438-3.953125-19.691406-11.128906-26.871094-7.179688-7.175781-16.722656-11.128906-26.871094-11.128906s-19.691406 3.953125-26.871094 11.128906c-7.175781 7.179688-11.128906 16.722656-11.128906 26.871094s3.953125 19.691406 11.128906 26.871094c4.5625 4.558594 10.078125 7.8125 16.09375 9.582031v100.90625l-46.085937 46.085937c-31.9375-50.996093-87.390625-85.832031-151.050781-89.175781l-.042969-65.785156c13.859375-4.292969 23.957031-17.230469 23.957031-32.484375 0-18.746094-15.253906-34-34-34s-34 15.253906-34 34c0 15.285156 10.136719 28.242188 24.042969 32.507812l.042969 65.75c-13.578126.699219-26.773438 2.84375-39.457032 6.261719-.957031.117188-1.886718.371094-2.769531.753907-45.660156 13.050781-84.335937 42.792968-108.996094 82.171874l-46.085937-46.085937v-100.90625c6.019531-1.769531 11.535156-5.023437 16.09375-9.582031 7.175781-7.179688 11.128906-16.722656 11.128906-26.871094s-3.953125-19.691406-11.128906-26.871094c-7.179688-7.175781-16.722656-11.128906-26.871094-11.128906s-19.691406 3.953125-26.871094 11.128906c-7.175781 7.179688-11.128906 16.722656-11.128906 26.871094s3.953125 19.691406 11.128906 26.871094c4.949219 4.949218 11.023438 8.363281 17.648438 10.007812v104.621094c0 2.652344 1.050781 5.195312 2.925781 7.070312l53.085937 53.082032c-12.039062 24.925781-18.789062 52.863281-18.789062 82.347656 0 86.996094 58.808594 162.71875 143.011719 184.144531.828125.210938 1.660156.308594 2.472656.308594 4.464844 0 8.535156-3.011719 9.6875-7.535156 1.359375-5.351563-1.875-10.792969-7.226563-12.15625-31.183593-7.933594-58.464843-24.195313-79.742187-46.046875l12.238281-22.730469c.519532-.960937 1.519532-1.558594 2.609375-1.558594 9.519531 0 18.160157-5.988281 21.5-14.898437l7.480469-19.953125c.199219-.519531.535156-.976563.980469-1.316407l1.957031-1.488281c5.269531-4.015625 8.550781-10.113281 8.996094-16.722656.441406-6.613281-1.988282-13.09375-6.675782-17.78125l-11.230468-11.230469c-.324219-.324218-.660156-.640625-.992188-.933594l-24.21875-21.484374c-4.207031-3.726563-9.617187-5.78125-15.238281-5.78125h-44.746094c1.175781-11.691407 3.546875-23.035157 6.980469-33.914063l22.746094-16.539063c1.105468-.804687 2.410156-1.230468 3.777344-1.230468h15.777343c7.261719 0 14.035157-2.886719 19.0625-8.125 5.03125-5.242188 7.636719-12.125 7.339844-19.382813-.074219-1.789062.609375-3.539062 1.878906-4.804687l1-1c1.355469-1.359375 3.226563-2.03125 5.136719-1.855469l24.097656 2.242187c10.78125 1.003907 20.960938-4.570312 25.929688-14.191406l13.097656-25.378906c4.617188-8.945312 3.695312-19.214844-1.585938-26.964844 7.8125-1.105468 15.789063-1.691406 23.898438-1.691406 49.679688 0 94.445312 21.421875 125.554688 55.511719h-57.328126l-13.664062-5.941407c-2.277344-.992187-4.695312-1.496093-7.179688-1.496093h-19.785156c-5.472656 0-10.582031 2.445312-14.019531 6.707031l-12.386719 15.359375c-4.535156 5.621094-5.210937 13.433594-1.90625 19.710937l-12.5625 6.113282c-6.15625 2.992187-10.132812 9.351562-10.132812 16.191406v13.316406c-9.496094.679688-17.921875 6.222656-22.304688 14.800782l-3.738281 7.328124c-7.984375 15.632813-5.007813 34.476563 7.40625 46.890626l18.90625 18.902343c3.398437 3.402344 7.921875 5.277344 12.734375 5.277344h11.394531l4.058594 18.203125v24.832031c0 24.421875 19.867187 44.292969 44.292969 44.292969 4.894531 0 9.640625-2.03125 13.023437-5.570312l46.539063-48.734376c3.214844-3.367187 4.988281-7.785156 4.988281-12.4375v-50.703124c0-1.574219.777344-3.046876 2.078125-3.9375l6.578125-4.484376c2.011719-1.375 4.726563-1.015624 6.308594.84375l2.585937 3.03125c4.46875 5.238282 10.980469 8.398438 17.863282 8.671876 6.886718.300781 13.621093-2.363282 18.488281-7.230469.464843-.464844 1.011719-.816407 1.601562-1.054688-6.023437 71.578125-56.59375 132.257813-127.105469 150.308594-5.351562 1.367187-8.578124 6.816406-7.207031 12.164063 1.367188 5.351562 6.816407 8.578124 12.167969 7.210937 84.046875-21.515625 142.75-97.210937 142.75-184.078125 0-29.484375-6.75-57.421875-18.789062-82.347656l53.085937-53.082032c1.875-1.875 2.925781-4.417968 2.925781-7.070312v-104.621094c6.625-1.644531 12.699219-5.058594 17.648438-10.007812 7.175781-7.179688 11.128906-16.722656 11.128906-26.871094zm-492 0c0-4.808594 1.871094-9.328125 5.273438-12.726562 3.398437-3.402344 7.917968-5.273438 12.726562-5.273438s9.328125 1.871094 12.726562 5.273438c3.402344 3.398437 5.273438 7.917968 5.273438 12.726562s-1.871094 9.328125-5.273438 12.726562c-3.398437 3.402344-7.917968 5.273438-12.726562 5.273438s-9.328125-1.871094-12.726562-5.273438c-3.402344-3.398437-5.273438-7.917968-5.273438-12.726562zm236-18c7.71875 0 14 6.28125 14 14s-6.28125 14-14 14-14-6.28125-14-14 6.28125-14 14-14zm-122.425781 305.578125 24.234375 21.496094c.042968.039062.085937.078125.117187.109375l11.222657 11.222656c.828124.828125.894531 1.792969.863281 2.292969-.035157.5-.230469 1.449219-1.164063 2.160156l-1.957031 1.488281c-3.441406 2.625-6.066406 6.152344-7.582031 10.203125l-7.484375 19.953125c-.429688 1.148438-1.546875 1.921875-2.773438 1.921875-8.460937 0-16.207031 4.625-20.21875 12.074219l-8.585937 15.945312c-21.125-28.023437-33.609375-62.617187-34.21875-99.613281h45.582031c.726563 0 1.425781.265625 1.964844.746094zm79.75-162.660156c3.054687 1.695312 4.191406 5.457031 2.589843 8.5625l-13.097656 25.378906c-1.207031 2.339844-3.691406 3.695313-6.304687 3.449219l-24.097657-2.242188c-7.847656-.726562-15.554687 2.050782-21.132812 7.628906l-1 1c-5.207031 5.207032-8.019531 12.410157-7.714844 19.765626.070313 1.765624-.5625 3.4375-1.785156 4.714843-1.222656 1.273438-2.871094 1.972657-4.636719 1.972657h-15.777343c-3.691407 0-7.269532.769531-10.582032 2.222656 21.492188-36.136719 55.984375-63.667969 96.988282-76.09375zm196.324219 160.386719c-1.28125 1.285156-2.769532 1.429687-3.554688 1.390624-.777344-.027343-2.257812-.285156-3.4375-1.667968l-2.585938-3.03125c-8.226562-9.644532-22.328124-11.527344-32.800781-4.382813l-6.574219 4.484375c-6.765624 4.617188-10.804687 12.265625-10.804687 20.457032v49.90625l-45.390625 47.523437c-13.007812-.441406-23.453125-11.164063-23.453125-24.277344v-25.050781c0-1.3125-.144531-2.632812-.433594-3.917969l-4.453125-19.976562c-1.851562-8.296875-9.078125-14.089844-17.578125-14.089844h-12.160156l-18.324219-18.324219c-6.261718-6.261718-7.765625-15.765625-3.738281-23.652344l3.742187-7.328124c1.25-2.445313 3.730469-3.96875 6.480469-3.96875 9.929688 0 18.007813-8.078126 18.007813-18.007813v-13.988281l13.410156-6.523438c4.761719-2.316406 8.246094-6.582031 9.566406-11.710937 1.191406-4.632813.492188-9.503907-1.90625-13.589844l10.890625-13.503906h18.417969l13.667969 5.945312c2.277343.988281 4.691406 1.492188 7.179687 1.492188h73.4375c17.117188 25.507812 27.507813 55.882812 28.632813 88.574219-6.136719.308593-11.859375 2.84375-16.238281 7.21875zm77.078124-272.578126c-3.398437 3.402344-7.917968 5.273438-12.726562 5.273438s-9.328125-1.871094-12.726562-5.273438c-3.402344-3.398437-5.273438-7.917968-5.273438-12.726562s1.871094-9.328125 5.273438-12.726562c3.398437-3.402344 7.917968-5.273438 12.726562-5.273438s9.328125 1.871094 12.726562 5.273438c3.402344 3.398437 5.273438 7.917968 5.273438 12.726562s-1.871094 9.328125-5.273438 12.726562zm0 0"/><path d="m256 492c-2.628906 0-5.210938 1.070312-7.070312 2.929688-1.859376 1.859374-2.929688 4.441406-2.929688 7.070312s1.070312 5.210938 2.929688 7.070312c1.859374 1.859376 4.441406 2.929688 7.070312 2.929688s5.210938-1.070312 7.070312-2.929688c1.859376-1.859374 2.929688-4.441406 2.929688-7.070312s-1.070312-5.210938-2.929688-7.070312c-1.859374-1.859376-4.441406-2.929688-7.070312-2.929688zm0 0"/></svg>