<svg height="512pt" viewBox="0 0 512 512" width="512pt" xmlns="http://www.w3.org/2000/svg"><path d="m34 83h316c13.253906 0 24 10.746094 24 24v371c0 13.253906-10.746094 24-24 24h-316c-13.253906 0-24-10.746094-24-24v-371c0-13.253906 10.746094-24 24-24zm0 0" fill="#fff"/><path d="m235.917969 50h-107.835938c-11.734375 0-21.25 9.515625-21.25 21.25v44.75h150.332031v-44.75c.003907-11.734375-9.511718-21.25-21.246093-21.25zm0 0" fill="#98a1b3"/><path d="m246 438h64v64h-64zm0 0" fill="#d8ec84"/><path d="m310 378h64v124h-64zm0 0" fill="#cff1fb"/><path d="m374 342h64v160h-64zm0 0" fill="#ffcb7c"/><path d="m438 290h64v212h-64zm0 0" fill="#f6838d"/><path d="m502 107h-66.332031l17.816406 17.820312-115.554687 115.554688-54-54-93 92.996094 31.113281 31.117187 61.886719-61.886719 54 54 146.667968-146.671874 17.402344 17.402343zm0 0" fill="#f6838d"/><path d="m384 270.671875 100.597656-100.597656 10.332032 10.332031c2.859374 2.859375 7.160156 3.714844 10.898437 2.167969 3.734375-1.550781 6.171875-5.195313 6.171875-9.238281v-66.335938c0-5.523438-4.476562-10-10-10h-66.332031c-4.046875 0-7.691407 2.4375-9.238281 6.171875-1.550782 3.738281-.695313 8.039063 2.164062 10.898437l10.75 10.746094-55.34375 55.34375v-73.160156c0-18.746094-15.253906-34-34-34h-82.832031v-1.75c0-17.230469-14.019531-31.25-31.25-31.25h-20.417969v-6.5c0-18.472656-15.027344-33.5-33.5-33.5s-33.5 15.027344-33.5 33.5v6.5h-20.417969c-17.230469 0-31.25 14.019531-31.25 31.25v1.75h-62.832031c-18.746094 0-34 15.253906-34 34v104c0 5.523438 4.476562 10 10 10s10-4.476562 10-10v-104c0-7.71875 6.28125-14 14-14h62.832031v23c0 5.523438 4.476563 10 10 10h150.332031c5.523438 0 10-4.476562 10-10v-23h82.835938c7.71875 0 14 6.28125 14 14v93.160156l-26.070312 26.070313-46.929688-46.925781c-3.902344-3.90625-10.234375-3.90625-14.140625 0l-93 92.996093c-1.875 1.878907-2.929687 4.421875-2.929687 7.070313 0 2.652344 1.054687 5.195312 2.929687 7.074218l31.113281 31.113282c1.953125 1.949218 4.511719 2.925781 7.070313 2.925781 2.558593 0 5.117187-.976563 7.070312-2.925781l54.816407-54.816406 46.929687 46.929687c3.902344 3.902344 10.238281 3.902344 14.140625 0l19-19v77.328125h-54c-5.523438 0-10 4.476562-10 10v50h-54c-5.523438 0-10 4.476562-10 10v54h-202c-7.71875 0-14-6.28125-14-14v-177c0-5.523438-4.476562-10-10-10s-10 4.476562-10 10v177c0 18.746094 15.253906 34 34 34h468c5.523438 0 10-4.476562 10-10v-212c0-5.523438-4.476562-10-10-10h-64c-5.523438 0-10 4.476562-10 10v42h-44zm-215.5-237.171875c0-7.445312 6.054688-13.5 13.5-13.5s13.5 6.054688 13.5 13.5v6.5h-27zm78.667969 72.5h-130.335938v-34.75c0-6.203125 5.046875-11.25 11.25-11.25h107.835938c6.203125 0 11.25 5.046875 11.25 11.25zm90.761719 182.457031-46.929688-46.929687c-3.902344-3.90625-10.234375-3.90625-14.140625 0l-54.816406 54.816406-16.96875-16.972656 78.855469-78.855469 46.929687 46.929687c3.90625 3.902344 10.238281 3.902344 14.144531 0l115.554688-115.554687c3.902344-3.90625 3.902344-10.238281 0-14.144531l-.75-.746094h32.191406v32.191406l-.332031-.332031c-3.902344-3.90625-10.234375-3.90625-14.140625 0zm-81.929688 203.542969v-44h44v44zm64-54v-50h44v104h-44zm128-138h44v192h-44zm-20 192h-44v-140h44zm0 0"/><path d="m10 266.128906c2.628906 0 5.210938-1.070312 7.070312-2.929687 1.859376-1.859375 2.929688-4.4375 2.929688-7.070313 0-2.628906-1.070312-5.207031-2.929688-7.070312-1.859374-1.867188-4.441406-2.929688-7.070312-2.929688s-5.210938 1.0625-7.070312 2.929688c-1.859376 1.863281-2.929688 4.441406-2.929688 7.070312 0 2.632813 1.070312 5.210938 2.929688 7.070313 1.859374 1.859375 4.441406 2.929687 7.070312 2.929687zm0 0"/><path d="m96.167969 159.25h-29c-5.523438 0-10 4.476562-10 10s4.476562 10 10 10h29c5.523437 0 10-4.476562 10-10s-4.480469-10-10-10zm0 0"/><path d="m180.167969 179.25c5.523437 0 10-4.476562 10-10s-4.476563-10-10-10h-37c-5.523438 0-10 4.476562-10 10s4.476562 10 10 10zm0 0"/><path d="m60.089844 210.179688c-1.859375 1.859374-2.917969 4.441406-2.917969 7.070312s1.058594 5.210938 2.917969 7.070312c1.871094 1.859376 4.449218 2.929688 7.082031 2.929688 2.628906 0 5.207031-1.070312 7.066406-2.929688 1.863281-1.859374 2.933594-4.441406 2.933594-7.070312s-1.070313-5.210938-2.933594-7.070312c-1.859375-1.859376-4.4375-2.929688-7.066406-2.929688-2.640625 0-5.210937 1.070312-7.082031 2.929688zm0 0"/><path d="m102.167969 217.25c0 5.523438 4.476562 10 10 10h68c5.523437 0 10-4.476562 10-10s-4.476563-10-10-10h-68c-5.523438 0-10 4.476562-10 10zm0 0"/><path d="m177 438h-29c-5.523438 0-10 4.476562-10 10s4.476562 10 10 10h29c5.523438 0 10-4.476562 10-10s-4.476562-10-10-10zm0 0"/><path d="m64 458h37c5.523438 0 10-4.476562 10-10s-4.476562-10-10-10h-37c-5.523438 0-10 4.476562-10 10s4.476562 10 10 10zm0 0"/><path d="m54 352c0 5.523438 4.476562 10 10 10h113c5.523438 0 10-4.476562 10-10s-4.476562-10-10-10h-113c-5.523438 0-10 4.476562-10 10zm0 0"/><path d="m177 390h-15.332031c-5.523438 0-10 4.476562-10 10s4.476562 10 10 10h15.332031c5.523438 0 10-4.476562 10-10s-4.476562-10-10-10zm0 0"/><path d="m64 410h52.667969c5.523437 0 10-4.476562 10-10s-4.476563-10-10-10h-52.667969c-5.523438 0-10 4.476562-10 10s4.476562 10 10 10zm0 0"/></svg>