<svg height="512pt" viewBox="-54 0 512 512" width="512pt" xmlns="http://www.w3.org/2000/svg"><path d="m326.332031 97.667969h67.667969l-87.667969-87.667969v67.667969c0 11.046875 8.953125 20 20 20zm0 0" fill="#ffd89e"/><path d="m58 58h120v160h-120zm0 0" fill="#ffcb7c"/><path d="m346 424c0 13.253906-10.746094 24-24 24s-24-10.746094-24-24 10.746094-24 24-24 24 10.746094 24 24zm0 0" fill="#d8ec84"/><path d="m346 311.996094c0 13.257812-10.746094 24-24 24s-24-10.742188-24-24c0-13.253906 10.746094-24 24-24s24 10.746094 24 24zm0 0" fill="#cff1fb"/><path d="m346 199.996094c0 13.253906-10.746094 24-24 24s-24-10.746094-24-24 10.746094-24 24-24 24 10.746094 24 24zm0 0" fill="#f6838d"/><path d="m401.070312 90.554688-87.625-87.625c-1.875-1.875-4.417968-2.929688-7.070312-2.929688h-276.375c-16.542969 0-30 13.457031-30 30v452c0 16.542969 13.457031 30 30 30h127c5.523438 0 10-4.476562 10-10s-4.476562-10-10-10h-127c-5.515625 0-10-4.484375-10-10v-452c0-5.515625 4.484375-10 10-10h266.332031v57.667969c0 16.542969 13.457031 30 30 30h57.667969v374.332031c0 5.515625-4.484375 10-10 10h-127c-5.523438 0-10 4.476562-10 10s4.476562 10 10 10h127c16.542969 0 30-13.457031 30-30v-384.375c0-2.652344-1.054688-5.195312-2.929688-7.070312zm-84.738281-12.886719v-43.566407l53.566407 53.566407h-43.566407c-5.511719 0-10-4.488281-10-10zm0 0"/><path d="m138 88h-40c-5.523438 0-10 4.476562-10 10s4.476562 10 10 10h40c5.523438 0 10-4.476562 10-10s-4.476562-10-10-10zm0 0"/><path d="m138 128h-40c-5.523438 0-10 4.476562-10 10s4.476562 10 10 10h40c5.523438 0 10-4.476562 10-10s-4.476562-10-10-10zm0 0"/><path d="m138 168h-40c-5.523438 0-10 4.476562-10 10s4.476562 10 10 10h40c5.523438 0 10-4.476562 10-10s-4.476562-10-10-10zm0 0"/><path d="m322 458c18.746094 0 34-15.253906 34-34s-15.253906-34-34-34c-15.269531 0-28.21875 10.117188-32.496094 24h-46.835937v-92.003906h46.835937c4.28125 13.886718 17.226563 24 32.496094 24 18.746094 0 34-15.25 34-34 0-18.746094-15.253906-34-34-34-15.269531 0-28.21875 10.117187-32.496094 24h-46.835937v-92h46.835937c4.28125 13.882812 17.226563 24 32.496094 24 18.746094 0 34-15.253906 34-34 0-18.75-15.253906-34-34-34-15.269531 0-28.21875 10.117187-32.496094 24h-46.835937v-51.996094c0-5.523438-4.476563-10-10-10h-44.667969v-70c0-5.523438-4.476562-10-10-10h-120c-5.523438 0-10 4.476562-10 10v160c0 5.523438 4.476562 10 10 10h120c5.523438 0 10-4.476562 10-10v-70h34.667969v276c0 5.523438 4.476562 10 10 10h56.835937c4.277344 13.882812 17.226563 24 32.496094 24zm0-160.003906c7.71875 0 14 6.28125 14 14 0 7.722656-6.28125 14-14 14s-14-6.277344-14-14c0-7.71875 6.28125-14 14-14zm0-112c7.71875 0 14 6.28125 14 14s-6.28125 14-14 14-14-6.28125-14-14 6.28125-14 14-14zm-154 22.003906h-100v-140h100zm154 202c7.71875 0 14 6.28125 14 14s-6.28125 14-14 14-14-6.28125-14-14 6.28125-14 14-14zm0 0"/><path d="m202 492c-2.628906 0-5.210938 1.070312-7.070312 2.929688-1.859376 1.859374-2.929688 4.441406-2.929688 7.070312s1.070312 5.210938 2.929688 7.070312c1.859374 1.859376 4.441406 2.929688 7.070312 2.929688s5.210938-1.070312 7.070312-2.929688c1.859376-1.859374 2.929688-4.441406 2.929688-7.070312s-1.070312-5.210938-2.929688-7.070312c-1.859374-1.859376-4.441406-2.929688-7.070312-2.929688zm0 0"/></svg>