<svg height="512pt" viewBox="0 0 512.001 512" width="512pt" xmlns="http://www.w3.org/2000/svg"><path d="m369.359375 249.980469h16.359375c38.828125 0 70.308594-31.460938 70.308594-70.265625 0-38.804688-31.480469-70.265625-70.308594-70.265625-1.375 0-2.738281.050781-4.09375.128906-11.714844-56.851563-62.050781-99.597656-122.371094-99.597656-53.863281 0-99.761718 34.078125-117.316406 81.851562-1.761719-.1875-3.546875-.292969-5.359375-.292969-27.824219 0-50.382813 22.542969-50.382813 50.351563 0 3.804687.4375 7.507813 1.238282 11.070313-18.445313 7.480468-31.457032 25.550781-31.457032 46.667968 0 27.804688 22.554688 50.347656 50.382813 50.347656h263zm0 0" fill="#b0e7f8"/><path d="m348 249.980469c0 50.808593-41.191406 92-92 92s-92-41.191407-92-92c0-50.8125 41.191406-92 92-92s92 41.1875 92 92zm0 0" fill="#fff"/><path d="m294.5 278.226562-15.21875-2.839843-46.617188.011719-15.160156 2.828124c-12.371094 2.308594-21.339844 13.101563-21.339844 25.6875v15.945313c16.085938 13.789063 36.988282 22.121094 59.835938 22.121094 22.851562 0 43.75-8.332031 59.839844-22.121094v-15.945313c-.003906-12.585937-8.972656-23.378906-21.339844-25.6875zm0 0" fill="#f5737f"/><path d="m256 214.695312c-16.523438 0-29.917969 13.394532-29.917969 29.921876v11.964843c0 16.527344 13.394531 29.921875 29.917969 29.921875s29.917969-13.394531 29.917969-29.921875v-11.964843c0-16.527344-13.394531-29.921876-29.917969-29.921876zm0 0" fill="#ffcbbe"/><path d="m170.027344 421.964844c0 44.191406-35.824219 80.015625-80.011719 80.015625-44.191406 0-80.015625-35.824219-80.015625-80.015625s35.824219-80.011719 80.015625-80.011719c44.1875 0 80.011719 35.820313 80.011719 80.011719zm0 0" fill="#b0e7f8"/><path d="m123.496094 446.53125-13.234375-2.46875-40.542969.011719-13.1875 2.457031c-10.757812 2.007812-18.558594 11.394531-18.558594 22.339844v13.867187c13.992188 11.992188 32.167969 19.242188 52.042969 19.242188 19.871094 0 38.046875-7.25 52.039063-19.242188v-13.867187c0-10.941406-7.800782-20.332032-18.558594-22.339844zm0 0" fill="#d8ec84"/><path d="m90.015625 391.28125c-14.371094 0-26.023437 11.648438-26.023437 26.019531v10.40625c0 14.371094 11.652343 26.023438 26.023437 26.023438s26.019531-11.652344 26.019531-26.023438v-10.40625c0-14.371093-11.648437-26.019531-26.019531-26.019531zm0 0" fill="#ffcbbe"/><path d="m502 421.964844c0 44.191406-35.824219 80.015625-80.015625 80.015625-44.1875 0-80.011719-35.824219-80.011719-80.015625s35.824219-80.011719 80.011719-80.011719c44.191406 0 80.015625 35.820313 80.015625 80.011719zm0 0" fill="#b0e7f8"/><path d="m455.46875 446.53125-13.238281-2.46875-40.542969.011719-13.183594 2.457031c-10.761718 2.007812-18.558594 11.394531-18.558594 22.339844v13.867187c13.988282 11.992188 32.167969 19.242188 52.039063 19.242188 19.875 0 38.050781-7.25 52.042969-19.242188v-13.867187c0-10.941406-7.800782-20.332032-18.558594-22.339844zm0 0" fill="#ffcb7c"/><path d="m421.984375 391.28125c-14.371094 0-26.019531 11.648438-26.019531 26.019531v10.40625c0 14.371094 11.648437 26.023438 26.019531 26.023438s26.023437-11.652344 26.023437-26.023438v-10.40625c0-14.371093-11.652343-26.019531-26.023437-26.019531zm0 0" fill="#ffcbbe"/><path d="m421.984375 331.953125c-46.253906 0-84.464844 35.070313-89.453125 80.011719h-42.53125v-65.820313c36.5625-12.964843 63.605469-46.222656 67.507812-86.164062h28.207032c44.285156 0 80.308594-36.007813 80.308594-80.265625 0-42.988282-33.988282-78.191406-76.519532-80.175782-5.222656-19.230468-14.738281-37.222656-27.789062-52.4375-14.71875-17.152343-33.617188-30.433593-54.652344-38.40625-5.164062-1.953124-10.9375.644532-12.894531 5.808594-1.957031 5.164063.640625 10.9375 5.808593 12.894532 36.46875 13.820312 64 46.085937 71.855469 84.199218 1 4.859375 5.402344 8.257813 10.367188 7.96875 1.351562-.078125 2.46875-.113281 3.515625-.113281 33.253906 0 60.308594 27.035156 60.308594 60.261719 0 33.230468-27.054688 60.265625-60.308594 60.265625h-28.207032c-5.039062-51.566407-48.640624-92-101.507812-92s-96.46875 40.433593-101.507812 92h-48.132813c-22.269531 0-40.382813-18.101563-40.382813-40.351563 0-16.507812 9.894532-31.1875 25.214844-37.398437 4.53125-1.835938 7.070313-6.683594 6-11.457031-.660156-2.9375-.996094-5.925782-.996094-8.882813 0-22.25 18.117188-40.351563 40.382813-40.351563 1.375 0 2.820313.082032 4.304687.238282 4.558594.480468 8.859376-2.195313 10.441407-6.496094 11.503906-31.316406 36-56.058594 67.203125-67.878906 5.164062-1.957032 7.765625-7.730469 5.808594-12.898438-1.957032-5.164062-7.730469-7.761718-12.894532-5.804687-34.328125 13.007812-61.742187 39.335937-76.167968 72.855469-32.695313.695312-59.078126 27.496093-59.078126 60.335937 0 1.769531.078126 3.539063.238282 5.3125-18.730469 10.636719-30.457032 30.445313-30.457032 52.425781 0 33.277344 27.085938 60.351563 60.382813 60.351563h48.132813c3.902343 39.945312 30.945312 73.199219 67.507812 86.167969v65.820312h-42.53125c-4.992188-44.945312-43.203125-80.015625-89.457031-80.015625-49.632813 0-90.011719 40.378906-90.011719 90.011719 0 49.636718 40.378906 90.015625 90.015625 90.015625 46.253906 0 84.464844-35.070313 89.453125-80.015625h52.53125c5.523438 0 10-4.476563 10-10v-70.949219c4.578125.632813 9.25.964844 14 .964844s9.421875-.332031 14-.964844v70.949219c0 5.523437 4.476562 10 10 10h52.53125c4.992188 44.945312 43.203125 80.015625 89.457031 80.015625 49.632813 0 90.011719-40.378907 90.011719-90.015625 0-49.632813-40.378906-90.011719-90.015625-90.011719zm-374.011719 145.960937v-9.042968c0-6.125 4.371094-11.382813 10.390625-12.507813l8.027344-1.496093c6.328125 5.511718 14.589844 8.863281 23.625 8.863281 9.03125 0 17.292969-3.351563 23.621094-8.863281l8.027343 1.496093c6.019532 1.125 10.390626 6.382813 10.390626 12.507813v9.042968c-11.714844 8.824219-26.277344 14.066407-42.039063 14.066407-15.765625 0-30.328125-5.242188-42.042969-14.066407zm58.0625-50.207031c0 8.835938-7.1875 16.023438-16.019531 16.023438-8.835937 0-16.023437-7.1875-16.023437-16.023438v-10.40625c0-8.835937 7.1875-16.019531 16.023437-16.019531 8.832031 0 16.019531 7.183594 16.019531 16.019531zm44.09375 30.101563c-3.84375-10.683594-13.109375-18.925782-24.796875-21.105469l-.417969-.078125c.730469-2.851562 1.121094-5.839844 1.121094-8.917969v-10.40625c0-19.859375-16.160156-36.019531-36.019531-36.019531-19.863281 0-36.023437 16.15625-36.023437 36.019531v10.40625c0 3.078125.390624 6.066407 1.121093 8.917969l-.417969.078125c-11.6875 2.179687-20.953124 10.421875-24.792968 21.105469-6.28125-10.492188-9.902344-22.75-9.902344-35.84375 0-38.601563 31.40625-70.011719 70.015625-70.011719 38.605469 0 70.011719 31.40625 70.011719 70.011719 0 13.09375-3.621094 25.351562-9.898438 35.84375zm23.871094-207.828125c0-45.214844 36.785156-82 82-82s82 36.785156 82 82c0 16.507812-4.921875 31.882812-13.347656 44.761719-3.480469-13.253907-14.328125-23.738282-28.320313-26.34375l-2.085937-.390626c1.082031-3.625 1.671875-7.457031 1.671875-11.425781v-11.96875c0-22.011719-17.90625-39.917969-39.917969-39.917969s-39.917969 17.90625-39.917969 39.917969v11.96875c0 3.96875.589844 7.804688 1.675781 11.425781l-2.089843.390626c-13.992188 2.605468-24.839844 13.089843-28.320313 26.34375-8.425781-12.878907-13.347656-28.253907-13.347656-44.761719zm62.082031 6.601562v-11.96875c0-10.980469 8.9375-19.917969 19.917969-19.917969s19.917969 8.9375 19.917969 19.917969v11.96875c0 10.984375-8.9375 19.917969-19.917969 19.917969s-19.917969-8.933594-19.917969-19.917969zm-29.917969 58.453125v-11.121094c0-7.765624 5.539063-14.433593 13.171876-15.855468l9.9375-1.855469c7.082031 6.394531 16.457031 10.296875 26.726562 10.296875 10.273438 0 19.648438-3.902344 26.730469-10.296875l9.9375 1.855469c7.632812 1.421875 13.171875 8.089844 13.171875 15.855468v11.121094c-13.824219 10.613282-31.101563 16.945313-49.839844 16.945313-18.734375 0-36.015625-6.332031-49.835938-16.945313zm173.78125 162.878906v-9.042968c0-6.125 4.371094-11.382813 10.390626-12.507813l8.027343-1.496093c6.328125 5.511718 14.589844 8.863281 23.621094 8.863281 9.035156 0 17.296875-3.351563 23.625-8.863281l8.027344 1.496093c6.019531 1.125 10.390625 6.382813 10.390625 12.507813v9.042968c-11.714844 8.824219-26.277344 14.066407-42.042969 14.066407-15.761719 0-30.324219-5.242188-42.039063-14.066407zm58.0625-50.207031c0 8.835938-7.1875 16.023438-16.023437 16.023438-8.832031 0-16.019531-7.1875-16.019531-16.023438v-10.40625c0-8.835937 7.1875-16.019531 16.019531-16.019531 8.835937 0 16.023437 7.183594 16.023437 16.019531zm44.089844 30.101563c-3.839844-10.683594-13.109375-18.925782-24.792968-21.105469l-.417969-.078125c.730469-2.851562 1.121093-5.839844 1.121093-8.917969v-10.40625c0-19.859375-16.160156-36.019531-36.023437-36.019531-19.859375 0-36.019531 16.15625-36.019531 36.019531v10.40625c0 3.078125.390625 6.066407 1.121094 8.917969l-.417969.078125c-11.6875 2.179687-20.949219 10.421875-24.796875 21.105469-6.277344-10.492188-9.898438-22.75-9.898438-35.84375 0-38.605469 31.40625-70.011719 70.011719-70.011719s70.015625 31.40625 70.015625 70.011719c0 13.09375-3.621094 25.351562-9.902344 35.84375zm0 0"/><path d="m259.253906 20.023438c5.519532 0 10-4.476563 10-10v-.042969c0-5.523438-4.480468-9.980469-10-9.980469-5.523437 0-10 4.5-10 10.023438 0 5.519531 4.476563 10 10 10zm0 0"/></svg>