<svg height="512pt" viewBox="-46 0 512 512" width="512pt" xmlns="http://www.w3.org/2000/svg"><path d="m354.042969 446.054688h35.941406c11.046875 0 20.003906-8.957032 20.003906-20.003907v-396.046875c0-11.046875-8.957031-20.003906-20.003906-20.003906h-304.035156c-11.046875 0-20.003907 8.957031-20.003907 20.003906v33.941406zm0 0" fill="#ffcb7c"/><path d="m334.039062 65.945312h-304.035156c-11.046875 0-20.003906 8.957032-20.003906 20.003907v338.632812l77.417969 77.417969h246.621093c11.046876 0 20.003907-8.957031 20.003907-20.003906v-396.046875c0-11.046875-8.957031-20.003907-20.003907-20.003907zm0 0" fill="#fff"/><path d="m87.417969 502v-53.351562c0-13.292969-10.773438-24.066407-24.066407-24.066407h-53.351562zm0 0" fill="#ffe6c0"/><path d="m203.105469 292.460938c0 12.152343-9.851563 22.003906-22.003907 22.003906-12.152343 0-22.003906-9.851563-22.003906-22.003906 0-12.152344 9.851563-22.003907 22.003906-22.003907 12.152344 0 22.003907 9.851563 22.003907 22.003907zm0 0" fill="#f6838d"/><path d="m254.519531 170.664062c0 12.152344-9.851562 22.003907-22.003906 22.003907s-22.003906-9.851563-22.003906-22.003907c0-12.152343 9.851562-22.003906 22.003906-22.003906s22.003906 9.851563 22.003906 22.003906zm0 0" fill="#ffd89e"/><path d="m113.761719 170.664062c0 12.152344-9.851563 22.003907-22 22.003907-12.152344 0-22.003907-9.851563-22.003907-22.003907 0-12.152343 9.851563-22.003906 22.003907-22.003906 12.148437 0 22 9.851563 22 22.003906zm0 0" fill="#cbe558"/><path d="m89.957031 319.125c0 12.148438-9.851562 22-22 22-12.152343 0-22.003906-9.851562-22.003906-22 0-12.152344 9.851563-22.003906 22.003906-22.003906 12.148438 0 22 9.851562 22 22.003906zm0 0" fill="#b0e7f8"/><path d="m317.667969 319.125c0 12.148438-9.851563 22-22.003907 22-12.152343 0-22.003906-9.851562-22.003906-22 0-12.152344 9.851563-22.003906 22.003906-22.003906 12.152344 0 22.003907 9.851562 22.003907 22.003906zm0 0" fill="#b0e7f8"/><path d="m203.105469 389.277344c0 12.152344-9.851563 22.003906-22.003907 22.003906-12.152343 0-22.003906-9.851562-22.003906-22.003906 0-12.148438 9.851563-22 22.003906-22 12.152344 0 22.003907 9.851562 22.003907 22zm0 0" fill="#ffd89e"/><path d="m409.988281 263.03125c-5.523437 0-10 4.480469-10 10v153.019531c0 5.515625-4.488281 10.003907-10.003906 10.003907h-25.941406v-350.105469c0-16.542969-13.457031-30.003907-30.003907-30.003907h-258.09375v-25.941406c0-5.515625 4.488282-10 10.003907-10h304.035156c5.515625 0 10.003906 4.484375 10.003906 10v153.019532c0 5.523437 4.476563 10 10 10 5.523438 0 10-4.476563 10-10v-153.019532c0-16.542968-13.460937-30.003906-30.003906-30.003906h-304.035156c-16.542969 0-30.003907 13.460938-30.003907 30.003906v25.941406h-25.941406c-16.542968 0-30.003906 13.460938-30.003906 30.003907v338.632812c0 2.652344 1.054688 5.195313 2.929688 7.070313l77.417968 77.417968c1.875 1.875 4.417969 2.929688 7.070313 2.929688h246.621093c16.546876 0 30.003907-13.460938 30.003907-30.003906v-25.941406h25.941406c16.542969 0 30.003906-13.460938 30.003906-30.003907v-153.019531c0-5.519531-4.476562-10-10-10zm-332.570312 214.820312-43.273438-43.269531h29.207031c7.757813 0 14.066407 6.308594 14.066407 14.066407zm266.625 4.144532c0 5.515625-4.488281 10-10.003907 10h-236.617187v-43.347656c0-18.785157-15.285156-34.070313-34.070313-34.070313h-43.347656v-328.628906c0-5.515625 4.484375-10.003907 10-10.003907h304.035156c5.515626 0 10.003907 4.488282 10.003907 10.003907zm0 0"/><path d="m295.664062 287.121094c-.910156 0-1.804687.046875-2.695312.121094l-39.359375-92.539063c6.679687-5.871094 10.910156-14.464844 10.910156-24.039063 0-17.648437-14.359375-32.003906-32.003906-32.003906-14.15625 0-26.1875 9.242188-30.394531 22.003906h-79.964844c-4.210938-12.761718-16.242188-22.003906-30.394531-22.003906-17.648438 0-32.003907 14.355469-32.003907 32.003906 0 12.355469 7.039063 23.089844 17.316407 28.421876l-14.179688 88.4375c-15.25 2.433593-26.941406 15.675781-26.941406 31.601562 0 17.644531 14.355469 32.003906 32.003906 32.003906 7.816407 0 14.984375-2.824218 20.546875-7.496094l61.496094 38.128907c-.585938 2.410156-.902344 4.929687-.902344 7.515625 0 17.648437 14.355469 32.003906 32.003906 32.003906 17.648438 0 32.003907-14.355469 32.003907-32.003906 0-2.527344-.300781-4.980469-.859375-7.339844l62.734375-38.417969c5.582031 4.738281 12.804687 7.609375 20.683593 7.609375 17.648438 0 32.003907-14.355468 32.003907-32.003906s-14.359375-32.003906-32.003907-32.003906zm-104.5625 71.761718v-36.027343c7.277344-2.398438 13.40625-7.335938 17.332032-13.765625l55.359375 12.886718c.136719 1.53125.382812 3.027344.726562 4.492188l-62.734375 38.417969c-3.109375-2.640625-6.726562-4.695313-10.683594-6.003907zm-89.425781-157.792968 53.394531 72.789062c-3.234374 4.515625-5.320312 9.898438-5.839843 15.730469l-54.125 12.597656c-3.039063-4.863281-7.351563-8.851562-12.460938-11.503906l14.179688-88.4375c1.660156-.265625 3.28125-.664063 4.851562-1.175781zm109.8125-6.328125-27.78125 65.8125c-.859375-.070313-1.726562-.117188-2.605469-.117188-3.460937 0-6.789062.558594-9.914062 1.578125l-53.394531-72.789062c1.863281-2.597656 3.34375-5.484375 4.363281-8.582032h79.964844c1.816406 5.511719 5.089844 10.359376 9.367187 14.097657zm-30.386719 109.699219c-6.617187 0-12.003906-5.382813-12.003906-12 0-6.617188 5.386719-12 12.003906-12 6.617188 0 12 5.382812 12 12 0 6.617187-5.382812 12-12 12zm-81.25 17.179687 53.914063-12.550781c3.925781 6.429687 10.058594 11.367187 17.335937 13.765625v36.027343c-3.902343 1.285157-7.472656 3.300782-10.550781 5.886719l-61.492187-38.128906c.390625-1.621094.660156-3.292969.792968-5zm174.71875-26.554687c-2.433593 2.136718-4.542968 4.632812-6.242187 7.40625l-55.355469-12.882813c-.753906-8.449219-4.796875-15.960937-10.84375-21.246094l27.78125-65.8125c.859375.070313 1.726563.117188 2.605469.117188.90625 0 1.804687-.046875 2.691406-.121094zm-42.054687-136.421876c6.617187 0 12 5.382813 12 12 0 6.617188-5.382813 12.003907-12 12.003907-6.621094 0-12.003906-5.386719-12.003906-12.003907 0-6.617187 5.382812-12 12.003906-12zm-140.753906 0c6.617187 0 12 5.382813 12 12 0 6.617188-5.382813 12.003907-12 12.003907-6.621094 0-12.003907-5.386719-12.003907-12.003907 0-6.617187 5.382813-12 12.003907-12zm-23.804688 172.460938c-6.621093 0-12.003906-5.382812-12.003906-12 0-6.621094 5.382813-12.003906 12.003906-12.003906 6.617188 0 12 5.382812 12 12.003906 0 6.617188-5.382812 12-12 12zm113.144531 70.15625c-6.617187 0-12.003906-5.386719-12.003906-12.003906 0-6.617188 5.386719-12 12.003906-12 6.617188 0 12 5.382812 12 12 0 6.617187-5.382812 12.003906-12 12.003906zm114.5625-70.15625c-6.617187 0-12-5.382812-12-12 0-6.621094 5.382813-12.003906 12-12.003906 6.617188 0 12 5.382812 12 12.003906 0 6.617188-5.382812 12-12 12zm0 0"/><path d="m409.988281 218.027344c-2.640625 0-5.210937 1.066406-7.070312 2.929687-1.871094 1.859375-2.929688 4.4375-2.929688 7.070313 0 2.628906 1.058594 5.210937 2.929688 7.070312 1.859375 1.859375 4.429687 2.929688 7.070312 2.929688 2.628907 0 5.210938-1.070313 7.070313-2.929688s2.929687-4.429687 2.929687-7.070312c0-2.632813-1.066406-5.210938-2.929687-7.070313-1.859375-1.863281-4.441406-2.929687-7.070313-2.929687zm0 0"/></svg>