<svg height="512pt" viewBox="0 0 512 511" width="512pt" xmlns="http://www.w3.org/2000/svg"><path d="m395.414062 305.652344h20.117188c47.753906 0 86.46875-38.6875 86.46875-86.414063 0-47.726562-38.714844-86.414062-86.46875-86.414062-1.691406 0-3.367188.0625-5.03125.160156-14.40625-69.921875-76.3125-122.496094-150.5-122.496094-66.238281 0-122.6875 41.914063-144.277344 100.664063-2.167968-.226563-4.363281-.359375-6.589844-.359375-34.222656 0-61.964843 27.726562-61.964843 61.925781 0 4.679688.535156 9.234375 1.523437 13.617188-22.6875 9.199218-38.691406 31.421874-38.691406 57.390624 0 34.203126 27.742188 61.925782 61.964844 61.925782zm0 0" fill="#b0e7f8"/><path d="m160 246.488281h192v40h-192zm0 0" fill="#8690a6"/><path d="m160 374.488281h192v40h-192zm0 0" fill="#8690a6"/><path d="m360 374.488281h-208c-11.046875 0-20-8.953125-20-20v-48c0-11.046875 8.953125-20 20-20h208c11.046875 0 20 8.953125 20 20v48c0 11.046875-8.953125 20-20 20zm0 0" fill="#e1e3e9"/><path d="m360 502.488281h-208c-11.046875 0-20-8.953125-20-20v-48c0-11.046875 8.953125-20 20-20h208c11.046875 0 20 8.953125 20 20v48c0 11.046875-8.953125 20-20 20zm0 0" fill="#b5bcc9"/><path d="m360 158.488281h-208c-11.046875 0-20 8.953125-20 20v48c0 11.046875 8.953125 20 20 20h208c11.046875 0 20-8.953125 20-20v-48c0-11.042969-8.953125-20-20-20zm0 0" fill="#b5bcc9"/><path d="m418.410156 122.863281c-14.269531-55.015625-56.144531-98.816406-110.992187-115.394531-5.285157-1.597656-10.867188 1.390625-12.464844 6.675781-1.597656 5.289063 1.394531 10.871094 6.679687 12.464844 50.476563 15.257813 88.441407 56.792969 99.074219 108.390625 1 4.859375 5.414063 8.253906 10.367188 7.964844 1.675781-.097656 3.136719-.144532 4.457031-.144532 42.164062 0 76.46875 34.28125 76.46875 76.417969 0 42.132813-34.304688 76.414063-76.46875 76.414063h-27.566406c-4.125-10.609375-14.113282-18.304688-25.964844-19.089844v-20.148438c15.613281-1.03125 28-14.054687 28-29.925781v-48c0-16.542969-13.457031-30-30-30h-208c-16.542969 0-30 13.457031-30 30v48c0 15.871094 12.386719 28.894531 28 29.925781v20.148438c-11.851562.785156-21.839844 8.480469-25.964844 19.089844h-52.070312c-28.652344 0-51.964844-23.292969-51.964844-51.925782 0-21.242187 12.734375-40.128906 32.445312-48.121093 4.53125-1.839844 7.070313-6.6875 6-11.460938-.847656-3.777343-1.277343-7.621093-1.277343-11.425781 0-28.628906 23.308593-51.921875 51.964843-51.921875 1.789063 0 3.601563.097656 5.539063.300781 4.550781.480469 8.855469-2.195312 10.4375-6.496094 15.476563-42.125 50.34375-75.019531 93.261719-87.992187 5.285156-1.597656 8.273437-7.175781 6.679687-12.464844-1.601562-5.285156-7.179687-8.277343-12.46875-6.675781-46.523437 14.058594-84.738281 48.664062-103.527343 93.328125-39.644532.039063-71.886719 32.289063-71.886719 71.921875 0 2.597656.144531 5.207031.429687 7.808594-23.078125 12.488281-37.597656 36.5-37.597656 63.199218 0 39.660157 32.28125 71.925782 71.964844 71.925782h50.035156v38.835937c0 15.871094 12.386719 28.894531 28 29.925781v20.148438c-15.613281 1.035156-28 14.058594-28 29.925781v48c0 16.542969 13.457031 30 30 30h208c16.542969 0 30-13.457031 30-30v-48c0-15.867187-12.386719-28.890625-28-29.925781v-20.148438c15.613281-1.03125 28-14.054687 28-29.925781v-38.835937h25.53125c53.191406 0 96.46875-43.253906 96.46875-96.414063 0-52.199219-41.726562-94.84375-93.589844-96.375zm-248.410156 133.625h172v20h-172zm-28-30v-48c0-5.511719 4.484375-10 10-10h208c5.515625 0 10 4.488281 10 10v48c0 5.515625-4.484375 10-10 10h-208c-5.515625 0-10-4.484375-10-10zm200 178h-172v-20h172zm28 30v48c0 5.515625-4.484375 10-10 10h-208c-5.515625 0-10-4.484375-10-10v-48c0-5.511719 4.484375-10 10-10h208c5.515625 0 10 4.488281 10 10zm0-80c0 5.515625-4.484375 10-10 10h-208c-5.515625 0-10-4.484375-10-10v-48c0-5.511719 4.484375-10 10-10h208c5.515625 0 10 4.488281 10 10zm0 0"/><path d="m173.671875 320.488281c-2.644531 0-5.210937 1.070313-7.070313 2.929688-1.871093 1.859375-2.929687 4.441406-2.929687 7.070312 0 2.628907 1.058594 5.210938 2.929687 7.070313 1.859376 1.859375 4.429688 2.929687 7.070313 2.929687 2.628906 0 5.207031-1.070312 7.066406-2.929687s2.933594-4.441406 2.933594-7.070313c0-2.628906-1.070313-5.210937-2.933594-7.070312-1.859375-1.859375-4.4375-2.929688-7.066406-2.929688zm0 0"/><path d="m213.671875 320.488281c-2.632813 0-5.210937 1.070313-7.070313 2.929688-1.871093 1.859375-2.929687 4.441406-2.929687 7.070312 0 2.628907 1.058594 5.210938 2.929687 7.070313 1.859376 1.859375 4.4375 2.929687 7.070313 2.929687 2.628906 0 5.207031-1.070312 7.066406-2.929687s2.933594-4.441406 2.933594-7.070313c0-2.628906-1.070313-5.210937-2.933594-7.070312-1.859375-1.859375-4.4375-2.929688-7.066406-2.929688zm0 0"/><path d="m336.332031 320.488281h-66.664062c-5.523438 0-10 4.480469-10 10 0 5.523438 4.476562 10 10 10h66.664062c5.523438 0 10-4.476562 10-10 0-5.519531-4.476562-10-10-10zm0 0"/><path d="m173.671875 448.488281c-2.644531 0-5.210937 1.070313-7.070313 2.929688-1.871093 1.859375-2.929687 4.441406-2.929687 7.070312 0 2.628907 1.058594 5.210938 2.929687 7.070313 1.859376 1.859375 4.429688 2.929687 7.070313 2.929687 2.628906 0 5.199219-1.070312 7.066406-2.929687 1.859375-1.859375 2.933594-4.441406 2.933594-7.070313 0-2.628906-1.070313-5.210937-2.933594-7.070312-1.867187-1.859375-4.4375-2.929688-7.066406-2.929688zm0 0"/><path d="m213.671875 448.488281c-2.632813 0-5.210937 1.070313-7.070313 2.929688-1.871093 1.859375-2.929687 4.441406-2.929687 7.070312 0 2.628907 1.058594 5.210938 2.929687 7.070313 1.859376 1.859375 4.4375 2.929687 7.070313 2.929687 2.628906 0 5.207031-1.070312 7.066406-2.929687s2.933594-4.441406 2.933594-7.070313c0-2.628906-1.070313-5.210937-2.933594-7.070312-1.859375-1.859375-4.4375-2.929688-7.066406-2.929688zm0 0"/><path d="m336.332031 448.488281h-66.664062c-5.523438 0-10 4.480469-10 10 0 5.523438 4.476562 10 10 10h66.664062c5.523438 0 10-4.476562 10-10 0-5.519531-4.476562-10-10-10zm0 0"/><path d="m173.671875 212.488281c2.628906 0 5.207031-1.070312 7.066406-2.929687s2.933594-4.441406 2.933594-7.070313c0-2.628906-1.070313-5.210937-2.933594-7.070312-1.859375-1.859375-4.4375-2.929688-7.066406-2.929688-2.644531 0-5.210937 1.070313-7.070313 2.929688-1.871093 1.859375-2.929687 4.441406-2.929687 7.070312 0 2.628907 1.058594 5.210938 2.929687 7.070313 1.859376 1.859375 4.425782 2.929687 7.070313 2.929687zm0 0"/><path d="m213.671875 212.488281c2.628906 0 5.207031-1.070312 7.066406-2.929687s2.933594-4.441406 2.933594-7.070313c0-2.628906-1.070313-5.210937-2.933594-7.070312-1.859375-1.859375-4.4375-2.929688-7.066406-2.929688-2.644531 0-5.210937 1.070313-7.070313 2.929688-1.871093 1.859375-2.929687 4.441406-2.929687 7.070312 0 2.628907 1.058594 5.210938 2.929687 7.070313 1.859376 1.859375 4.4375 2.929687 7.070313 2.929687zm0 0"/><path d="m269.667969 212.488281h66.664062c5.523438 0 10-4.476562 10-10 0-5.523437-4.476562-10-10-10h-66.664062c-5.523438 0-10 4.476563-10 10 0 5.523438 4.476562 10 10 10zm0 0"/><path d="m428 404.488281c-5.523438 0-10 4.480469-10 10v44c0 5.523438 4.476562 10 10 10s10-4.476562 10-10v-44c0-5.519531-4.476562-10-10-10zm0 0"/><path d="m428 335.652344c-5.523438 0-10 4.476562-10 10v28.835937c0 5.523438 4.476562 10 10 10s10-4.476562 10-10v-28.835937c0-5.523438-4.476562-10-10-10zm0 0"/><path d="m468 448.488281c-5.523438 0-10 4.480469-10 10v44c0 5.523438 4.476562 10 10 10s10-4.476562 10-10v-44c0-5.519531-4.476562-10-10-10zm0 0"/><path d="m468 379.652344c-5.523438 0-10 4.476562-10 10v28.835937c0 5.523438 4.476562 10 10 10s10-4.476562 10-10v-28.835937c0-5.523438-4.476562-10-10-10zm0 0"/><path d="m44 448.488281c-5.523438 0-10 4.480469-10 10v44c0 5.523438 4.476562 10 10 10s10-4.476562 10-10v-44c0-5.519531-4.476562-10-10-10zm0 0"/><path d="m44 379.652344c-5.523438 0-10 4.476562-10 10v28.835937c0 5.523438 4.476562 10 10 10s10-4.476562 10-10v-28.835937c0-5.523438-4.476562-10-10-10zm0 0"/><path d="m82.996094 404.488281c-5.523438 0-10 4.480469-10 10v44c0 5.523438 4.476562 10 10 10 5.519531 0 10-4.476562 10-10v-44c0-5.519531-4.476563-10-10-10zm0 0"/><path d="m82.996094 335.652344c-5.523438 0-10 4.476562-10 10v28.835937c0 5.523438 4.476562 10 10 10 5.519531 0 10-4.476562 10-10v-28.835937c0-5.523438-4.476563-10-10-10zm0 0"/><path d="m260 20.511719c5.523438 0 10-4.476563 10-10v-.023438c0-5.523437-4.476562-9.988281-10-9.988281s-10 4.488281-10 10.011719c0 5.523437 4.476562 10 10 10zm0 0"/></svg>