<svg height="512pt" viewBox="0 -26 512 512" width="512pt" xmlns="http://www.w3.org/2000/svg"><path d="m38 146h192v40h-192zm0 0" fill="#8690a6"/><path d="m38 274h192v40h-192zm0 0" fill="#8690a6"/><path d="m238 274h-208c-11.046875 0-20-8.953125-20-20v-48c0-11.046875 8.953125-20 20-20h208c11.046875 0 20 8.953125 20 20v48c0 11.046875-8.953125 20-20 20zm0 0" fill="#e1e3e9"/><path d="m238 402h-208c-11.046875 0-20-8.953125-20-20v-48c0-11.046875 8.953125-20 20-20h208c11.046875 0 20 8.953125 20 20v48c0 11.046875-8.953125 20-20 20zm0 0" fill="#b5bcc9"/><path d="m238 58h-208c-11.046875 0-20 8.953125-20 20v48c0 11.046875 8.953125 20 20 20h208c11.046875 0 20-8.953125 20-20v-48c0-11.046875-8.953125-20-20-20zm0 0" fill="#b5bcc9"/><path d="m448 230c0 15.464844-12.535156 28-28 28s-28-12.535156-28-28 12.535156-28 28-28 28 12.535156 28 28zm0 0" fill="#f5737f"/><path d="m502 38c0 15.464844-12.535156 28-28 28s-28-12.535156-28-28 12.535156-28 28-28 28 12.535156 28 28zm0 0" fill="#d8ec84"/><path d="m502 422c0 15.464844-12.535156 28-28 28s-28-12.535156-28-28 12.535156-28 28-28 28 12.535156 28 28zm0 0" fill="#ffcb7c"/><path d="m51.671875 240c2.628906 0 5.207031-1.070312 7.066406-2.929688 1.863281-1.859374 2.933594-4.441406 2.933594-7.070312s-1.070313-5.210938-2.933594-7.070312c-1.859375-1.859376-4.4375-2.929688-7.066406-2.929688-2.640625 0-5.210937 1.070312-7.070313 2.929688-1.871093 1.859374-2.929687 4.441406-2.929687 7.070312s1.058594 5.210938 2.929687 7.070312c1.859376 1.859376 4.4375 2.929688 7.070313 2.929688zm0 0"/><path d="m91.671875 240c2.628906 0 5.207031-1.070312 7.066406-2.929688 1.863281-1.859374 2.933594-4.441406 2.933594-7.070312s-1.070313-5.210938-2.933594-7.070312c-1.859375-1.859376-4.4375-2.929688-7.066406-2.929688-2.640625 0-5.210937 1.070312-7.070313 2.929688-1.871093 1.859374-2.929687 4.441406-2.929687 7.070312s1.058594 5.210938 2.929687 7.070312c1.859376 1.859376 4.4375 2.929688 7.070313 2.929688zm0 0"/><path d="m147.667969 240h66.667969c5.519531 0 10-4.476562 10-10s-4.480469-10-10-10h-66.667969c-5.523438 0-10 4.476562-10 10s4.476562 10 10 10zm0 0"/><path d="m51.671875 348c-2.640625 0-5.210937 1.070312-7.070313 2.929688-1.871093 1.859374-2.929687 4.441406-2.929687 7.070312s1.058594 5.210938 2.929687 7.070312c1.859376 1.859376 4.429688 2.929688 7.070313 2.929688 2.628906 0 5.207031-1.070312 7.066406-2.929688 1.863281-1.859374 2.933594-4.441406 2.933594-7.070312s-1.070313-5.210938-2.933594-7.070312c-1.859375-1.859376-4.4375-2.929688-7.066406-2.929688zm0 0"/><path d="m91.671875 348c-2.640625 0-5.210937 1.070312-7.082031 2.929688-1.859375 1.859374-2.917969 4.441406-2.917969 7.070312s1.058594 5.210938 2.917969 7.070312c1.871094 1.859376 4.441406 2.929688 7.082031 2.929688 2.628906 0 5.207031-1.070312 7.066406-2.929688 1.863281-1.859374 2.933594-4.441406 2.933594-7.070312s-1.070313-5.210938-2.933594-7.070312c-1.859375-1.859376-4.4375-2.929688-7.066406-2.929688zm0 0"/><path d="m214.332031 348h-66.667969c-5.519531 0-10 4.476562-10 10s4.480469 10 10 10h66.667969c5.523438 0 10-4.476562 10-10s-4.476562-10-10-10zm0 0"/><path d="m51.671875 112c2.628906 0 5.207031-1.070312 7.066406-2.929688 1.863281-1.859374 2.933594-4.441406 2.933594-7.070312s-1.070313-5.210938-2.933594-7.070312c-1.859375-1.859376-4.4375-2.929688-7.066406-2.929688-2.640625 0-5.210937 1.070312-7.070313 2.929688-1.871093 1.859374-2.929687 4.441406-2.929687 7.070312s1.058594 5.210938 2.929687 7.070312c1.859376 1.859376 4.429688 2.929688 7.070313 2.929688zm0 0"/><path d="m91.671875 112c2.628906 0 5.207031-1.070312 7.066406-2.929688 1.863281-1.859374 2.933594-4.441406 2.933594-7.070312s-1.070313-5.210938-2.933594-7.070312c-1.859375-1.859376-4.4375-2.929688-7.066406-2.929688-2.632813 0-5.210937 1.070312-7.070313 2.929688-1.871093 1.859374-2.929687 4.441406-2.929687 7.070312s1.058594 5.210938 2.929687 7.070312c1.859376 1.859376 4.429688 2.929688 7.070313 2.929688zm0 0"/><path d="m147.667969 112h66.667969c5.519531 0 10-4.476562 10-10s-4.480469-10-10-10h-66.667969c-5.523438 0-10 4.476562-10 10s4.476562 10 10 10zm0 0"/><path d="m474 76c20.953125 0 38-17.046875 38-38s-17.046875-38-38-38-38 17.046875-38 38 17.046875 38 38 38zm0-56c9.925781 0 18 8.074219 18 18s-8.074219 18-18 18-18-8.074219-18-18 8.074219-18 18-18zm0 0"/><path d="m474 384c-17.492188 0-32.253906 11.882812-36.65625 28h-95.003906l-39.695313-59.308594c-1.855469-2.773437-4.972656-4.4375-8.3125-4.4375h-26.332031v-14.253906c0-15.867188-12.386719-28.890625-28-29.925781v-20.148438c15.613281-1.035156 28-14.058593 28-29.925781v-13.753906l115.386719-.105469c4.449219 16.042969 19.171875 27.859375 36.613281 27.859375 20.953125 0 38-17.046875 38-38s-17.046875-38-38-38c-17.542969 0-32.34375 11.953125-36.695312 28.140625l-115.304688.105469v-14.246094c0-15.867188-12.386719-28.890625-28-29.925781v-20.148438c15.613281-1.035156 28-14.058593 28-29.925781v-14h26.332031c3.339844 0 6.460938-1.667969 8.316407-4.445312l39.71875-59.460938 13.699218-.09375c5.523438-.035156 9.96875-4.542969 9.933594-10.066406-.035156-5.523438-4.574219-9.988282-10.066406-9.933594l-19 .128906c-3.316406.019532-6.40625 1.6875-8.25 4.441406l-39.695313 59.429688h-20.988281v-14c0-16.542969-13.457031-30-30-30h-208c-16.542969 0-30 13.457031-30 30v48c0 15.867188 12.386719 28.890625 28 29.925781v20.148438c-15.613281 1.035156-28 14.058593-28 29.925781v48c0 15.867188 12.386719 28.890625 28 29.925781v20.148438c-15.613281 1.035156-28 14.058593-28 29.925781v48c0 16.542969 13.457031 30 30 30h208c16.542969 0 30-13.457031 30-30v-13.746094h20.992188l39.699218 59.308594c1.855469 2.773438 4.972656 4.4375 8.308594 4.4375h100.34375c4.402344 16.117188 19.164062 28 36.65625 28 20.953125 0 38-17.046875 38-38s-17.046875-38-38-38zm-54-172c9.925781 0 18 8.074219 18 18s-8.074219 18-18 18-18-8.074219-18-18 8.074219-18 18-18zm-372 72h172v20h-172zm0-128h172v20h-172zm-28-30v-48c0-5.515625 4.484375-10 10-10h208c5.515625 0 10 4.484375 10 10v48c0 5.515625-4.484375 10-10 10h-208c-5.515625 0-10-4.484375-10-10zm0 128v-48c0-5.515625 4.484375-10 10-10h208c5.515625 0 10 4.484375 10 10v48c0 5.515625-4.484375 10-10 10h-208c-5.515625 0-10-4.484375-10-10zm228 128c0 5.515625-4.484375 10-10 10h-208c-5.515625 0-10-4.484375-10-10v-48c0-5.515625 4.484375-10 10-10h208c5.515625 0 10 4.484375 10 10zm226 58c-9.925781 0-18-8.074219-18-18s8.074219-18 18-18 18 8.074219 18 18-8.074219 18-18 18zm0 0"/><path d="m401 48c2.628906 0 5.210938-1.070312 7.070312-2.929688 1.859376-1.859374 2.929688-4.441406 2.929688-7.070312s-1.070312-5.210938-2.929688-7.070312c-1.859374-1.859376-4.441406-2.929688-7.070312-2.929688s-5.210938 1.070312-7.070312 2.929688c-1.859376 1.859374-2.929688 4.441406-2.929688 7.070312s1.070312 5.210938 2.929688 7.070312c1.859374 1.859376 4.441406 2.929688 7.070312 2.929688zm0 0"/></svg>