<svg height="512pt" viewBox="-27 0 512 512" width="512pt" xmlns="http://www.w3.org/2000/svg"><path d="m30 502h280c11.046875 0 20-8.953125 20-20v-452c0-11.046875-8.953125-20-20-20h-280c-11.046875 0-20 8.953125-20 20v452c0 11.046875 8.953125 20 20 20zm0 0" fill="#fff"/><path d="m30 10h280c11.046875 0 20 8.953125 20 20v45.167969h-320v-45.167969c0-11.046875 8.953125-20 20-20zm0 0" fill="#b0e7f8"/><path d="m10 427.027344h320v54.972656c0 11.046875-8.953125 20-20 20h-280c-11.046875 0-20-8.953125-20-20zm0 0" fill="#b0e7f8"/><path d="m202 135.003906h182v-24l64 64-64 64v-24h-182zm0 0" fill="#f8a2aa"/><path d="m148 287.050781h182v-24l64 64-64 64v-24h-182zm0 0" fill="#e2f1a1"/><path d="m202 135.015625c0 11.046875-8.953125 20-20 20s-20-8.953125-20-20 8.953125-20 20-20 20 8.953125 20 20zm0 0" fill="#f8a2aa"/><path d="m253.082031 214.992188c0 13.253906-10.746093 24-24 24-13.253906 0-24-10.746094-24-24 0-13.257813 10.746094-24 24-24 13.253907 0 24 10.742187 24 24zm0 0" fill="#ffd89e"/><path d="m148 287.0625c0 13.253906-10.746094 24-24 24s-24-10.746094-24-24 10.746094-24 24-24 24 10.746094 24 24zm0 0" fill="#ffd89e"/><path d="m188 367.039062c0 11.046876-8.953125 20-20 20s-20-8.953124-20-20c0-11.046874 8.953125-20 20-20s20 8.953126 20 20zm0 0" fill="#d8ec84"/><path d="m170 454.519531c-2.628906 0-5.210938 1.0625-7.070312 2.921875-1.859376 1.867188-2.929688 4.4375-2.929688 7.070313 0 2.636719 1.070312 5.207031 2.929688 7.078125 1.859374 1.859375 4.441406 2.921875 7.070312 2.921875s5.210938-1.0625 7.070312-2.921875c1.859376-1.871094 2.929688-4.441406 2.929688-7.078125 0-2.632813-1.070312-5.203125-2.929688-7.070313-1.859374-1.863281-4.441406-2.921875-7.070312-2.921875zm0 0"/><path d="m205.082031 32.585938h-64.039062c-5.523438 0-10 4.476562-10 10 0 5.519531 4.476562 10 10 10h64.039062c5.523438 0 10-4.480469 10-10 0-5.523438-4.476562-10-10-10zm0 0"/><path d="m10 266c2.628906 0 5.210938-1.070312 7.070312-2.929688 1.859376-1.859374 2.929688-4.441406 2.929688-7.070312s-1.070312-5.210938-2.929688-7.070312c-1.859374-1.859376-4.441406-2.929688-7.070312-2.929688s-5.210938 1.070312-7.070312 2.929688c-1.859376 1.859374-2.929688 4.441406-2.929688 7.070312s1.070312 5.210938 2.929688 7.070312c1.859374 1.859376 4.441406 2.929688 7.070312 2.929688zm0 0"/><path d="m455.070312 167.933594-64-64c-2.859374-2.863282-7.164062-3.714844-10.898437-2.167969s-6.171875 5.191406-6.171875 9.238281v14h-34v-95.003906c0-16.542969-13.457031-30-30-30h-280c-16.542969 0-30 13.457031-30 30v181c0 5.523438 4.476562 10 10 10s10-4.476562 10-10v-126.324219h300v40.328125h-109.726562c-4.128907-11.632812-15.242188-19.988281-28.273438-19.988281-16.542969 0-30 13.457031-30 30s13.457031 30 30 30c13.039062 0 24.160156-8.367187 28.28125-20.011719h173.71875c5.476562 0 9.921875-4.402344 10-9.859375l39.859375 39.859375-39.859375 39.855469c-.078125-5.457031-4.523438-9.855469-10-9.855469h-122.417969c-4.277343-13.890625-17.226562-24.011718-32.5-24.011718-18.746093 0-34 15.25-34 34 0 18.746093 15.253907 34 34 34 15.265625 0 28.210938-10.113282 32.496094-23.988282h112.421875v14c0 4.042969 2.4375 7.691406 6.171875 9.238282 1.238281.511718 2.539063.761718 3.824219.761718 2.605468 0 5.160156-1.015625 7.074218-2.929687l64-64c3.90625-3.90625 3.90625-10.238281 0-14.140625zm-435.070312-103.257813v-34.675781c0-5.515625 4.484375-10 10-10h280c5.515625 0 10 4.484375 10 10v34.675781zm162 80.339844c-5.515625 0-10-4.484375-10-10 0-5.511719 4.484375-10 10-10s10 4.488281 10 10c0 5.515625-4.484375 10-10 10zm47.082031 83.976563c-7.71875 0-14-6.28125-14-14 0-7.722657 6.28125-14 14-14 7.722657 0 14 6.277343 14 14 0 7.71875-6.277343 14-14 14zm0 0"/><path d="m337.070312 255.980469c-2.859374-2.859375-7.160156-3.714844-10.898437-2.167969-3.734375 1.546875-6.171875 5.191406-6.171875 9.238281v14h-163.507812c-4.28125-13.875-17.226563-23.988281-32.492188-23.988281-18.746094 0-34 15.253906-34 34 0 18.75 15.253906 34 34 34 15.273438 0 28.222656-10.125 32.5-24.011719h173.5c5.476562 0 9.921875-4.402343 10-9.859375l39.859375 39.859375-39.859375 39.855469c-.003906-.058594-.011719-.109375-.015625-.167969-.167969-5.378906-4.566406-9.6875-9.984375-9.6875h-133.714844c-4.125-11.644531-15.246094-20.011719-28.285156-20.011719-16.542969 0-30 13.457032-30 30 0 16.539063 13.457031 30 30 30 13.03125 0 24.144531-8.355468 28.277344-19.988281h123.722656v39.976563h-300v-116.027344c0-5.523438-4.476562-10-10-10s-10 4.476562-10 10v181c0 16.542969 13.457031 30 30 30h280c16.542969 0 30-13.457031 30-30v-86.808594l61.070312-61.070312c3.90625-3.902344 3.90625-10.234375 0-14.140625zm-213.070312 45.082031c-7.71875 0-14-6.28125-14-14s6.28125-14 14-14 14 6.28125 14 14-6.28125 14-14 14zm44 75.976562c-5.515625 0-10-4.484374-10-10 0-5.515624 4.484375-10 10-10s10 4.484376 10 10c0 5.515626-4.484375 10-10 10zm142 114.960938h-280c-5.515625 0-10-4.484375-10-10v-44.972656h300v44.972656c0 5.515625-4.484375 10-10 10zm0 0"/></svg>