<svg height="512pt" viewBox="0 0 512 512" width="512pt" xmlns="http://www.w3.org/2000/svg"><path d="m406.648438 397.988281h-355.296876c-22.839843 0-41.351562-18.511719-41.351562-41.351562v-246.277344c0-22.835937 18.511719-41.347656 41.351562-41.347656h355.296876c22.839843 0 41.351562 18.511719 41.351562 41.347656v246.277344c0 22.839843-18.511719 41.351562-41.351562 41.351562zm0 0" fill="#dff6fc"/><path d="m10 336.859375v19.777344c0 22.835937 18.511719 41.351562 41.351562 41.351562h355.296876c22.839843 0 41.351562-18.515625 41.351562-41.351562v-19.777344zm0 0" fill="#91def5"/><path d="m310 501.96875h-162v-.992188c0-21.53125 17.457031-38.988281 38.988281-38.988281h84.019531c21.535157 0 38.992188 17.457031 38.992188 38.988281zm0 0" fill="#91def5"/><path d="m193 397.988281h72v64h-72zm0 0" fill="#79b2ff"/><path d="m502 481.757812c0 11.164063-9.050781 20.210938-20.210938 20.210938h-151.578124c-11.160157 0-20.210938-9.046875-20.210938-20.210938v-270.316406c0-11.160156 9.050781-20.210937 20.210938-20.210937h151.578124c11.164063 0 20.210938 9.050781 20.210938 20.210937zm0 0" fill="#b0e7f8"/><path d="m310 231.652344h192v216.316406h-192zm0 0" fill="#fff"/><path d="m103.132812 214.601562c0 13.253907-10.742187 24-24 24-13.253906 0-24-10.746093-24-24 0-13.253906 10.746094-24 24-24 13.257813 0 24 10.746094 24 24zm0 0" fill="#d8ec84"/><path d="m177.933594 139.878906c0 13.253906-10.742188 24-24 24-13.253906 0-24-10.746094-24-24s10.746094-24 24-24c13.257812 0 24 10.746094 24 24zm0 0" fill="#cff1fb"/><path d="m258.253906 220.117188c0 13.257812-10.746094 24-24 24-13.257812 0-24-10.742188-24-24 0-13.253907 10.742188-24 24-24 13.253906 0 24 10.746093 24 24zm0 0" fill="#f5737f"/><path d="m229 377.421875c2.628906 0 5.210938-1.066406 7.070312-2.929687 1.859376-1.859376 2.929688-4.4375 2.929688-7.070313 0-2.628906-1.070312-5.207031-2.929688-7.066406-1.859374-1.863281-4.441406-2.933594-7.070312-2.933594s-5.210938 1.070313-7.070312 2.933594c-1.859376 1.859375-2.929688 4.4375-2.929688 7.066406 0 2.632813 1.070312 5.210937 2.929688 7.070313 1.859374 1.859374 4.441406 2.929687 7.070312 2.929687zm0 0"/><path d="m220.246094 298.859375c5.523437 0 10-4.476563 10-10 0-5.519531-4.476563-10-10-10h-76.578125c-5.523438 0-10 4.480469-10 10 0 5.523437 4.476562 10 10 10zm0 0"/><path d="m98.535156 298.859375c5.519532 0 10-4.476563 10-10 0-5.519531-4.480468-10-10-10h-34.535156c-5.523438 0-10 4.480469-10 10 0 5.523437 4.476562 10 10 10zm0 0"/><path d="m406 465.234375c-2.628906 0-5.210938 1.070313-7.070312 2.929687-1.859376 1.859376-2.929688 4.441407-2.929688 7.070313 0 2.640625 1.070312 5.21875 2.929688 7.070313 1.859374 1.867187 4.441406 2.9375 7.070312 2.9375s5.210938-1.070313 7.070312-2.9375c1.859376-1.859376 2.929688-4.433594 2.929688-7.070313 0-2.628906-1.070312-5.210937-2.929688-7.070313-1.859374-1.859374-4.441406-2.929687-7.070312-2.929687zm0 0"/><path d="m481.789062 181.230469h-23.789062v-70.871094c0-27.261719-21.359375-49.621094-48.222656-51.246094l24.972656-24.96875v10.191407c0 5.519531 4.476562 10 10 10s10-4.480469 10-10v-34.335938c0-5.523438-4.476562-10-10-10h-34.332031c-5.523438 0-10 4.476562-10 10s4.476562 10 10 10h10.1875l-39.007813 39.011719h-107.597656c-5.523438 0-10 4.476562-10 10 0 5.519531 4.476562 10 10 10h87.597656l-111.183594 111.179687c-4.90625-2.65625-10.425781-4.070312-16.160156-4.070312-4.855468 0-9.550781 1.019531-13.851562 2.9375l-35.394532-35.394532c5.515626-12.476562 3.179688-27.613281-7.03125-37.824218-13.257812-13.257813-34.828124-13.257813-48.082031 0-10.78125 10.78125-12.792969 27.0625-6.039062 39.898437l-28.816407 28.816407c-12.84375-6.789063-29.152343-4.789063-39.945312 6.007812-6.421875 6.421875-9.960938 14.960938-9.960938 24.039062 0 9.082032 3.539063 17.621094 9.960938 24.042969s14.960938 9.957031 24.039062 9.957031c9.082032 0 17.621094-3.535156 24.042969-9.957031s9.957031-14.960937 9.957031-24.042969c0-5.640624-1.367187-11.070312-3.9375-15.914062l28.78125-28.785156c4.972657 2.640625 10.464844 3.960937 15.957032 3.960937 6.222656 0 12.4375-1.699219 17.902344-5.082031l33.480468 33.480469c-3.292968 5.3125-5.0625 11.449219-5.0625 17.859375 0 9.082031 3.535156 17.621094 9.957032 24.042968 6.628906 6.625 15.335937 9.941407 24.042968 9.941407 8.707032 0 17.414063-3.316407 24.042969-9.941407 6.421875-6.421874 9.957031-14.960937 9.957031-24.042968 0-5.546875-1.324218-10.886719-3.8125-15.667969l125.441406-125.441406h16.765626c17.289062 0 31.351562 14.0625 31.351562 31.347656v70.871094h-107.789062c-16.65625 0-30.210938 13.554687-30.210938 30.210937v115.417969h-280v-216.5c0-17.285156 14.0625-31.347656 31.351562-31.347656h132.679688c5.519531 0 10-4.480469 10-10 0-5.523438-4.480469-10-10-10h-132.679688c-28.316406 0-51.351562 23.035156-51.351562 51.347656v246.277344c0 28.3125 23.035156 51.351562 51.351562 51.351562h131.648438v44.175781c-25.152344 2.039063-45 23.144532-45 48.8125v.992188c0 5.519531 4.476562 10 10 10h162c2.789062 0 5.308594-1.144531 7.121094-2.984375 3.964844 1.910156 8.402344 2.984375 13.089844 2.984375h151.578124c16.65625 0 30.210938-13.554688 30.210938-30.210938v-270.316406c0-16.65625-13.554688-30.210937-30.210938-30.210937zm-392.753906 43.273437c-.003906 0-.003906 0 0 0-2.648437 2.644532-6.160156 4.097656-9.902344 4.097656-3.738281 0-7.253906-1.453124-9.898437-4.097656-2.644531-2.648437-4.101563-6.160156-4.101563-9.902344 0-3.738281 1.457032-7.253906 4.101563-9.898437 2.730469-2.726563 6.316406-4.09375 9.902344-4.09375 3.582031 0 7.167969 1.363281 9.894531 4.09375 2.648438 2.644531 4.101562 6.160156 4.101562 9.898437 0 3.742188-1.453124 7.253907-4.097656 9.902344zm55.390625-74.371094c-.128906-.144531-.25-.292968-.390625-.433593-.125-.125-.257812-.230469-.386718-.347657-5.050782-5.488281-4.933594-14.050781.386718-19.371093 2.730469-2.730469 6.316406-4.09375 9.898438-4.09375 3.585937 0 7.171875 1.363281 9.902344 4.09375 4.992187 4.996093 5.402343 12.851562 1.253906 18.332031-.285156.300781-.542969.617188-.785156.945312-.15625.171876-.300782.351563-.46875.519532-5.332032 5.335937-13.925782 5.445312-19.410157.355468zm99.726563 79.886719c-5.457032 5.457031-14.339844 5.460938-19.800782 0-2.644531-2.644531-4.097656-6.160156-4.097656-9.898437 0-3.742188 1.453125-7.257813 4.097656-9.902344 2.644532-2.644531 6.160157-4.097656 9.902344-4.097656 3.738282 0 7.253906 1.453125 9.898438 4.101562 2.644531 2.644532 4.101562 6.15625 4.101562 9.898438 0 3.738281-1.457031 7.253906-4.101562 9.898437zm30.847656 177.96875h25v53.53125c-7.117188-5.242187-15.695312-8.601562-25-9.355469zm45-166.335937h172v196.316406h-172zm10.210938-40.421875h151.578124c5.628907 0 10.210938 4.582031 10.210938 10.210937v10.210938h-172v-10.210938c0-5.628906 4.582031-10.210937 10.210938-10.210937zm-310.210938 155.40625v-9.777344h280v41.128906h-248.648438c-17.289062 0-31.351562-14.0625-31.351562-31.351562zm235 51.351562v44h-52v-44zm-95.566406 83.980469c3.796875-11.589844 14.714844-19.980469 27.558594-19.980469h84.019531c12.839843 0 23.757812 8.390625 27.554687 19.980469zm322.355468 0h-151.578124c-5.628907 0-10.210938-4.582031-10.210938-10.210938v-23.789062h172v23.789062c0 5.628907-4.582031 10.210938-10.210938 10.210938zm0 0"/><path d="m350 349.8125h45.429688c5.519531 0 10-4.480469 10-10 0-5.523438-4.480469-10-10-10h-45.429688c-5.523438 0-10 4.476562-10 10 0 5.519531 4.476562 10 10 10zm0 0"/><path d="m462 329.8125h-24.753906c-5.523438 0-10 4.476562-10 10 0 5.519531 4.476562 10 10 10h24.753906c5.523438 0 10-4.480469 10-10 0-5.523438-4.476562-10-10-10zm0 0"/><path d="m350 301.8125h112c5.523438 0 10-4.480469 10-10 0-5.523438-4.476562-10-10-10h-112c-5.523438 0-10 4.476562-10 10 0 5.519531 4.476562 10 10 10zm0 0"/><path d="m462 377.808594h-112c-5.523438 0-10 4.480468-10 10 0 5.523437 4.476562 10 10 10h112c5.523438 0 10-4.476563 10-10 0-5.519532-4.476562-10-10-10zm0 0"/><path d="m229 79.015625c2.628906 0 5.210938-1.070313 7.070312-2.933594 1.859376-1.867187 2.929688-4.4375 2.929688-7.066406 0-2.632813-1.070312-5.210937-2.929688-7.070313-1.859374-1.859374-4.441406-2.929687-7.070312-2.929687-2.640625 0-5.210938 1.066406-7.070312 2.929687-1.859376 1.847657-2.929688 4.429688-2.929688 7.070313 0 2.628906 1.070312 5.199219 2.929688 7.066406 1.859374 1.863281 4.441406 2.933594 7.070312 2.933594zm0 0"/></svg>