<svg height="512pt" viewBox="0 0 512 512" width="512pt" xmlns="http://www.w3.org/2000/svg"><path d="m354.53125 10h-308.757812c-19.757813 0-35.773438 16.015625-35.773438 35.773438v368.453124c0 19.757813 16.015625 35.773438 35.773438 35.773438h368.453124c19.757813 0 35.773438-16.015625 35.773438-35.773438v-308.757812zm0 0" fill="#b0e7f8"/><path d="m86 10h244v112h-244zm0 0" fill="#8690a6"/><path d="m85.96875 260.328125h288v189.671875h-288zm0 0" fill="#fff"/><path d="m308.855469 502h178.289062c8.203125 0 14.855469-6.652344 14.855469-14.855469v-196.210937l-60.878906-60.933594h-132.265625c-8.203125 0-14.855469 6.652344-14.855469 14.855469v242.289062c0 8.203125 6.652344 14.855469 14.855469 14.855469zm0 0" fill="#fff"/><path d="m441.121094 232.089844v43.984375c0 8.207031 6.652344 14.859375 14.859375 14.859375h43.929687zm0 0" fill="#ffe6c0"/><path d="m375.703125 329v72.09375h-24.609375l46.90625 46.90625 46.90625-46.90625h-25.203125v-72.09375zm0 0" fill="#f6838d"/><path d="m137.667969 365.164062h56.058593c5.523438 0 10-4.476562 10-10 0-5.523437-4.476562-10-10-10h-56.058593c-5.523438 0-10 4.476563-10 10 0 5.523438 4.476562 10 10 10zm0 0"/><path d="m289 66c0-5.523438-4.476562-10-10-10h-142c-5.523438 0-10 4.476562-10 10s4.476562 10 10 10h142c5.523438 0 10-4.476562 10-10zm0 0"/><path d="m509.074219 283.863281-49.074219-49.117187v-129.277344c0-2.652344-1.054688-5.195312-2.929688-7.070312l-95.464843-95.46875c-1.878907-1.875-4.421875-2.929688-7.074219-2.929688h-308.757812c-25.242188 0-45.773438 20.53125-45.773438 45.773438v368.453124c0 25.242188 20.53125 45.773438 45.773438 45.773438h238.226562v27.144531c0 13.703125 11.152344 24.855469 24.855469 24.855469h178.285156c13.707031 0 24.859375-11.152344 24.859375-24.855469v-196.210937c0-2.652344-1.054688-5.195313-2.925781-7.070313zm-57.953125-29.707031 26.75 26.777344h-21.890625c-2.679688 0-4.859375-2.179688-4.859375-4.859375zm-431.121094 160.070312v-368.453124c0-14.210938 11.5625-25.773438 25.773438-25.773438h30.226562v102c0 5.523438 4.476562 10 10 10h77c5.523438 0 10-4.476562 10-10s-4.476562-10-10-10h-67v-92h224v92h-67c-5.523438 0-10 4.476562-10 10s4.476562 10 10 10h77c5.523438 0 10-4.476562 10-10v-102h10.390625l89.609375 89.609375v110.390625h-131.144531c-13.703125 0-24.855469 11.152344-24.855469 24.855469v5.472656h-198c-5.523438 0-10 4.476563-10 10v179.671875h-30.226562c-14.210938 0-25.773438-11.5625-25.773438-25.773438zm76 25.773438v-169.671875h188v26.835937h-146.332031c-5.523438 0-10 4.476563-10 10 0 5.523438 4.476562 10 10 10h146.332031v28h-45c-5.523438 0-10 4.476563-10 10 0 5.523438 4.476562 10 10 10h45v28h-146.332031c-5.523438 0-10 4.476563-10 10 0 5.523438 4.476562 10 10 10h146.332031v26.835938zm391.144531 52h-178.289062c-2.675781 0-4.855469-2.179688-4.855469-4.855469v-242.289062c0-2.675781 2.179688-4.855469 4.855469-4.855469h122.265625v36.074219c0 13.707031 11.152344 24.859375 24.859375 24.859375h36.019531v186.207031c0 2.679687-2.179688 4.859375-4.855469 4.859375zm0 0"/><path d="m444.90625 391.09375-15.203125.003906v-62.097656c0-5.523438-4.476563-10-10-10h-44c-5.519531 0-10 4.476562-10 10v62.097656h-14.609375c-4.042969 0-7.691406 2.433594-9.238281 6.171875s-.691407 8.039063 2.167969 10.898438l46.90625 46.902343c1.953124 1.953126 4.511718 2.929688 7.070312 2.929688s5.117188-.976562 7.070312-2.929688l46.90625-46.90625c2.859376-2.859374 3.714844-7.160156 2.167969-10.894531-1.546875-3.738281-5.195312-6.175781-9.238281-6.175781zm-46.90625 42.765625-22.761719-22.765625h.464844c5.523437 0 10-4.476562 10-10v-62.09375h24v62.097656c0 2.648438 1.054687 5.195313 2.929687 7.070313 1.878907 1.875 4.421876 2.929687 7.070313 2.929687h1.058594zm0 0"/><path d="m208 112c-2.628906 0-5.210938 1.070312-7.070312 2.929688-1.859376 1.859374-2.929688 4.441406-2.929688 7.070312s1.070312 5.210938 2.929688 7.070312c1.859374 1.859376 4.441406 2.929688 7.070312 2.929688s5.210938-1.070312 7.070312-2.929688c1.859376-1.859374 2.929688-4.441406 2.929688-7.070312s-1.070312-5.210938-2.929688-7.070312c-1.859374-1.859376-4.441406-2.929688-7.070312-2.929688zm0 0"/></svg>