<svg height="512pt" viewBox="0 0 512 512" width="512pt" xmlns="http://www.w3.org/2000/svg"><path d="m30 502h104c11.046875 0 20-8.953125 20-20v-80.546875c0-11.042969-8.953125-20-20-20h-104c-11.046875 0-20 8.957031-20 20v80.546875c0 11.046875 8.953125 20 20 20zm0 0" fill="#f6838d"/><path d="m378 502h104c11.046875 0 20-8.953125 20-20v-80.546875c0-11.042969-8.953125-20-20-20h-104c-11.046875 0-20 8.957031-20 20v80.546875c0 11.046875 8.953125 20 20 20zm0 0" fill="#dff6fc"/><path d="m472.273438 502-74.589844-74.589844-39.683594 39.679688v14.910156c0 11.046875 8.953125 20 20 20zm0 0" fill="#cbe558"/><path d="m428.636719 458.363281 40.023437-40.023437 33.339844 33.339844v30.320312c0 11.046875-8.953125 20-20 20h-9.726562z" fill="#e2f1a1"/><path d="m305.902344 452.78125c0-21.019531-51.011719-35.070312-51.011719-35.070312v-42.441407s51.011719 14.046875 51.011719 35.066407zm0 0" fill="#ffcb7c"/><path d="m248.699219 459.648438c-8.976563-8.976563-24.335938-8.167969-34.308594 1.804687s-10.78125 25.332031-1.808594 34.308594c8.976563 8.976562 24.335938 8.167969 34.308594-1.804688 9.972656-9.972656 10.78125-25.335937 1.808594-34.308593zm0 0" fill="#ffcb7c"/><path d="m342 170h-172c-11.046875 0-20 8.953125-20 20v40c0 11.046875 8.953125 20 20 20h172c11.046875 0 20-8.953125 20-20v-40c0-11.046875-8.953125-20-20-20zm0 0" fill="#b5bcc9"/><path d="m342 90h-172c-11.046875 0-20 8.953125-20 20v40c0 11.046875 8.953125 20 20 20h172c11.046875 0 20-8.953125 20-20v-40c0-11.046875-8.953125-20-20-20zm0 0" fill="#e1e3e9"/><path d="m342 10h-172c-11.046875 0-20 8.953125-20 20v40c0 11.046875 8.953125 20 20 20h172c11.046875 0 20-8.953125 20-20v-40c0-11.046875-8.953125-20-20-20zm0 0" fill="#b5bcc9"/><path d="m512 451.675781v-50.222656c0-16.539063-13.457031-30-30-30h-42.683594v-60.546875c0-5.519531-4.476562-10-10-10h-163.316406v-40.90625h76c16.542969 0 30-13.457031 30-30v-40c0-7.679688-2.902344-14.6875-7.664062-20 4.761718-5.3125 7.664062-12.320312 7.664062-20v-40c0-7.679688-2.902344-14.6875-7.664062-20 4.761718-5.3125 7.664062-12.320312 7.664062-20v-40c0-16.542969-13.457031-30-30-30h-172c-16.542969 0-30 13.457031-30 30v40c0 7.679688 2.902344 14.6875 7.664062 20-4.761718 5.3125-7.664062 12.320312-7.664062 20v40c0 7.679688 2.902344 14.6875 7.664062 20-4.761718 5.3125-7.664062 12.320312-7.664062 20v40c0 16.542969 13.457031 30 30 30h76v40.90625h-31.597656c-5.519532 0-10 4.476562-10 10s4.480468 10 10 10h31.597656v8.09375c0 5.523438 4.476562 10 10 10s10-4.476562 10-10v-8.09375h153.316406v50.546875h-41.316406c-16.542969 0-30 13.457031-30 30v80.546875c0 16.542969 13.457031 30 30 30h104c16.542969 0 30-13.457031 30-30v-30.3125c0-.003906 0-.007812 0-.011719zm-352-301.675781v-40c0-5.515625 4.484375-10 10-10h172c5.515625 0 10 4.484375 10 10v40c0 5.515625-4.484375 10-10 10h-172c-5.515625 0-10-4.484375-10-10zm0-120c0-5.515625 4.484375-10 10-10h172c5.515625 0 10 4.484375 10 10v40c0 5.515625-4.484375 10-10 10h-172c-5.515625 0-10-4.484375-10-10zm0 200v-40c0-5.515625 4.484375-10 10-10h172c5.515625 0 10 4.484375 10 10v40c0 5.515625-4.484375 10-10 10h-172c-5.515625 0-10-4.484375-10-10zm218 161.453125h104c5.515625 0 10 4.488281 10 10v26.085937l-16.269531-16.269531c-3.90625-3.90625-10.238281-3.90625-14.144531 0l-32.949219 32.953125-23.882813-23.882812c-3.90625-3.90625-10.238281-3.90625-14.144531 0l-22.609375 22.609375v-41.496094c0-5.511719 4.484375-10 10-10zm-10 90.546875v-10.765625l29.683594-29.683594 50.445312 50.449219h-70.128906c-5.515625 0-10-4.484375-10-10zm114 10h-6.351562c-.46875-.960938-1.097657-1.863281-1.894532-2.660156l-30.976562-30.976563 25.882812-25.878906 23.339844 23.339844v26.175781c0 5.515625-4.484375 10-10 10zm0 0"/><path d="m284.734375 375.910156c-13.410156-6.457031-26.628906-10.128906-27.1875-10.28125-3.011719-.832031-6.234375-.207031-8.714844 1.683594-2.484375 1.890625-3.941406 4.835938-3.941406 7.957031v70.285157c-12.21875-4.640626-27.128906-1.609376-37.570313 8.828124-13.851562 13.855469-14.664062 35.589844-1.804687 48.453126 6.117187 6.113281 14.238281 9.136718 22.566406 9.136718 9.183594 0 18.617188-3.679687 25.886719-10.945312 7.511719-7.511719 11.179688-17.335938 10.921875-26.8125v-42.605469c3.535156 1.34375 7.476563 2.976563 11.382813 4.871094 15.496093 7.496093 19.628906 13.773437 19.628906 16.300781 0 5.523438 4.476562 10 10 10 5.523437 0 10-4.476562 10-10v-42.441406c0-12.890625-10.488282-24.472656-31.167969-34.429688zm-65.074219 112.78125c-5.0625-5.0625-4.253906-14.109375 1.804688-20.167968 3.382812-3.382813 7.699218-5.128907 11.734375-5.128907 3.1875 0 6.199219 1.089844 8.433593 3.324219 1.9375 1.941406 3.011719 4.46875 3.261719 7.1875v.839844c0 .285156.015625.5625.039063.839844-.117188 3.90625-1.84375 8.035156-5.109375 11.300781-6.054688 6.058593-15.101563 6.867187-20.164063 1.804687zm76.242188-64.179687c-3.3125-2.117188-7.039063-4.167969-11.167969-6.15625-7.355469-3.542969-14.660156-6.25-19.84375-7.996094v-21.199219c3.460937 1.316406 7.320313 2.917969 11.167969 4.769532 15.664062 7.542968 19.84375 13.863281 19.84375 16.410156zm0 0"/><path d="m190.039062 200c-2.628906 0-5.210937 1.070312-7.070312 2.929688-1.859375 1.859374-2.929688 4.441406-2.929688 7.070312s1.070313 5.210938 2.929688 7.070312c1.859375 1.859376 4.441406 2.929688 7.070312 2.929688 2.632813 0 5.210938-1.070312 7.070313-2.929688 1.859375-1.859374 2.929687-4.441406 2.929687-7.070312s-1.070312-5.210938-2.929687-7.070312c-1.859375-1.859376-4.4375-2.929688-7.070313-2.929688zm0 0"/><path d="m226.171875 200c-2.632813 0-5.210937 1.070312-7.070313 2.929688-1.859374 1.859374-2.929687 4.441406-2.929687 7.070312s1.066406 5.210938 2.929687 7.070312c1.859376 1.859376 4.4375 2.929688 7.070313 2.929688 2.628906 0 5.207031-1.070312 7.066406-2.929688 1.859375-1.859374 2.933594-4.441406 2.933594-7.070312s-1.070313-5.210938-2.933594-7.070312c-1.859375-1.859376-4.4375-2.929688-7.066406-2.929688zm0 0"/><path d="m322.558594 200h-48.214844c-5.523438 0-10 4.476562-10 10s4.476562 10 10 10h48.214844c5.523437 0 10-4.476562 10-10s-4.476563-10-10-10zm0 0"/><path d="m190.039062 120c-2.628906 0-5.210937 1.070312-7.070312 2.929688-1.859375 1.859374-2.929688 4.441406-2.929688 7.070312s1.070313 5.210938 2.929688 7.070312c1.859375 1.859376 4.441406 2.929688 7.070312 2.929688 2.632813 0 5.210938-1.070312 7.070313-2.929688 1.859375-1.859374 2.929687-4.441406 2.929687-7.070312s-1.070312-5.210938-2.929687-7.070312c-1.859375-1.859376-4.429687-2.929688-7.070313-2.929688zm0 0"/><path d="m226.171875 120c-2.632813 0-5.210937 1.070312-7.070313 2.929688-1.859374 1.859374-2.929687 4.441406-2.929687 7.070312s1.066406 5.210938 2.929687 7.070312c1.859376 1.859376 4.4375 2.929688 7.070313 2.929688 2.628906 0 5.207031-1.070312 7.066406-2.929688 1.859375-1.859374 2.933594-4.441406 2.933594-7.070312s-1.070313-5.210938-2.933594-7.070312c-1.859375-1.859376-4.4375-2.929688-7.066406-2.929688zm0 0"/><path d="m322.558594 120h-48.214844c-5.523438 0-10 4.476562-10 10s4.476562 10 10 10h48.214844c5.523437 0 10-4.476562 10-10s-4.476563-10-10-10zm0 0"/><path d="m190.039062 60c2.640626 0 5.210938-1.070312 7.070313-2.929688 1.859375-1.859374 2.929687-4.441406 2.929687-7.070312s-1.070312-5.210938-2.929687-7.070312c-1.859375-1.859376-4.429687-2.929688-7.070313-2.929688-2.628906 0-5.210937 1.070312-7.070312 2.929688-1.859375 1.859374-2.929688 4.441406-2.929688 7.070312s1.070313 5.210938 2.929688 7.070312c1.859375 1.859376 4.441406 2.929688 7.070312 2.929688zm0 0"/><path d="m226.171875 60c2.628906 0 5.207031-1.070312 7.066406-2.929688 1.859375-1.859374 2.933594-4.441406 2.933594-7.070312s-1.070313-5.210938-2.933594-7.070312c-1.859375-1.859376-4.4375-2.929688-7.066406-2.929688-2.632813 0-5.210937 1.070312-7.070313 2.929688-1.859374 1.859374-2.929687 4.441406-2.929687 7.070312s1.066406 5.210938 2.929687 7.070312c1.859376 1.859376 4.4375 2.929688 7.070313 2.929688zm0 0"/><path d="m274.34375 60h48.214844c5.523437 0 10-4.476562 10-10s-4.476563-10-10-10h-48.214844c-5.523438 0-10 4.476562-10 10s4.476562 10 10 10zm0 0"/><path d="m134 371.453125h-41.316406v-50.546875h31.808594c5.523437 0 10-4.476562 10-10s-4.476563-10-10-10h-41.808594c-5.523438 0-10 4.476562-10 10v60.546875h-42.683594c-16.542969 0-30 13.457031-30 30v80.546875c0 16.542969 13.457031 30 30 30h104c16.542969 0 30-13.457031 30-30v-80.546875c0-16.542969-13.457031-30-30-30zm10 110.546875c0 5.515625-4.484375 10-10 10h-104c-5.515625 0-10-4.484375-10-10v-80.546875c0-5.511719 4.484375-10 10-10h104c5.515625 0 10 4.488281 10 10zm0 0"/><path d="m95.75 433.066406-14.832031-8.5625c-3.09375-1.789062-6.90625-1.789062-10 0-3.09375 1.785156-5 5.085938-5 8.660156v17.125c0 3.574219 1.90625 6.875 5 8.660157 1.546875.894531 3.273437 1.339843 5 1.339843 1.726562 0 3.453125-.445312 5-1.339843l14.832031-8.5625c3.09375-1.785157 5-5.085938 5-8.660157 0-3.570312-1.90625-6.871093-5-8.660156zm0 0"/><path d="m169.398438 300.910156c-2.628907 0-5.210938 1.058594-7.070313 2.929688-1.859375 1.859375-2.929687 4.429687-2.929687 7.058594 0 2.640624 1.070312 5.222656 2.929687 7.082031s4.441406 2.929687 7.070313 2.929687c2.640624 0 5.210937-1.070312 7.070312-2.929687 1.871094-1.859375 2.929688-4.441407 2.929688-7.082031 0-2.628907-1.058594-5.199219-2.929688-7.058594-1.859375-1.871094-4.429688-2.929688-7.070312-2.929688zm0 0"/></svg>