<svg height="512pt" viewBox="0 0 512 512" width="512pt" xmlns="http://www.w3.org/2000/svg"><path d="m405 462h44v40h-44zm0 0" fill="#91def5"/><path d="m131.769531 502h-93.601562c-15.558594 0-28.167969-12.609375-28.167969-28.167969v-11.832031h149.9375v11.832031c0 15.558594-12.609375 28.167969-28.167969 28.167969zm0 0" fill="#91def5"/><g fill="#dff6fc"><path d="m128.019531 374h-86.101562c-13.210938 0-23.917969 10.707031-23.917969 23.917969v64.082031h133.9375v-64.082031c0-13.210938-10.707031-23.917969-23.917969-23.917969zm0 0"/><path d="m282.5 382h-53c-11.875 0-21.5 9.625-21.5 21.5v77c0 11.875 9.625 21.5 21.5 21.5h53c11.875 0 21.5-9.625 21.5-21.5v-77c0-11.875-9.625-21.5-21.5-21.5zm0 0"/><path d="m482 357.667969h-110c-11.046875 0-20 8.953125-20 20v64.332031c0 11.046875 8.953125 20 20 20h110c11.046875 0 20-8.953125 20-20v-64.332031c0-11.046875-8.953125-20-20-20zm0 0"/></g><path d="m372.3125 256.253906h16.785156c39.839844 0 72.140625-32.277344 72.140625-72.09375s-32.300781-72.097656-72.140625-72.097656c-1.410156 0-2.808594.054688-4.199218.132812-12.019532-58.335937-63.667969-102.195312-125.5625-102.195312-55.261719 0-102.359376 34.96875-120.371094 83.984375-1.808594-.191406-3.640625-.300781-5.496094-.300781-28.554688 0-51.699219 23.132812-51.699219 51.664062 0 3.90625.449219 7.703125 1.269531 11.363282-18.921874 7.671874-32.277343 26.210937-32.277343 47.878906 0 28.53125 23.144531 51.664062 51.699219 51.664062zm0 0" fill="#b0e7f8"/><path d="m348.128906 216.253906h-184c-11.046875 0-20-8.953125-20-20v-40c0-11.046875 8.953125-20 20-20h184c11.042969 0 20 8.953125 20 20v40c0 11.046875-8.957031 20-20 20zm0 0" fill="#e1e3e9"/><path d="m348.128906 296.253906h-184c-11.046875 0-20-8.953125-20-20v-40c0-11.046875 8.953125-20 20-20h184c11.042969 0 20 8.953125 20 20v40c0 11.046875-8.957031 20-20 20zm0 0" fill="#b5bcc9"/><path d="m181.761719 186.25c2.628906 0 5.207031-1.058594 7.066406-2.921875 1.863281-1.867187 2.933594-4.4375 2.933594-7.078125 0-2.628906-1.070313-5.199219-2.933594-7.070312-1.859375-1.859376-4.4375-2.929688-7.066406-2.929688-2.632813 0-5.210938 1.070312-7.070313 2.929688-1.863281 1.859374-2.929687 4.441406-2.929687 7.070312 0 2.640625 1.066406 5.210938 2.929687 7.078125 1.859375 1.863281 4.4375 2.921875 7.070313 2.921875zm0 0"/><path d="m217.890625 186.25c2.628906 0 5.210937-1.058594 7.070313-2.921875 1.859374-1.867187 2.929687-4.4375 2.929687-7.078125 0-2.628906-1.070313-5.199219-2.929687-7.070312-1.859376-1.859376-4.441407-2.929688-7.070313-2.929688s-5.210937 1.070312-7.070313 2.929688c-1.859374 1.871093-2.929687 4.441406-2.929687 7.070312 0 2.640625 1.070313 5.210938 2.929687 7.078125 1.859376 1.863281 4.441407 2.921875 7.070313 2.921875zm0 0"/><path d="m268.472656 186.253906h60.214844c5.523438 0 10-4.476562 10-10 0-5.523437-4.476562-10-10-10h-60.214844c-5.523437 0-10 4.476563-10 10 0 5.523438 4.476563 10 10 10zm0 0"/><path d="m181.761719 246.25c-2.632813 0-5.210938 1.070312-7.070313 2.929688-1.863281 1.859374-2.929687 4.441406-2.929687 7.070312 0 2.640625 1.066406 5.210938 2.929687 7.078125 1.859375 1.863281 4.4375 2.921875 7.070313 2.921875 2.628906 0 5.207031-1.058594 7.066406-2.921875 1.863281-1.867187 2.933594-4.4375 2.933594-7.078125 0-2.628906-1.070313-5.210938-2.933594-7.070312-1.859375-1.859376-4.4375-2.929688-7.066406-2.929688zm0 0"/><path d="m217.890625 246.25c-2.628906 0-5.210937 1.070312-7.070313 2.929688-1.859374 1.859374-2.929687 4.441406-2.929687 7.070312 0 2.640625 1.070313 5.210938 2.929687 7.078125 1.859376 1.863281 4.441407 2.921875 7.070313 2.921875s5.210937-1.058594 7.070313-2.921875c1.859374-1.867187 2.929687-4.4375 2.929687-7.078125 0-2.628906-1.070313-5.210938-2.929687-7.070312-1.859376-1.859376-4.441407-2.929688-7.070313-2.929688zm0 0"/><path d="m328.6875 246.253906h-60.214844c-5.523437 0-10 4.476563-10 10 0 5.523438 4.476563 10 10 10h60.214844c5.523438 0 10-4.476562 10-10 0-5.523437-4.476562-10-10-10zm0 0"/><path d="m256.128906 481c2.632813 0 5.210938-1.070312 7.070313-2.929688 1.859375-1.859374 2.929687-4.441406 2.929687-7.070312s-1.070312-5.210938-2.929687-7.070312c-1.859375-1.859376-4.4375-2.929688-7.070313-2.929688-2.628906 0-5.207031 1.070312-7.070312 2.929688-1.867188 1.859374-2.929688 4.441406-2.929688 7.070312s1.0625 5.210938 2.929688 7.070312c1.863281 1.859376 4.441406 2.929688 7.070312 2.929688zm0 0"/><path d="m482 347.667969h-45v-51.414063c0-5.523437-4.476562-10-10-10h-50.59375c1.109375-3.128906 1.722656-6.492187 1.722656-10v-10h10.96875c45.292969 0 82.140625-36.828125 82.140625-82.097656 0-44.035156-34.867187-80.082031-78.457031-82.011719-11.59375-42.785156-43.800781-78.242187-85.683594-93.667969-5.183594-1.910156-10.933594.746094-12.839844 5.929688-1.910156 5.183594.746094 10.929688 5.925782 12.839844 38.046875 14.011718 66.753906 47.335937 74.921875 86.96875 1 4.859375 5.40625 8.246094 10.367187 7.964844 1.386719-.078126 2.539063-.117188 3.625-.117188 34.261719 0 62.140625 27.855469 62.140625 62.09375 0 34.242188-27.878906 62.097656-62.140625 62.097656h-10.972656v-10c0-7.679687-2.902344-14.6875-7.660156-20 4.757812-5.3125 7.660156-12.320312 7.660156-20v-40c0-16.542968-13.457031-30-30-30h-184c-16.539062 0-30 13.457032-30 30v40c0 7.679688 2.902344 14.6875 7.664062 20-4.761718 5.3125-7.664062 12.320313-7.664062 20v10h-31.667969c-22.988281 0-41.695312-18.691406-41.695312-41.664062 0-17.042969 10.21875-32.199219 26.035156-38.613282 4.535156-1.839843 7.074219-6.6875 6-11.460937-.679687-3.03125-1.023437-6.113281-1.023437-9.167969 0-22.972656 18.703124-41.664062 41.695312-41.664062 1.417969 0 2.914062.082031 4.445312.246094 4.554688.480468 8.859376-2.195313 10.4375-6.496094 11.890626-32.351563 37.21875-57.847656 69.496094-69.949219 5.171875-1.9375 7.792969-7.703125 5.851563-12.875-1.9375-5.171875-7.703125-7.789063-12.875-5.851563-35.429688 13.28125-63.699219 40.371094-78.523438 74.9375-33.484375.625-60.53125 28.042969-60.53125 61.652344 0 1.863282.085938 3.726563.257813 5.59375-19.222656 10.84375-31.265625 31.132813-31.265625 53.648438 0 34 27.675781 61.664062 61.695312 61.664062h31.667969v10c0 3.507813.609375 6.871094 1.722656 10h-50.59375c-5.523437 0-10 4.476563-10 10v67.746094h-33.335937c-18.703125 0-33.917969 15.214844-33.917969 33.917969v54.28125c-4.5625.929687-8 4.960937-8 9.800781v11.832031c0 21.046875 17.121094 38.167969 38.167969 38.167969h93.601562c21.046875 0 38.167969-17.121094 38.167969-38.167969v-11.832031c0-4.839844-3.433594-8.871094-8-9.800781v-54.28125c0-18.703125-15.214844-33.917969-33.917969-33.917969h-32.765625v-57.746094h150.875v65.746094h-16.628906c-17.367188 0-31.5 14.132812-31.5 31.5v77c0 17.367188 14.132812 31.5 31.5 31.5h53c17.367188 0 31.5-14.132812 31.5-31.5v-77c0-17.367188-14.132812-31.5-31.5-31.5h-16.371094v-65.746094h150.871094v41.414063h-45c-16.542969 0-30 13.457031-30 30v64.332031c0 16.542969 13.457031 30 30 30h23v20h-22c-5.523438 0-10 4.476562-10 10s4.476562 10 10 10h108c5.523438 0 10-4.476562 10-10s-4.476562-10-10-10h-22v-20h23c16.542969 0 30-13.457031 30-30v-64.332031c0-16.542969-13.457031-30-30-30zm-332.0625 126.164062c0 10.019531-8.148438 18.167969-18.167969 18.167969h-93.601562c-10.019531 0-18.167969-8.148438-18.167969-18.167969v-1.832031h129.9375zm-8-75.914062v54.082031h-113.9375v-54.082031c0-7.675781 6.242188-13.917969 13.917969-13.917969h86.101562c7.675781 0 13.917969 6.242188 13.917969 13.917969zm152.0625 5.582031v77c0 6.339844-5.160156 11.5-11.5 11.5h-53c-6.339844 0-11.5-5.160156-11.5-11.5v-77c0-6.339844 5.160156-11.5 11.5-11.5h53c6.339844 0 11.5 5.160156 11.5 11.5zm-139.871094-247.246094c0-5.515625 4.484375-10 10-10h184c5.511719 0 10 4.484375 10 10v40c0 5.515625-4.488281 10-10 10h-184c-5.515625 0-10-4.484375-10-10zm135.371094 130h-125.371094c-5.515625 0-10-4.484375-10-10v-40c0-5.515625 4.484375-10 10-10h184c5.511719 0 10 4.484375 10 10v40c0 5.515625-4.488281 10-10 10zm149.5 205.746094h-24v-20h24zm53-50c0 5.515625-4.484375 10-10 10h-110c-5.515625 0-10-4.484375-10-10v-64.332031c0-5.515625 4.484375-10 10-10h110c5.515625 0 10 4.484375 10 10zm0 0"/><path d="m259.339844 20c2.628906 0 5.210937-1.070312 7.070312-2.929688 1.859375-1.859374 2.929688-4.441406 2.929688-7.070312s-1.070313-5.210938-2.929688-7.070312c-1.859375-1.859376-4.441406-2.929688-7.070312-2.929688-2.640625 0-5.210938 1.070312-7.070313 2.929688-1.871093 1.859374-2.929687 4.441406-2.929687 7.070312s1.058594 5.210938 2.929687 7.070312c1.859375 1.859376 4.441407 2.929688 7.070313 2.929688zm0 0"/></svg>