<svg height="512pt" viewBox="0 -27 512 512" width="512pt" xmlns="http://www.w3.org/2000/svg"><path d="m38 98h192v40h-192zm0 0" fill="#8690a6"/><path d="m38 226h192v40h-192zm0 0" fill="#8690a6"/><path d="m238 226h-208c-11.046875 0-20-8.953125-20-20v-48c0-11.046875 8.953125-20 20-20h208c11.046875 0 20 8.953125 20 20v48c0 11.046875-8.953125 20-20 20zm0 0" fill="#e1e3e9"/><path d="m197.332031 354h-167.332031c-11.046875 0-20-8.953125-20-20v-48c0-11.046875 8.953125-20 20-20h154.679688" fill="#b5bcc9"/><path d="m238 10h-208c-11.046875 0-20 8.953125-20 20v48c0 11.046875 8.953125 20 20 20h208c11.046875 0 20-8.953125 20-20v-48c0-11.046875-8.953125-20-20-20zm0 0" fill="#b5bcc9"/><path d="m502 289.34375c0 87.621094-71.035156 158.65625-158.65625 158.65625-87.625 0-158.660156-71.035156-158.660156-158.65625 0-87.625 71.035156-158.660156 158.660156-158.660156 87.621094 0 158.65625 71.035156 158.65625 158.660156zm0 0" fill="#d8ec84"/><path d="m313.945312 235.691406v-12.726562c0-16.183594 13.117188-29.300782 29.296876-29.300782 16.183593 0 29.300781 13.117188 29.300781 29.300782v12.476562zm0 0" fill="#8690a6"/><path d="m398.347656 309.648438v-29.40625c0-27.03125-21.917968-48.945313-48.949218-48.945313h-11.882813c-27.03125 0-48.945313 21.914063-48.945313 48.945313v29.40625c0 27.03125 21.914063 48.949218 48.945313 48.949218h11.882813c27.03125-.003906 48.949218-21.917968 48.949218-48.949218zm0 0" fill="#f6838d"/><path d="m51.671875 172c-2.632813 0-5.210937 1.070312-7.070313 2.929688-1.859374 1.859374-2.929687 4.441406-2.929687 7.070312 0 2.640625 1.066406 5.210938 2.929687 7.070312 1.859376 1.859376 4.4375 2.929688 7.070313 2.929688 2.628906 0 5.199219-1.070312 7.066406-2.929688 1.859375-1.859374 2.933594-4.441406 2.933594-7.070312s-1.070313-5.210938-2.933594-7.070312c-1.859375-1.859376-4.4375-2.929688-7.066406-2.929688zm0 0"/><path d="m91.671875 172c-2.644531 0-5.222656 1.070312-7.070313 2.929688-1.871093 1.859374-2.929687 4.441406-2.929687 7.070312s1.058594 5.210938 2.929687 7.070312c1.847657 1.859376 4.429688 2.929688 7.070313 2.929688 2.628906 0 5.207031-1.070312 7.066406-2.929688 1.859375-1.859374 2.933594-4.441406 2.933594-7.070312s-1.070313-5.210938-2.933594-7.070312c-1.859375-1.859376-4.4375-2.929688-7.066406-2.929688zm0 0"/><path d="m51.671875 300c-2.632813 0-5.210937 1.070312-7.070313 2.929688-1.859374 1.859374-2.929687 4.429687-2.929687 7.070312 0 2.628906 1.066406 5.210938 2.929687 7.070312 1.859376 1.859376 4.4375 2.929688 7.070313 2.929688 2.628906 0 5.199219-1.070312 7.066406-2.929688 1.859375-1.859374 2.933594-4.441406 2.933594-7.070312s-1.070313-5.210938-2.933594-7.070312c-1.867187-1.859376-4.4375-2.929688-7.066406-2.929688zm0 0"/><path d="m91.671875 300c-2.644531 0-5.210937 1.070312-7.070313 2.929688-1.871093 1.859374-2.929687 4.441406-2.929687 7.070312s1.058594 5.210938 2.929687 7.070312c1.859376 1.859376 4.429688 2.929688 7.070313 2.929688 2.628906 0 5.207031-1.070312 7.066406-2.929688 1.859375-1.859374 2.933594-4.441406 2.933594-7.070312s-1.070313-5.210938-2.933594-7.070312c-1.867187-1.859376-4.4375-2.929688-7.066406-2.929688zm0 0"/><path d="m51.671875 64c2.628906 0 5.207031-1.070312 7.066406-2.929688 1.863281-1.871093 2.933594-4.441406 2.933594-7.070312s-1.070313-5.210938-2.933594-7.070312c-1.867187-1.859376-4.4375-2.929688-7.066406-2.929688-2.632813 0-5.210937 1.070312-7.070313 2.929688-1.859374 1.859374-2.929687 4.429687-2.929687 7.070312 0 2.628906 1.066406 5.210938 2.929687 7.070312 1.859376 1.859376 4.425782 2.929688 7.070313 2.929688zm0 0"/><path d="m91.671875 64c2.628906 0 5.207031-1.070312 7.066406-2.929688 1.859375-1.859374 2.933594-4.441406 2.933594-7.070312s-1.070313-5.210938-2.933594-7.070312c-1.859375-1.859376-4.4375-2.929688-7.066406-2.929688-2.644531 0-5.222656 1.070312-7.070313 2.929688-1.871093 1.859374-2.929687 4.441406-2.929687 7.070312s1.058594 5.210938 2.929687 7.070312c1.847657 1.859376 4.425782 2.929688 7.070313 2.929688zm0 0"/><path d="m147.667969 64h66.664062c5.523438 0 10-4.476562 10-10s-4.476562-10-10-10h-66.664062c-5.523438 0-10 4.476562-10 10s4.476562 10 10 10zm0 0"/><path d="m343.34375 120.683594c-29.140625 0-56.578125 7.429687-80.519531 20.496094-5.117188-7.519532-13.507813-12.46875-22.824219-13.09375v-20.160157c15.613281-1.035156 28-14.058593 28-29.925781v-48c0-16.542969-13.457031-30-30-30h-208c-16.542969 0-30 13.457031-30 30v48c0 15.867188 12.386719 28.890625 28 29.925781v20.148438c-15.613281 1.035156-28 14.058593-28 29.925781v48c0 15.867188 12.386719 28.890625 28 29.925781v20.148438c-15.613281 1.035156-28 14.058593-28 29.925781v48c0 16.542969 13.457031 30 30 30h162.039062c4.726563 9.527344 10.378907 18.664062 16.949219 27.308594 21.710938 28.566406 52.53125 49.835937 86.78125 59.886718 5.304688 1.558594 10.859375-1.480468 12.414063-6.78125 1.554687-5.296874-1.480469-10.851562-6.78125-12.410156-62.835938-18.4375-106.71875-77.101562-106.71875-142.660156 0-81.972656 66.6875-148.65625 148.660156-148.65625 81.96875 0 148.65625 66.6875 148.65625 148.65625 0 65.746094-44.042969 124.457031-107.105469 142.773438-5.300781 1.539062-8.355469 7.089843-6.8125 12.394531 1.269531 4.371093 5.261719 7.210937 9.597657 7.210937.925781 0 1.863281-.128906 2.796874-.398437 34.355469-9.980469 65.285157-31.230469 87.085938-59.835938 22.53125-29.5625 34.4375-64.882812 34.4375-102.144531 0-93-75.660156-168.660156-168.65625-168.660156zm-123.34375-12.683594v20h-172v-20zm-200-30v-48c0-5.515625 4.484375-10 10-10h208c5.515625 0 10 4.484375 10 10v48c0 5.515625-4.484375 10-10 10h-208c-5.515625 0-10-4.484375-10-10zm158 178h-130v-20h135.335938c-2.171876 6.5-3.960938 13.175781-5.335938 20zm-148 88c-5.515625 0-10-4.484375-10-10v-48c0-5.515625 4.484375-10 10-10h145.210938c-.347657 4.402344-.527344 8.851562-.527344 13.34375 0 3.570312.113281 7.125.332031 10.65625h-27.347656c-5.523438 0-10 4.476562-10 10s4.476562 10 10 10h29.773437c1.492188 8.171875 3.585938 16.183594 6.257813 24zm192.324219-172h-74.65625c-5.523438 0-10 4.476562-10 10s4.476562 10 10 10h58.019531c-5.367188 7.5625-10.125 15.589844-14.203125 24h-161.484375c-5.515625 0-10-4.484375-10-10v-48c0-5.515625 4.484375-10 10-10h208c3.113281 0 5.980469 1.460938 7.839844 3.796875-8.449219 6.007813-16.316406 12.78125-23.515625 20.203125zm0 0"/><path d="m259.378906 340.484375v28.441406c0 5.519531 4.476563 10 10 10 5.519532 0 10-4.480469 10-10v-24.296875l6.402344-6.40625c10.074219 18.144532 29.429688 30.457032 51.613281 30.457032h11.894531c22.183594 0 41.539063-12.3125 51.613282-30.457032l6.40625 6.40625v24.296875c0 5.519531 4.476562 10 10 10 5.519531 0 10-4.480469 10-10v-28.441406c0-2.648437-1.054688-5.195313-2.929688-7.070313l-16.542968-16.539062c.289062-2.363281.457031-4.761719.457031-7.199219v-14.542969h32.886719c5.519531 0 10-4.476562 10-10 0-5.523437-4.480469-10-10-10h-33.121094c-.535156-6.199218-2.019532-12.125-4.328125-17.632812l20.648437-20.648438c1.875-1.875 2.929688-4.417968 2.929688-7.070312v-28.4375c0-5.523438-4.480469-10-10-10-5.523438 0-10 4.476562-10 10v24.296875l-14.648438 14.648437c-3.050781-3.308593-6.472656-6.273437-10.199218-8.816406v-8.578125c0-11.632812-5.082032-22.097656-13.136719-29.304687 7.941406-7.128906 12.941406-17.464844 12.941406-28.949219 0-5.523437-4.476563-10-10-10-5.519531 0-10 4.476563-10 10 0 10.433594-8.488281 18.921875-18.921875 18.921875-10.4375 0-18.929688-8.488281-18.929688-18.921875 0-5.523437-4.476562-10-10-10-5.519531 0-10 4.476563-10 10 0 11.382813 4.914063 21.640625 12.730469 28.761719-8.175781 7.214844-13.347656 17.757812-13.347656 29.492187v8.882813c-3.5625 2.476562-6.839844 5.328125-9.773437 8.511718l-14.648438-14.648437v-24.296875c0-5.523438-4.476562-10-10-10s-10 4.476562-10 10v28.4375c0 2.652344 1.054688 5.195312 2.929688 7.070312l20.648437 20.648438c-2.308594 5.507812-3.792969 11.433594-4.328125 17.632812h-33.121094c-5.523437 0-10 4.476563-10 10 0 5.523438 4.476563 10 10 10h32.886719v14.542969c0 2.4375.164063 4.835938.453125 7.199219l-16.539062 16.539062c-1.875 1.875-2.925782 4.421876-2.925782 7.070313zm128.914063-30.804687c0 21.503906-17.496094 39-39.003907 39h-11.894531c-21.507812 0-39.003906-17.496094-39.003906-39v-29.441407c0-20.136719 15.34375-36.757812 34.953125-38.789062v47.894531c0 5.519531 4.476562 10 10 10 5.519531 0 10-4.480469 10-10v-47.894531c19.605469 2.03125 34.949219 18.652343 34.949219 38.789062zm-45.164063-106.117188c10.605469 0 19.234375 8.585938 19.324219 19.171875-4.238281-.96875-8.636719-1.496094-13.164063-1.496094h-11.894531c-4.679687 0-9.226562.5625-13.59375 1.597657.03125-10.632813 8.6875-19.273438 19.328125-19.273438zm0 0"/><path d="m343.339844 438c-2.628906 0-5.210938 1.070312-7.070313 2.929688-1.859375 1.859374-2.929687 4.441406-2.929687 7.070312s1.070312 5.210938 2.929687 7.070312c1.859375 1.859376 4.441407 2.929688 7.070313 2.929688s5.210937-1.070312 7.070312-2.929688c1.867188-1.859374 2.929688-4.441406 2.929688-7.070312s-1.0625-5.210938-2.929688-7.070312c-1.859375-1.859376-4.429687-2.929688-7.070312-2.929688zm0 0"/></svg>