<svg height="512pt" viewBox="0 0 512 512" width="512pt" xmlns="http://www.w3.org/2000/svg"><path d="m502 184v72h-72v-72zm0 0" fill="#f6838d"/><path d="m87.410156 502h222.589844c11.046875 0 20-8.953125 20-20v-350c0-11.046875-8.953125-20-20-20h-280c-11.046875 0-20 8.953125-20 20v292.589844zm0 0" fill="#fff"/><path d="m87.410156 448.65625c0-13.292969-10.773437-24.066406-24.066406-24.066406h-53.34375l77.410156 77.410156zm0 0" fill="#ffe6c0"/><path d="m306 30h48v48h-48zm0 0" fill="#ffcb7c"/><path d="m362 184v64h-64v-64zm0 0" fill="#cbe558"/><path d="m414 10h88v88h-88zm0 0" fill="#b0e7f8"/><path d="m250.035156 98v72h-72v-72zm0 0" fill="#f6838d"/><path d="m154.035156 224h80v80h-80zm0 0" fill="#9bc6ff"/><path d="m502 0h-88c-5.523438 0-10 4.476562-10 10v88c0 5.523438 4.476562 10 10 10h88c5.523438 0 10-4.476562 10-10v-88c0-5.523438-4.476562-10-10-10zm-10 88h-68v-68h68zm0 0"/><path d="m306 88h48c5.523438 0 10-4.476562 10-10v-48c0-5.523438-4.476562-10-10-10h-48c-5.523438 0-10 4.476562-10 10v48c0 5.523438 4.476562 10 10 10zm10-48h28v28h-28zm0 0"/><path d="m154.035156 214c-5.519531 0-10 4.476562-10 10v80c0 5.523438 4.480469 10 10 10h80c5.523438 0 10-4.476562 10-10v-80c0-5.523438-4.476562-10-10-10zm70 80h-60v-60h60zm0 0"/><path d="m502 174h-72c-5.523438 0-10 4.476562-10 10v72c0 5.523438 4.476562 10 10 10h72c5.523438 0 10-4.476562 10-10v-72c0-5.523438-4.476562-10-10-10zm-10 72h-52v-52h52zm0 0"/><path d="m362 174h-64c-5.523438 0-10 4.476562-10 10v64c0 5.523438 4.476562 10 10 10h64c5.523438 0 10-4.476562 10-10v-64c0-5.523438-4.476562-10-10-10zm-10 64h-44v-44h44zm0 0"/><path d="m330 328c-5.523438 0-10 4.476562-10 10v144c0 5.515625-4.484375 10-10 10h-212.589844v-43.34375c0-18.785156-15.28125-34.066406-34.066406-34.066406h-43.34375v-282.589844c0-5.515625 4.484375-10 10-10h138.035156v48c0 5.523438 4.480469 10 10 10h72c5.523438 0 10-4.476562 10-10v-72c0-5.523438-4.476562-10-10-10h-72c-5.519531 0-10 4.476562-10 10v4h-138.035156c-16.542969 0-30 13.457031-30 30v292.589844c0 2.652344 1.054688 5.195312 2.929688 7.070312l77.410156 77.410156c1.875 1.875 4.417968 2.929688 7.070312 2.929688h222.589844c16.542969 0 30-13.457031 30-30v-144c0-5.523438-4.476562-10-10-10zm-141.964844-220h52v52h-52zm-110.625 340.65625v29.199219l-43.269531-43.265625h29.203125c7.757812 0 14.066406 6.308594 14.066406 14.066406zm0 0"/><path d="m330 283c-2.628906 0-5.210938 1.070312-7.070312 2.929688-1.859376 1.859374-2.929688 4.441406-2.929688 7.070312s1.070312 5.210938 2.929688 7.070312c1.859374 1.859376 4.441406 2.929688 7.070312 2.929688s5.210938-1.070312 7.070312-2.929688c1.859376-1.859374 2.929688-4.441406 2.929688-7.070312s-1.070312-5.210938-2.929688-7.070312c-1.859374-1.859376-4.441406-2.929688-7.070312-2.929688zm0 0"/></svg>