<svg height="511pt" viewBox="-68 1 511 511.999" width="511pt" xmlns="http://www.w3.org/2000/svg"><path d="m366.507812 187.992188c0-98.425782-79.882812-178.191407-178.351562-178.003907-98.003906.183594-178.792969 82.136719-177.644531 180.132813.597656 51.214844 22.835937 97.226562 57.988281 129.328125 20.578125 18.792969 35.742188 42.761719 43.238281 69.605469l.261719.941406h153.003906l.265625-.945313c7.371094-26.386719 21.835938-50.351562 42.210938-68.671875 36.234375-32.578125 59.027343-79.820312 59.027343-132.386718zm0 0" fill="#d8ec84"/><path d="m222.503906 502h-68.003906c-18.777344 0-34-15.222656-34-34v-14h136.003906v14c0 18.777344-15.222656 34-34 34zm0 0" fill="#b5bcc9"/><path d="m265.503906 389.996094h-154.003906c-8.285156 0-15 6.71875-15 15v34.003906c0 8.28125 6.714844 15 15 15h154.003906c8.285156 0 15-6.71875 15-15v-34.003906c0-8.28125-6.714844-15-15-15zm0 0" fill="#b0e7f8"/><path d="m216.503906 103.15625c0 15.464844-12.535156 28.003906-28 28.003906s-28-12.539062-28-28.003906 12.535156-28 28-28 28 12.535156 28 28zm0 0" fill="#f5737f"/><path d="m312.628906 183.570312c0 15.464844-12.535156 28-28 28s-28-12.535156-28-28c0-15.464843 12.535156-28 28-28s28 12.535157 28 28zm0 0" fill="#b0e7f8"/><path d="m120.375 225.136719c0 15.464843-12.535156 28-28 28s-28-12.535157-28-28c0-15.464844 12.535156-28 28-28s28 12.535156 28 28zm0 0" fill="#ffcb7c"/><path d="m235.433594 5.894531c-5.351563-1.367187-10.800782 1.847657-12.175782 7.195313-1.375 5.351562 1.847657 10.800781 7.195313 12.175781 74.21875 19.074219 126.054687 85.988281 126.054687 162.726563 0 47.574218-20.308593 93.117187-55.714843 124.953124-19.929688 17.917969-34.785157 40.992188-43.234375 67.050782h-15.054688v-139.855469l23.480469-23.476563c5.511719 3.117188 11.871094 4.90625 18.644531 4.90625 20.953125 0 38.003906-17.046874 38.003906-38 0-20.953124-17.050781-38-38.003906-38s-38 17.046876-38 38c0 6.929688 1.875 13.429688 5.128906 19.03125l-26.324218 26.328126c-1.875 1.875-2.929688 4.417968-2.929688 7.070312v143.996094h-24v-240.179688c16.117188-4.402344 28-19.164062 28-36.65625 0-20.953125-17.046875-38.003906-38-38.003906s-38.003906 17.050781-38.003906 38.003906c0 17.492188 11.886719 32.253906 28.003906 36.65625v240.179688h-24.003906v-102.429688c0-2.652344-1.050781-5.199218-2.925781-7.074218l-26.328125-26.324219c3.253906-5.601563 5.128906-12.101563 5.128906-19.03125 0-20.953125-17.046875-38.003907-38-38.003907s-38 17.050782-38 38.003907 17.046875 38 38 38c6.773438 0 13.132812-1.789063 18.648438-4.90625l23.476562 23.476562v98.289063h-15.058594c-8.414062-25.742188-23.601562-49.117188-44.199218-67.929688-34.242188-31.269531-54.191407-75.761718-54.730469-122.0625-.890625-75.777344 52.007812-144.972656 125.777343-164.523437 5.335938-1.417969 8.519532-6.890625 7.105469-12.230469-1.417969-5.339844-6.898437-8.519531-12.230469-7.105469-39.675781 10.519531-75.589843 34.425781-101.117187 67.316407-25.984375 33.484374-40.0234375 74.957031-39.535156 116.773437.308593 26.453125 6.011719 51.984375 16.941406 75.878906 10.566406 23.09375 25.472656 43.523438 44.304687 60.722657 17.214844 15.722656 30.09375 35.046874 37.617188 56.308593-7.671875 4.269531-12.875 12.464844-12.875 21.851563v34c0 13.453125 10.675781 24.449218 24 24.976562v4.023438c0 24.265625 19.738281 44.003906 44 44.003906h68.003906c24.261719 0 44-19.738281 44-44.003906v-4.023438c13.324219-.527344 24-11.523437 24-24.976562v-34c0-9.394532-5.207031-17.589844-12.890625-21.863282 7.507813-21.464843 20.023438-40.457031 36.550781-55.316406 39.621094-35.625 62.34375-86.589844 62.34375-139.824218 0-85.871094-58.011718-160.75-141.074218-182.097657zm49.195312 159.675781c9.925782 0 18 8.074219 18 18 0 9.925782-8.074218 18-18 18-9.925781 0-18-8.074218-18-18 0-9.925781 8.074219-18 18-18zm-114.125-62.414062c0-9.925781 8.074219-18 18-18 9.925782 0 18 8.074219 18 18s-8.074218 18-18 18c-9.925781 0-18-8.074219-18-18zm-96.128906 121.980469c0-9.925781 8.074219-18 18-18s18 8.074219 18 18-8.074219 18-18 18-18-8.074219-18-18zm172.128906 242.863281c0 13.230469-10.765625 24-24 24h-68.003906c-13.230469 0-24-10.769531-24-24v-4h116.003906zm24-29c0 2.753906-2.242187 5-5 5h-154.003906c-2.757812 0-5-2.246094-5-5v-34.003906c0-2.757813 2.242188-5 5-5h154.003906c2.757813 0 5 2.242187 5 5zm0 0"/><path d="m188.15625 20.011719c5.523438 0 10-4.476563 10-10v-.023438c0-5.523437-4.476562-9.988281-10-9.988281s-10 4.488281-10 10.011719c0 5.523437 4.476562 10 10 10zm0 0"/></svg>