<svg height="512pt" viewBox="0 0 512 512" width="512pt" xmlns="http://www.w3.org/2000/svg"><path d="m369.363281 249.996094h16.355469c38.832031 0 70.308594-31.460938 70.308594-70.265625 0-38.804688-31.476563-70.261719-70.308594-70.261719-1.375 0-2.734375.050781-4.089844.128906-11.714844-56.851562-62.050781-99.597656-122.371094-99.597656-53.859374 0-99.757812 34.078125-117.3125 81.847656-1.761718-.1875-3.546874-.292968-5.359374-.292968-27.824219 0-50.382813 22.542968-50.382813 50.351562 0 3.804688.4375 7.507812 1.238281 11.070312-18.441406 7.480469-31.457031 25.550782-31.457031 46.667969 0 27.804688 22.558594 50.347657 50.382813 50.347657h262.996093zm0 0" fill="#b0e7f8"/><path d="m482 341.992188h-171.996094c-11.042968 0-20 8.953124-20 20v40c0 11.042968 8.957032 19.996093 20 19.996093h171.996094c11.046875 0 20-8.953125 20-19.996093v-40c0-11.046876-8.953125-20-20-20zm0 0" fill="#e1e3e9"/><path d="m482 421.988281h-171.996094c-11.042968 0-20 8.957031-20 20v40c0 11.046875 8.957032 20 20 20h171.996094c11.046875 0 20-8.953125 20-20v-40c0-11.042969-8.953125-20-20-20zm0 0" fill="#b5bcc9"/><path d="m201.996094 341.992188h-171.996094c-11.046875 0-20 8.953124-20 20v40c0 11.042968 8.953125 19.996093 20 19.996093h171.996094c11.042968 0 20-8.953125 20-19.996093v-40c0-11.046876-8.957032-20-20-20zm0 0" fill="#e1e3e9"/><path d="m201.996094 421.988281h-171.996094c-11.046875 0-20 8.957031-20 20v40c0 11.046875 8.953125 20 20 20h171.996094c11.042968 0 20-8.953125 20-20v-40c0-11.042969-8.957032-20-20-20zm0 0" fill="#b5bcc9"/><path d="m512 361.992188c0-16.542969-13.457031-30-30-30h-75.996094v-38c0-5.523438-4.476562-10-10-10h-130v-24h119.714844c44.28125 0 80.308594-36.003907 80.308594-80.261719 0-42.988281-33.992188-78.191407-76.519532-80.171875-5.226562-19.230469-14.738281-37.21875-27.785156-52.429688-14.714844-17.152344-33.605468-30.433594-54.640625-38.40625-5.164062-1.957031-10.9375.640625-12.894531 5.804688-1.957031 5.167968.640625 10.9375 5.804688 12.898437 36.460937 13.820313 63.988281 46.082031 71.84375 84.191407 1 4.859374 5.402343 8.25 10.363281 7.964843 1.351562-.078125 2.472656-.113281 3.519531-.113281 33.253906 0 60.308594 27.035156 60.308594 60.261719 0 33.230469-27.054688 60.265625-60.308594 60.265625h-279.351562c-22.265626 0-40.382813-18.101563-40.382813-40.351563 0-16.507812 9.898437-31.1875 25.214844-37.398437 4.535156-1.835938 7.074219-6.683594 6-11.457032-.660157-2.9375-.992188-5.925781-.992188-8.882812 0-22.25 18.113281-40.351562 40.378907-40.351562 1.375 0 2.824218.082031 4.308593.238281 4.558594.484375 8.855469-2.191407 10.4375-6.496094 11.503907-31.308594 35.996094-56.046875 67.191407-67.875 5.164062-1.957031 7.765624-7.730469 5.804687-12.894531-1.957031-5.164063-7.726563-7.765625-12.894531-5.804688-34.320313 13.011719-61.726563 39.335938-76.152344 72.847656-32.691406.699219-59.074219 27.496094-59.074219 60.335938 0 1.765625.078125 3.539062.234375 5.308594-18.730468 10.636718-30.457031 30.449218-30.457031 52.429687 0 33.277344 27.089844 60.347657 60.382813 60.347657h139.640624v24h-129.746093c-5.519531 0-10 4.476562-10 10v38h-76.261719c-16.542969 0-30 13.457031-30 30v40c0 7.675781 2.902344 14.6875 7.664062 19.996093-4.761718 5.3125-7.664062 12.324219-7.664062 20v40c0 16.542969 13.457031 30 30 30h171.996094c16.539062 0 30-13.457031 30-30v-40c0-7.675781-2.902344-14.6875-7.664063-20 4.761719-5.308593 7.664063-12.320312 7.664063-19.996093v-40c0-16.542969-13.460938-30-30-30h-75.734375v-28h259.742187v28h-76c-16.539062 0-30 13.457031-30 30v40c0 7.675781 2.902344 14.6875 7.664063 19.996093-4.761719 5.3125-7.664063 12.324219-7.664063 20v40c0 16.542969 13.460938 30 30 30h171.996094c16.542969 0 30-13.457031 30-30v-40c0-7.675781-2.902344-14.6875-7.664062-20 4.761718-5.308593 7.664062-12.320312 7.664062-19.996093zm-300.003906 119.996093c0 5.515625-4.488282 10-10 10h-171.996094c-5.515625 0-10-4.484375-10-10v-40c0-5.511719 4.484375-10 10-10h171.996094c5.511718 0 10 4.488281 10 10zm0-119.996093v40c0 5.511718-4.488282 10-10 10h-171.996094c-5.515625 0-10-4.488282-10-10v-40c0-5.515626 4.484375-10 10-10h171.996094c5.511718 0 10 4.484374 10 10zm88.007812 0c0-5.515626 4.488282-10 10-10h171.996094c5.515625 0 10 4.484374 10 10v40c0 5.511718-4.484375 10-10 10h-171.996094c-5.511718 0-10-4.488282-10-10zm191.996094 119.996093c0 5.515625-4.484375 10-10 10h-171.996094c-5.511718 0-10-4.484375-10-10v-40c0-5.511719 4.488282-10 10-10h171.996094c5.515625 0 10 4.488281 10 10zm0 0"/><path d="m330.003906 391.992188c2.628906 0 5.210938-1.070313 7.070313-2.929688 1.859375-1.863281 2.929687-4.441406 2.929687-7.070312 0-2.632813-1.070312-5.210938-2.929687-7.070313s-4.441407-2.929687-7.070313-2.929687-5.210937 1.070312-7.070312 2.929687-2.929688 4.4375-2.929688 7.070313c0 2.628906 1.070313 5.207031 2.929688 7.070312 1.859375 1.859375 4.441406 2.929688 7.070312 2.929688zm0 0"/><path d="m367.234375 391.992188c2.628906 0 5.207031-1.070313 7.070313-2.929688 1.859374-1.863281 2.929687-4.441406 2.929687-7.070312 0-2.632813-1.070313-5.210938-2.929687-7.070313-1.863282-1.859375-4.441407-2.929687-7.070313-2.929687-2.632813 0-5.210937 1.070312-7.070313 2.929687-1.859374 1.859375-2.929687 4.4375-2.929687 7.070313 0 2.628906 1.070313 5.207031 2.929687 7.070312 1.859376 1.859375 4.4375 2.929688 7.070313 2.929688zm0 0"/><path d="m412.21875 391.992188h49.78125c5.523438 0 10-4.476563 10-10 0-5.523438-4.476562-10-10-10h-49.78125c-5.523438 0-10 4.476562-10 10 0 5.523437 4.476562 10 10 10zm0 0"/><path d="m330.003906 451.988281c-2.628906 0-5.210937 1.070313-7.070312 2.929688s-2.929688 4.441406-2.929688 7.070312c0 2.628907 1.070313 5.210938 2.929688 7.070313s4.441406 2.929687 7.070312 2.929687 5.210938-1.070312 7.070313-2.929687 2.929687-4.441406 2.929687-7.070313c0-2.628906-1.070312-5.210937-2.929687-7.070312s-4.441407-2.929688-7.070313-2.929688zm0 0"/><path d="m367.234375 451.988281c-2.632813 0-5.210937 1.070313-7.070313 2.929688-1.859374 1.859375-2.929687 4.441406-2.929687 7.070312 0 2.628907 1.070313 5.210938 2.929687 7.070313 1.859376 1.859375 4.4375 2.929687 7.070313 2.929687 2.628906 0 5.207031-1.070312 7.070313-2.929687 1.859374-1.859375 2.929687-4.441406 2.929687-7.070313 0-2.628906-1.070313-5.210937-2.929687-7.070312-1.863282-1.859375-4.441407-2.929688-7.070313-2.929688zm0 0"/><path d="m462 451.988281h-49.78125c-5.523438 0-10 4.476563-10 10 0 5.523438 4.476562 10 10 10h49.78125c5.523438 0 10-4.476562 10-10 0-5.523437-4.476562-10-10-10zm0 0"/><path d="m50 371.992188c-2.628906 0-5.210938 1.070312-7.070312 2.929687-1.859376 1.859375-2.929688 4.4375-2.929688 7.070313 0 2.628906 1.070312 5.207031 2.929688 7.070312 1.859374 1.859375 4.429687 2.929688 7.070312 2.929688 2.628906 0 5.210938-1.070313 7.070312-2.929688 1.859376-1.863281 2.929688-4.441406 2.929688-7.070312 0-2.632813-1.070312-5.210938-2.929688-7.070313-1.859374-1.859375-4.441406-2.929687-7.070312-2.929687zm0 0"/><path d="m87.230469 371.992188c-2.632813 0-5.210938 1.070312-7.070313 2.929687s-2.929687 4.4375-2.929687 7.070313c0 2.628906 1.070312 5.207031 2.929687 7.070312 1.859375 1.859375 4.429688 2.929688 7.070313 2.929688 2.628906 0 5.207031-1.070313 7.066406-2.929688 1.863281-1.863281 2.933594-4.441406 2.933594-7.070312 0-2.632813-1.070313-5.210938-2.933594-7.070313-1.859375-1.859375-4.4375-2.929687-7.066406-2.929687zm0 0"/><path d="m132.210938 391.992188h49.785156c5.523437 0 10-4.476563 10-10 0-5.523438-4.476563-10-10-10h-49.785156c-5.523438 0-10 4.476562-10 10 0 5.523437 4.476562 10 10 10zm0 0"/><path d="m50 451.988281c-2.640625 0-5.210938 1.070313-7.070312 2.929688-1.859376 1.859375-2.929688 4.441406-2.929688 7.070312 0 2.628907 1.070312 5.210938 2.929688 7.070313 1.859374 1.859375 4.429687 2.929687 7.070312 2.929687 2.628906 0 5.210938-1.070312 7.070312-2.929687 1.859376-1.859375 2.929688-4.441406 2.929688-7.070313 0-2.628906-1.070312-5.210937-2.929688-7.070312-1.859374-1.859375-4.441406-2.929688-7.070312-2.929688zm0 0"/><path d="m87.230469 451.988281c-2.632813 0-5.210938 1.070313-7.070313 2.929688s-2.929687 4.441406-2.929687 7.070312c0 2.628907 1.070312 5.210938 2.929687 7.070313s4.4375 2.929687 7.070313 2.929687c2.628906 0 5.207031-1.070312 7.066406-2.929687 1.863281-1.859375 2.933594-4.441406 2.933594-7.070313 0-2.628906-1.070313-5.210937-2.933594-7.070312-1.859375-1.859375-4.4375-2.929688-7.066406-2.929688zm0 0"/><path d="m181.996094 451.988281h-49.785156c-5.523438 0-10 4.476563-10 10 0 5.523438 4.476562 10 10 10h49.785156c5.523437 0 10-4.476562 10-10 0-5.523437-4.476563-10-10-10zm0 0"/><path d="m259.257812 20c2.628907 0 5.207032-1.070312 7.066407-2.929688 1.863281-1.859374 2.929687-4.441406 2.929687-7.070312s-1.066406-5.210938-2.929687-7.070312c-1.859375-1.859376-4.4375-2.929688-7.066407-2.929688-2.632812 0-5.210937 1.070312-7.070312 2.929688-1.863281 1.859374-2.929688 4.441406-2.929688 7.070312s1.066407 5.210938 2.929688 7.070312c1.859375 1.859376 4.4375 2.929688 7.070312 2.929688zm0 0"/></svg>