<svg height="512pt" viewBox="0 0 512 512" width="512pt" xmlns="http://www.w3.org/2000/svg"><path d="m395.414062 305.164062h20.117188c47.753906 0 86.46875-38.691406 86.46875-86.414062 0-47.726562-38.714844-86.414062-86.46875-86.414062-1.691406 0-3.367188.0625-5.03125.160156-14.40625-69.925782-76.3125-122.496094-150.5-122.496094-66.238281 0-122.6875 41.914062-144.277344 100.664062-2.167968-.230468-4.363281-.359374-6.589844-.359374-34.222656 0-61.964843 27.722656-61.964843 61.925781 0 4.679687.535156 9.234375 1.523437 13.617187-22.6875 9.199219-38.691406 31.421875-38.691406 57.390625 0 34.199219 27.742188 61.921875 61.964844 61.921875h323.449218zm0 0" fill="#b0e7f8"/><path d="m85.996094 458v-194.214844c0-16.449218 13.339844-29.785156 29.789062-29.785156h280.429688c16.449218 0 29.785156 13.335938 29.785156 29.785156v194.214844" fill="#fff"/><path d="m309.183594 458h138.816406c0 24.300781-19.699219 44-44 44h-296c-24.300781 0-44-19.699219-44-44zm0 0" fill="#91def5"/><path d="m342 294h-172c-11.046875 0-20 8.953125-20 20v40c0 11.046875 8.953125 20 20 20h172c11.046875 0 20-8.953125 20-20v-40c0-11.046875-8.953125-20-20-20zm0 0" fill="#b5bcc9"/><path d="m342 214h-172c-11.046875 0-20 8.953125-20 20v40c0 11.046875 8.953125 20 20 20h172c11.046875 0 20-8.953125 20-20v-40c0-11.046875-8.953125-20-20-20zm0 0" fill="#e1e3e9"/><path d="m342 134h-172c-11.046875 0-20 8.953125-20 20v40c0 11.046875 8.953125 20 20 20h172c11.046875 0 20-8.953125 20-20v-40c0-11.046875-8.953125-20-20-20zm0 0" fill="#b5bcc9"/><path d="m512 218.746094c0-52.195313-41.726562-94.839844-93.589844-96.371094-14.269531-55.019531-56.148437-98.824219-111-115.398438-5.277344-1.597656-10.867187 1.394532-12.464844 6.679688-1.597656 5.285156 1.394532 10.867188 6.679688 12.464844 50.480469 15.257812 88.445312 56.789062 99.082031 108.390625 1 4.859375 5.417969 8.261719 10.367188 7.964843 1.671875-.09375 3.128906-.140624 4.457031-.140624 42.164062 0 76.46875 34.277343 76.46875 76.414062 0 34.757812-23.398438 64.636719-56.003906 73.640625v-28.605469c0-21.9375-17.847656-39.785156-39.785156-39.785156h-25.929688c-1.320312-3.722656-3.355469-7.113281-5.945312-10 4.761718-5.3125 7.664062-12.320312 7.664062-20v-40c0-16.539062-13.457031-30-30-30h-172c-16.542969 0-30 13.460938-30 30v40c0 7.679688 2.902344 14.6875 7.664062 20-2.585937 2.886719-4.625 6.277344-5.941406 10h-25.9375c-21.9375 0-39.785156 17.847656-39.785156 39.785156v31.378906h-4.035156c-28.652344-.003906-51.964844-23.296874-51.964844-51.925781 0-21.242187 12.734375-40.132812 32.445312-48.125 4.535157-1.835937 7.070313-6.683593 6-11.457031-.847656-3.777344-1.277343-7.621094-1.277343-11.425781 0-28.632813 23.308593-51.925781 51.964843-51.925781 1.785157 0 3.597657.097656 5.539063.304687 4.5625.480469 8.855469-2.199219 10.4375-6.496094 15.414063-41.953125 50.113281-74.796875 92.816406-87.855469 5.28125-1.613281 8.253907-7.207031 6.636719-12.488281-1.613281-5.28125-7.207031-8.253906-12.488281-6.636719-46.277344 14.152344-84.304688 48.695313-103.015625 93.171876-39.648438.039062-71.890625 32.289062-71.890625 71.925781 0 2.597656.144531 5.207031.429687 7.808593-23.078125 12.484376-37.597656 36.5-37.597656 63.199219 0 39.660157 32.28125 71.921875 71.964844 71.921875h4.03125v132.839844h-11.996094c-5.523438 0-10 4.476562-10 10 0 29.773438 24.226562 54 54 54h296c29.773438 0 54-24.226562 54-54 0-5.523438-4.476562-10-10-10h-12.003906v-135.015625c43.902344-9.457031 76.003906-48.503906 76.003906-94.238281zm-160 95.253906v40c0 5.515625-4.484375 10-10 10h-172c-5.515625 0-10-4.484375-10-10v-40c0-5.515625 4.484375-10 10-10h172c5.515625 0 10 4.484375 10 10zm0-80v40c0 5.515625-4.484375 10-10 10h-172c-5.515625 0-10-4.484375-10-10v-40c0-5.515625 4.484375-10 10-10h172c5.515625 0 10 4.484375 10 10zm-192-80c0-5.515625 4.484375-10 10-10h172c5.515625 0 10 4.484375 10 10v40c0 5.515625-4.484375 10-10 10h-172c-5.515625 0-10-4.484375-10-10zm244 338h-296c-15.269531 0-28.21875-10.117188-32.5-24h361c-4.28125 13.882812-17.230469 24-32.5 24zm-308.003906-44v-184.214844c0-10.910156 8.878906-19.785156 19.785156-19.785156h24.21875v30c0 7.679688 2.902344 14.6875 7.664062 20-4.761718 5.3125-7.664062 12.320312-7.664062 20v40c0 16.542969 13.457031 30 30 30h172c16.542969 0 30-13.457031 30-30v-40c0-7.679688-2.902344-14.6875-7.664062-20 4.761718-5.3125 7.664062-12.320312 7.664062-20v-30h24.210938c10.910156 0 19.785156 8.875 19.785156 19.785156v184.214844zm0 0"/><path d="m190.078125 344c2.632813 0 5.210937-1.070312 7.070313-2.929688 1.859374-1.859374 2.929687-4.441406 2.929687-7.070312 0-2.640625-1.066406-5.210938-2.929687-7.070312-1.859376-1.859376-4.4375-2.929688-7.070313-2.929688-2.628906 0-5.207031 1.070312-7.066406 2.929688-1.863281 1.859374-2.933594 4.441406-2.933594 7.070312s1.070313 5.210938 2.933594 7.070312c1.859375 1.859376 4.4375 2.929688 7.066406 2.929688zm0 0"/><path d="m226.210938 344c2.628906 0 5.210937-1.070312 7.066406-2.929688 1.871094-1.859374 2.933594-4.441406 2.933594-7.070312s-1.0625-5.210938-2.933594-7.070312c-1.855469-1.859376-4.4375-2.929688-7.066406-2.929688-2.632813 0-5.210938 1.070312-7.070313 2.929688-1.859375 1.859374-2.929687 4.441406-2.929687 7.070312s1.066406 5.210938 2.929687 7.070312c1.859375 1.859376 4.4375 2.929688 7.070313 2.929688zm0 0"/><path d="m274.34375 344h48.214844c5.523437 0 10-4.476562 10-10s-4.476563-10-10-10h-48.214844c-5.523438 0-10 4.476562-10 10s4.476562 10 10 10zm0 0"/><path d="m190.078125 264c2.632813 0 5.210937-1.070312 7.070313-2.929688 1.859374-1.859374 2.929687-4.441406 2.929687-7.070312 0-2.640625-1.066406-5.210938-2.929687-7.070312-1.859376-1.859376-4.429688-2.929688-7.070313-2.929688-2.628906 0-5.207031 1.070312-7.066406 2.929688-1.863281 1.859374-2.933594 4.429687-2.933594 7.070312 0 2.628906 1.070313 5.210938 2.933594 7.070312 1.859375 1.859376 4.4375 2.929688 7.066406 2.929688zm0 0"/><path d="m226.210938 264c2.628906 0 5.210937-1.070312 7.066406-2.929688 1.871094-1.859374 2.933594-4.441406 2.933594-7.070312s-1.0625-5.210938-2.933594-7.070312c-1.855469-1.859376-4.4375-2.929688-7.066406-2.929688-2.632813 0-5.210938 1.070312-7.070313 2.929688-1.859375 1.859374-2.929687 4.441406-2.929687 7.070312s1.066406 5.210938 2.929687 7.070312c1.859375 1.859376 4.4375 2.929688 7.070313 2.929688zm0 0"/><path d="m274.34375 264h48.214844c5.523437 0 10-4.476562 10-10s-4.476563-10-10-10h-48.214844c-5.523438 0-10 4.476562-10 10s4.476562 10 10 10zm0 0"/><path d="m190.078125 184c2.632813 0 5.210937-1.070312 7.070313-2.929688 1.859374-1.859374 2.929687-4.429687 2.929687-7.070312 0-2.628906-1.066406-5.210938-2.929687-7.070312-1.859376-1.859376-4.4375-2.929688-7.070313-2.929688-2.628906 0-5.207031 1.070312-7.066406 2.929688-1.863281 1.859374-2.933594 4.441406-2.933594 7.070312s1.070313 5.210938 2.933594 7.070312c1.859375 1.859376 4.4375 2.929688 7.066406 2.929688zm0 0"/><path d="m226.210938 184c2.628906 0 5.210937-1.070312 7.066406-2.929688 1.871094-1.859374 2.933594-4.441406 2.933594-7.070312s-1.0625-5.210938-2.933594-7.070312c-1.855469-1.859376-4.4375-2.929688-7.066406-2.929688-2.632813 0-5.210938 1.070312-7.070313 2.929688-1.859375 1.859374-2.929687 4.441406-2.929687 7.070312s1.066406 5.210938 2.929687 7.070312c1.859375 1.859376 4.4375 2.929688 7.070313 2.929688zm0 0"/><path d="m274.34375 184h48.214844c5.523437 0 10-4.476562 10-10s-4.476563-10-10-10h-48.214844c-5.523438 0-10 4.476562-10 10s4.476562 10 10 10zm0 0"/><path d="m260 20c2.628906 0 5.210938-1.070312 7.070312-2.929688 1.859376-1.859374 2.929688-4.441406 2.929688-7.070312s-1.070312-5.210938-2.929688-7.070312c-1.859374-1.859376-4.441406-2.929688-7.070312-2.929688s-5.210938 1.070312-7.070312 2.929688c-1.859376 1.859374-2.929688 4.441406-2.929688 7.070312s1.070312 5.210938 2.929688 7.070312c1.859374 1.859376 4.441406 2.929688 7.070312 2.929688zm0 0"/></svg>