<svg height="512pt" viewBox="0 0 512 512" width="512pt" xmlns="http://www.w3.org/2000/svg"><path d="m462 236c0 124.816406-101.183594 226-226 226s-226-101.183594-226-226 101.183594-226 226-226 226 101.183594 226 226zm0 0" fill="#cff1fb"/><g fill="#cbe558"><path d="m121.742188 258.742188c-.230469-.230469-.46875-.453126-.710938-.667969l-30.410156-26.972657c-2.976563-2.640624-6.820313-4.101562-10.800782-4.101562h-69.625c-.117187 2.988281-.195312 5.984375-.195312 9 0 58.015625 21.871094 110.917969 57.804688 150.933594l19.585937-36.375c2.839844-5.273438 8.34375-8.558594 14.332031-8.558594 6.78125 0 12.855469-4.207031 15.238282-10.5625l9.394531-25.046875c1.074219-2.867187 2.9375-5.375 5.375-7.230469l2.457031-1.875c7.839844-5.96875 8.613281-17.484375 1.644531-24.453125zm0 0"/><path d="m21.667969 164.148438 31.90625-23.203126c3.527343-2.5625 7.773437-3.945312 12.128906-3.945312h19.8125c11.71875 0 21.082031-9.757812 20.601563-21.464844-.234376-5.757812 1.949218-11.351562 6.023437-15.425781l1.257813-1.261719c4.339843-4.335937 10.382812-6.519531 16.492187-5.949218l30.253906 2.8125c8.371094.78125 16.378907-3.601563 20.234375-11.074219l16.445313-31.863281c5.113281-9.902344 1.433593-22.074219-8.308594-27.484376l-12.839844-7.132812c-72.4375 20.011719-130.277343 75.179688-154.007812 145.992188zm0 0"/><path d="m398.789062 79.25h-86.46875c-1.378906 0-2.742187-.285156-4.007812-.835938l-17.636719-7.667968c-1.265625-.546875-2.628906-.832032-4.007812-.832032h-24.839844c-3.042969 0-5.917969 1.375-7.828125 3.742188l-15.554688 19.285156c-2.820312 3.5-2.976562 8.445313-.386718 12.113282 3.574218 5.066406 1.757812 12.132812-3.816406 14.84375l-18.242188 8.875c-3.460938 1.683593-5.65625 5.195312-5.65625 9.042968v19.125c0 5.554688-4.503906 10.058594-10.058594 10.058594-8.148437 0-15.613281 4.570312-19.320312 11.828125l-4.695313 9.199219c-7.511719 14.71875-4.6875 32.601562 6.996094 44.285156l23.738281 23.738281c1.886719 1.886719 4.445313 2.945313 7.109375 2.945313h16.308594c4.710937 0 8.789063 3.273437 9.816406 7.871094l5.589844 25.078124c.160156.71875.242187 1.453126.242187 2.191407v31.453125c0 23.777344 19.277344 43.054687 43.054688 43.054687 2.746094 0 5.375-1.125 7.273438-3.113281l58.4375-61.1875c1.785156-1.871094 2.78125-4.359375 2.78125-6.945312v-63.660157c0-6.128906 3.027343-11.855469 8.089843-15.3125l8.257813-5.632812c7.820312-5.339844 18.40625-3.921875 24.550781 3.28125l3.246094 3.808593c7.019531 8.226563 19.5625 8.726563 27.210937 1.078126 3.476563-3.476563 8.191406-5.429688 13.109375-5.429688h18.984375c-4.734375-52.742188-27.578125-100.253906-62.277344-136.28125zm0 0"/></g><path d="m482 422h-172c-11.046875 0-20 8.953125-20 20v40c0 11.046875 8.953125 20 20 20h172c11.046875 0 20-8.953125 20-20v-40c0-11.046875-8.953125-20-20-20zm0 0" fill="#b5bcc9"/><path d="m482 342h-172c-11.046875 0-20 8.953125-20 20v40c0 11.046875 8.953125 20 20 20h172c11.046875 0 20-8.953125 20-20v-40c0-11.046875-8.953125-20-20-20zm0 0" fill="#e1e3e9"/><path d="m482 262h-172c-11.046875 0-20 8.953125-20 20v40c0 11.046875 8.953125 20 20 20h172c11.046875 0 20-8.953125 20-20v-40c0-11.046875-8.953125-20-20-20zm0 0" fill="#b5bcc9"/><path d="m327.628906 452c-2.628906 0-5.207031 1.070312-7.070312 2.929688-1.859375 1.859374-2.917969 4.441406-2.917969 7.070312s1.058594 5.210938 2.917969 7.070312c1.871094 1.859376 4.441406 2.929688 7.070312 2.929688 2.640625 0 5.210938-1.070312 7.082032-2.929688 1.859374-1.859374 2.917968-4.441406 2.917968-7.070312s-1.058594-5.210938-2.917968-7.070312c-1.871094-1.859376-4.441407-2.929688-7.082032-2.929688zm0 0"/><path d="m363.761719 452c-2.632813 0-5.203125 1.070312-7.070313 2.929688-1.863281 1.859374-2.929687 4.441406-2.929687 7.070312s1.066406 5.210938 2.929687 7.070312c1.859375 1.859376 4.4375 2.929688 7.070313 2.929688 2.636719 0 5.207031-1.070312 7.078125-2.929688 1.859375-1.859374 2.921875-4.441406 2.921875-7.070312s-1.0625-5.210938-2.921875-7.070312c-1.871094-1.859376-4.449219-2.929688-7.078125-2.929688zm0 0"/><path d="m462.558594 452h-48.214844c-5.523438 0-10 4.476562-10 10s4.476562 10 10 10h48.214844c5.523437 0 10-4.476562 10-10s-4.476563-10-10-10zm0 0"/><path d="m327.628906 392c2.640625 0 5.210938-1.070312 7.082032-2.929688 1.859374-1.859374 2.917968-4.441406 2.917968-7.070312s-1.058594-5.210938-2.917968-7.070312c-1.871094-1.859376-4.441407-2.929688-7.082032-2.929688-2.628906 0-5.207031 1.070312-7.070312 2.929688-1.859375 1.859374-2.917969 4.441406-2.917969 7.070312s1.058594 5.210938 2.917969 7.070312c1.871094 1.859376 4.441406 2.929688 7.070312 2.929688zm0 0"/><path d="m363.761719 392c2.636719 0 5.207031-1.070312 7.078125-2.929688 1.859375-1.859374 2.921875-4.441406 2.921875-7.070312s-1.0625-5.210938-2.921875-7.070312c-1.871094-1.859376-4.441406-2.929688-7.078125-2.929688-2.632813 0-5.210938 1.070312-7.070313 2.929688-1.863281 1.859374-2.929687 4.441406-2.929687 7.070312s1.066406 5.210938 2.929687 7.070312c1.859375 1.859376 4.4375 2.929688 7.070313 2.929688zm0 0"/><path d="m414.34375 392h48.214844c5.523437 0 10-4.476562 10-10s-4.476563-10-10-10h-48.214844c-5.523438 0-10 4.476562-10 10s4.476562 10 10 10zm0 0"/><path d="m512 282c0-16.542969-13.457031-30-30-30h-10.558594c.355469-5.324219.558594-10.671875.558594-16 0-63.039062-24.546875-122.304688-69.121094-166.878906-44.574218-44.574219-103.839844-69.121094-166.878906-69.121094s-122.304688 24.546875-166.878906 69.121094c-44.574219 44.574218-69.121094 103.839844-69.121094 166.878906 0 37.566406 9.046875 74.949219 26.164062 108.105469 16.558594 32.078125 40.699219 60.394531 69.8125 81.882812 1.785157 1.320313 3.867188 1.957031 5.929688 1.957031 3.066406 0 6.09375-1.40625 8.054688-4.0625 3.277343-4.441406 2.335937-10.703124-2.105469-13.984374-10.042969-7.414063-19.335938-15.644532-27.835938-24.554688l16.175781-30.042969c1.097657-2.035156 3.214844-3.300781 5.527344-3.300781 10.890625 0 20.777344-6.851562 24.601563-17.050781l9.394531-25.050781c.414062-1.105469 1.132812-2.070313 2.070312-2.785157l2.457032-1.871093c6.035156-4.597657 9.785156-11.570313 10.292968-19.136719.511719-7.566407-2.273437-14.984375-7.636718-20.34375l-14.089844-14.089844c-.371094-.371094-.75-.730469-1.144531-1.078125l-30.410157-26.976562c-4.8125-4.265626-11.003906-6.617188-17.4375-6.617188h-58.976562c1.414062-16.140625 4.605469-31.777344 9.386719-46.714844l29.226562-21.253906c1.828125-1.328125 3.988281-2.03125 6.25-2.03125h19.808594c8.417969 0 16.261719-3.34375 22.09375-9.417969 5.828125-6.070312 8.847656-14.046875 8.503906-22.457031-.121093-2.957031 1.007813-5.855469 3.101563-7.945312l1.257812-1.257813c2.242188-2.242187 5.335938-3.359375 8.496094-3.066406l30.25 2.8125c12.496094 1.160156 24.292969-5.289063 30.050781-16.445313l16.445313-31.863281c6.039062-11.699219 3.90625-25.351563-4.441406-34.554687 11.308593-1.835938 22.90625-2.804688 34.726562-2.804688 52.027344 0 99.816406 18.492188 137.144531 49.246094l-60.84375-.003906-17.632812-7.664063c-2.539063-1.105469-5.230469-1.667969-8-1.667969h-24.839844c-6.09375 0-11.785156 2.722656-15.613281 7.46875l-15.550782 19.285156c-5.597656 6.941407-5.917968 16.875-.796874 24.242188l-18.242188 8.875c-6.851562 3.332031-11.28125 10.414062-11.28125 18.035156l-.058594 19.183594c-11.96875 0-22.78125 6.621094-28.226562 17.28125l-4.695313 9.199219c-9.515625 18.640625-5.96875 41.105469 8.832031 55.902343l23.738282 23.738282c3.789062 3.789062 8.824218 5.875 14.183594 5.875l16.359374.046875 5.59375 25.089843v31.453126c0 26.140624 19.007813 47.914062 43.929688 52.253906v24.160156c0 7.679688 2.902344 14.6875 7.664062 20-4.761718 5.3125-7.664062 12.320312-7.664062 20v5.496094c-14.40625 2.980468-29.164062 4.503906-44 4.503906-17.101562 0-34.117188-2.003906-50.582031-5.953125-5.371094-1.285156-10.769531 2.019531-12.058594 7.390625s2.023437 10.769531 7.390625 12.058594c17.992188 4.316406 36.582031 6.503906 55.25 6.503906 14.808594 0 29.554688-1.390625 44-4.113281v14.113281c0 16.542969 13.457031 30 30 30h172c16.542969 0 30-13.457031 30-30v-40c0-7.679688-2.902344-14.6875-7.664062-20 4.761718-5.3125 7.664062-12.320312 7.664062-20v-40c0-7.679688-2.902344-14.6875-7.664062-20 4.761718-5.3125 7.664062-12.320312 7.664062-20zm-428.015625-43.417969 30.410156 26.972657c.09375.082031.1875.167968.273438.257812l14.09375 14.089844c1.75 1.753906 1.894531 3.796875 1.824219 4.859375-.074219 1.0625-.488282 3.066406-2.460938 4.570312l-2.457031 1.871094c-3.9375 3-6.941407 7.039063-8.679688 11.675781l-9.390625 25.050782c-.914062 2.433593-3.277344 4.070312-5.878906 4.070312-9.679688 0-18.542969 5.292969-23.132812 13.816406l-12.558594 23.320313c-29.191406-37.398438-45.785156-83.917969-46.011719-132.136719h59.804687c1.539063 0 3.015626.5625 4.164063 1.582031zm99.675781-204.554687c5.050782 2.808594 6.929688 9.027344 4.28125 14.160156l-16.445312 31.863281c-2 3.867188-6.085938 6.109375-10.425782 5.703125l-30.25-2.8125c-9.097656-.847656-18.027343 2.375-24.492187 8.835938l-1.257813 1.257812c-6.03125 6.03125-9.289062 14.382813-8.941406 22.90625.121094 2.917969-.929687 5.6875-2.949218 7.792969-2.023438 2.105469-4.746094 3.265625-7.664063 3.265625h-19.808594c-6.515625 0-12.742187 2.023438-18.011719 5.855469l-2.34375 1.707031c26.957032-50.464844 73.363282-89.027344 129.140626-105.625zm308.339844 247.972656v40c0 5.515625-4.484375 10-10 10h-172c-5.515625 0-10-4.484375-10-10v-40c0-5.515625 4.484375-10 10-10h172c5.515625 0 10 4.484375 10 10zm0 80v40c0 5.515625-4.484375 10-10 10h-172c-5.515625 0-10-4.484375-10-10v-40c0-5.515625 4.484375-10 10-10h172c5.515625 0 10 4.484375 10 10zm-124.382812-110v-18.261719c0-2.824219 1.394531-5.460937 3.726562-7.050781l8.253906-5.636719c3.609375-2.460937 8.472656-1.8125 11.308594 1.511719l3.25 3.808594c5.148438 6.035156 12.652344 9.679687 20.582031 9.992187 7.929688.324219 15.695313-2.722656 21.308594-8.332031 1.609375-1.613281 3.753906-2.5 6.035156-2.5h9.660157c.167968 3.46875.257812 6.957031.257812 10.46875 0 5.332031-.21875 10.683594-.605469 16zm-111.546876 73.585938v-31.453126c0-1.46875-.164062-2.9375-.480468-4.363281l-5.59375-25.082031c-2.058594-9.238281-10.109375-15.691406-19.574219-15.691406l-16.347656-.015625-23.738281-23.738281c-8.648438-8.648438-10.722657-21.777344-5.160157-32.667969l4.695313-9.199219c2.007812-3.933594 6-6.375 10.414062-6.375 11.0625 0 20.058594-9 20.058594-20.058594l.03125-19.175781 18.242188-8.875c5.300781-2.578125 9.183593-7.332031 10.652343-13.042969 1.464844-5.707031.359375-11.742187-3.039062-16.628906l15.597656-19.308594 24.863281.007813 17.632813 7.664062c2.539062 1.105469 5.226562 1.664063 7.996093 1.664063h82.015626c29.230468 31.515625 49.1875 71.730468 55.503906 116.28125h-7.757813c-7.621093 0-14.789062 2.96875-20.179687 8.359375-1.703125 1.703125-3.960938 2.582031-6.375 2.492187-2.40625-.09375-4.59375-1.15625-6.15625-2.988281l-3.246094-3.808594c-9.480469-11.117187-25.730469-13.289062-37.800781-5.050781l-8.253907 5.632812c-7.796874 5.320313-12.449218 14.132813-12.449218 23.570313v18.265625h-37.621094c-16.542969 0-30 13.457031-30 30v40c0 7.679688 2.902344 14.6875 7.664062 20-3.800781 4.242188-6.417968 9.566406-7.320312 15.449219-13.976562-3.855469-24.273438-16.675781-24.273438-31.863281zm235.929688 156.414062c0 5.515625-4.484375 10-10 10h-172c-5.515625 0-10-4.484375-10-10v-24.246094c.355469-1.480468.378906-3.0625 0-4.640625v-11.113281c0-5.515625 4.484375-10 10-10h172c5.515625 0 10 4.484375 10 10zm0 0"/><path d="m327.628906 292c-2.628906 0-5.199218 1.070312-7.070312 2.929688-1.859375 1.859374-2.917969 4.441406-2.917969 7.070312s1.058594 5.210938 2.917969 7.070312c1.863281 1.859376 4.441406 2.929688 7.070312 2.929688 2.640625 0 5.210938-1.070312 7.082032-2.929688 1.859374-1.859374 2.917968-4.441406 2.917968-7.070312s-1.058594-5.210938-2.917968-7.070312c-1.871094-1.859376-4.441407-2.929688-7.082032-2.929688zm0 0"/><path d="m353.761719 302c0 2.628906 1.066406 5.210938 2.929687 7.070312 1.867188 1.859376 4.4375 2.929688 7.070313 2.929688 2.628906 0 5.207031-1.070312 7.078125-2.929688 1.859375-1.859374 2.921875-4.441406 2.921875-7.070312s-1.0625-5.210938-2.921875-7.070312c-1.871094-1.859376-4.441406-2.929688-7.078125-2.929688-2.632813 0-5.210938 1.070312-7.070313 2.929688-1.863281 1.859374-2.929687 4.441406-2.929687 7.070312zm0 0"/><path d="m414.34375 312h48.214844c5.523437 0 10-4.476562 10-10s-4.476563-10-10-10h-48.214844c-5.523438 0-10 4.476562-10 10s4.476562 10 10 10zm0 0"/><path d="m140.601562 430.941406c-2.632812 0-5.210937 1.058594-7.070312 2.929688-1.859375 1.859375-2.929688 4.429687-2.929688 7.070312 0 2.628906 1.070313 5.207032 2.929688 7.070313 1.859375 1.859375 4.4375 2.929687 7.070312 2.929687 2.628907 0 5.207032-1.070312 7.070313-2.929687 1.859375-1.863281 2.929687-4.441407 2.929687-7.070313 0-2.632812-1.070312-5.210937-2.929687-7.070312-1.863281-1.871094-4.441406-2.929688-7.070313-2.929688zm0 0"/></svg>