<svg height="512pt" viewBox="0 0 512 512" width="512pt" xmlns="http://www.w3.org/2000/svg"><path d="m424 10h-75.351562l-32.058594 54h-180.589844v190c0 11.046875-16.953125 20-28 20h292c13.253906 0 24-10.746094 24-24zm0 0" fill="#ffcb7c"/><path d="m348.648438 10-32.054688 54h-70.339844l35.054688-54h68.125" fill="#ff9d6c"/><g fill="#ffd89e"><path d="m192.128906 502h128v-104h-32.378906l-18.0625 18.101562h-77.558594zm0 0"/><path d="m10 502h128v-104h-32.378906l-18.058594 18.101562h-77.5625zm0 0"/><path d="m374 502h128v-104h-32.378906l-18.058594 18.101562h-77.5625zm0 0"/></g><path d="m502 388h-32.378906c-2.652344 0-5.199219 1.058594-7.078125 2.9375l-15.132813 15.164062h-35.632812v-69.75c0-5.523437-4.476563-10-10-10h-135.777344v-42.351562h134c18.746094 0 34-15.253906 34-34v-63c0-5.523438-4.476562-10-10-10s-10 4.476562-10 10v63c0 7.71875-6.28125 14-14 14h-257.027344c1.9375-4.273438 3.027344-9.011719 3.027344-14v-176h170.59375c3.527344 0 6.796875-1.859375 8.597656-4.894531l29.152344-49.105469h59.65625v77c0 5.523438 4.476562 10 10 10s10-4.476562 10-10v-87c0-5.523438-4.476562-10-10-10h-142.691406c-3.320313 0-6.429688 1.652344-8.289063 4.40625l-32.054687 47.492188c-.453125.667968-.800782 1.375-1.070313 2.101562h-151.894531c-5.523438 0-10 4.476562-10 10v186c0 18.746094 15.253906 34 34 34h134v42.351562h-135.777344c-5.523437 0-10 4.476563-10 10v53.242188c-.601562.382812-1.167968.828125-1.679687 1.34375l-15.132813 15.164062h-73.410156c-5.523438 0-10 4.476563-10 10v85.898438c0 5.523438 4.476562 10 10 10h128c5.523438 0 10-4.476562 10-10v-104c0-5.523438-4.476562-10-10-10h-17.777344v-41.648438h125.777344v59.75h-53.871094c-5.523437 0-10 4.476563-10 10v85.898438c0 5.523438 4.476563 10 10 10h128c5.519532 0 10-4.476562 10-10v-104c0-5.523438-4.480468-10-10-10h-32.378906c-2.65625 0-5.203125 1.058594-7.078125 2.9375l-14.671875 14.703125v-59.289063h125.777344v59.75h-17.777344c-5.523438 0-10 4.476563-10 10v85.898438c0 5.523438 4.476562 10 10 10h128c5.523438 0 10-4.476562 10-10v-104c0-5.523438-4.476562-10-10-10zm-215.375-368h44.457031l-20.183593 34h-47.222657zm-188.625 54h28v176c0 7.71875-6.28125 14-14 14s-14-6.28125-14-14zm30 418h-108v-65.898438h67.5625c2.65625 0 5.203125-1.054687 7.078125-2.9375l15.128906-15.164062h18.230469zm148.765625-68.835938 15.132813-15.164062h18.230468v84h-108v-65.898438h67.558594c2.65625 0 5.203125-1.054687 7.078125-2.9375zm215.234375 68.835938h-108v-65.898438h67.5625c2.65625 0 5.203125-1.054687 7.078125-2.9375l15.128906-15.164062h18.230469zm0 0"/><path d="m214.632812 218h131.367188c5.523438 0 10-4.476562 10-10s-4.476562-10-10-10h-131.367188c-5.519531 0-10 4.476562-10 10s4.476563 10 10 10zm0 0"/><path d="m346 158h-65.683594c-5.519531 0-10 4.476562-10 10s4.480469 10 10 10h65.683594c5.523438 0 10-4.476562 10-10s-4.476562-10-10-10zm0 0"/><path d="m239.570312 178c5.519532 0 10-4.476562 10-10s-4.480468-10-10-10h-25.570312c-5.523438 0-10 4.476562-10 10s4.476562 10 10 10zm0 0"/><path d="m346 118h-131.367188c-5.519531 0-10 4.476562-10 10s4.480469 10 10 10h131.367188c5.523438 0 10-4.476562 10-10s-4.476562-10-10-10zm0 0"/><path d="m424 132c-2.628906 0-5.210938 1.070312-7.070312 2.929688-1.859376 1.859374-2.929688 4.441406-2.929688 7.070312s1.070312 5.210938 2.929688 7.070312c1.859374 1.859376 4.441406 2.929688 7.070312 2.929688s5.210938-1.070312 7.070312-2.929688c1.859376-1.859374 2.929688-4.441406 2.929688-7.070312s-1.070312-5.210938-2.929688-7.070312c-1.859374-1.859376-4.441406-2.929688-7.070312-2.929688zm0 0"/></svg>