<svg height="512pt" viewBox="-19 0 512 512" width="512pt" xmlns="http://www.w3.org/2000/svg"><path d="m365.171875 282h18.535156c44.007813 0 79.683594-35.652344 79.683594-79.632812 0-43.980469-35.675781-79.632813-79.683594-79.632813-1.554687 0-3.101562.058594-4.636719.148437-13.273437-64.4375-70.324218-112.882812-138.6875-112.882812-61.042968 0-113.0625 38.625-132.957031 92.765625-1.996093-.210937-4.019531-.332031-6.074219-.332031-31.535156 0-57.101562 25.550781-57.101562 57.066406 0 4.3125.496094 8.507812 1.402344 12.546875-20.902344 8.476563-35.652344 28.957031-35.652344 52.886719 0 31.515625 25.566406 57.066406 57.101562 57.066406zm0 0" fill="#b0e7f8"/><path d="m350.839844 180h-178.285156c-8.207032 0-14.859376 6.652344-14.859376 14.855469v196.210937l60.878907 60.933594h132.265625c8.203125 0 14.855468-6.652344 14.855468-14.855469v-242.289062c0-8.203125-6.652343-14.855469-14.855468-14.855469zm0 0" fill="#ffcb7c"/><path d="m122.554688 502h178.285156c8.203125 0 14.855468-6.652344 14.855468-14.855469v-196.210937l-60.878906-60.933594h-132.261718c-8.207032 0-14.859376 6.652344-14.859376 14.855469v242.289062c0 8.203125 6.652344 14.855469 14.859376 14.855469zm0 0" fill="#fff"/><path d="m254.816406 232.089844v43.984375c0 8.207031 6.652344 14.859375 14.859375 14.859375h43.929688" fill="#ffe6c0"/><path d="m386.96875 112.792969c-13.003906-49.210938-50.304688-89.089844-99.007812-105.175781-5.242188-1.730469-10.898438 1.117187-12.632813 6.359374-1.734375 5.246094 1.113281 10.902344 6.359375 12.632813 44.566406 14.71875 78.128906 52.382813 87.589844 98.289063 1 4.859374 5.382812 8.257812 10.367187 7.964843 1.527344-.089843 2.855469-.128906 4.0625-.128906 38.425781 0 69.683594 31.234375 69.683594 69.632813 0 38.394531-31.257813 69.632812-69.683594 69.632812h-8.011719v-77.144531c0-13.703125-11.148437-24.855469-24.855468-24.855469h-178.285156c-13.707032 0-24.859376 11.152344-24.859376 24.855469v25.144531h-25.140624c-13.707032 0-24.859376 11.152344-24.859376 24.855469v27.144531h-30.59375c-25.972656 0-47.101562-21.113281-47.101562-47.066406 0-19.253906 11.542969-36.375 29.410156-43.617188 4.53125-1.839844 7.070313-6.6875 6-11.460937-.769531-3.425781-1.160156-6.910157-1.160156-10.359375 0-25.949219 21.128906-47.0625 47.101562-47.0625 1.625 0 3.265626.089844 5.019532.277344 4.5625.480468 8.859375-2.195313 10.441406-6.496094 13.730469-37.371094 44.484375-67.128906 82.265625-79.605469 5.246094-1.730469 8.09375-7.386719 6.359375-12.632813-1.730469-5.242187-7.386719-8.089843-12.628906-6.359374-41.179688 13.601562-75.109375 45.019531-92.042969 84.820312-36.730469.316406-66.515625 30.277344-66.515625 67.0625 0 2.246094.113281 4.503906.347656 6.757812-21.253906 11.710938-34.597656 33.960938-34.597656 58.679688 0 36.976562 30.101562 67.0625 67.101562 67.0625h30.59375v195.144531c0 13.703125 11.152344 24.855469 24.859376 24.855469h178.285156c13.707031 0 24.855468-11.152344 24.855468-24.855469v-25.144531h25.144532c13.707031 0 24.855468-11.152344 24.855468-24.855469v-145.144531h8.011719c49.453125 0 89.683594-40.210938 89.683594-89.632812 0-48.332032-38.476563-87.851563-86.421875-89.574219zm-81.273438 374.351562c0 2.675781-2.179687 4.855469-4.855468 4.855469h-178.285156c-2.679688 0-4.859376-2.179688-4.859376-4.855469v-242.289062c0-2.675781 2.179688-4.855469 4.859376-4.855469h122.261718v36.074219c0 13.707031 11.152344 24.859375 24.859375 24.859375h36.019531zm-40.878906-232.988281 26.753906 26.777344h-21.894531c-2.679687 0-4.859375-2.179688-4.859375-4.859375zm90.878906 182.988281c0 2.675781-2.179687 4.855469-4.855468 4.855469h-25.144532v-151.066406c0-2.652344-1.050781-5.195313-2.925781-7.070313l-60.878906-60.929687c-1.875-1.878906-4.417969-2.933594-7.074219-2.933594h-87.121094v-25.144531c0-2.675781 2.179688-4.855469 4.859376-4.855469h178.285156c2.675781 0 4.855468 2.179688 4.855468 4.855469zm0 0"/><path d="m153.695312 319.917969h65c5.523438 0 10-4.476563 10-10 0-5.523438-4.476562-10-10-10h-65c-5.519531 0-10 4.476562-10 10 0 5.523437 4.480469 10 10 10zm0 0"/><path d="m153.695312 367.921875c2.628907 0 5.210938-1.070313 7.070313-2.933594 1.859375-1.859375 2.929687-4.4375 2.929687-7.066406 0-2.632813-1.070312-5.210937-2.929687-7.070313-1.859375-1.871093-4.441406-2.929687-7.070313-2.929687-2.640624 0-5.210937 1.058594-7.070312 2.929687-1.859375 1.859376-2.929688 4.4375-2.929688 7.070313 0 2.628906 1.070313 5.207031 2.929688 7.066406 1.863281 1.863281 4.441406 2.933594 7.070312 2.933594zm0 0"/><path d="m278.816406 347.917969h-80.121094c-5.519531 0-10 4.476562-10 10 0 5.523437 4.480469 10 10 10h80.121094c5.523438 0 10-4.476563 10-10 0-5.523438-4.476562-10-10-10zm0 0"/><path d="m153.695312 415.917969h21.5c5.523438 0 10-4.476563 10-10 0-5.523438-4.476562-10-10-10h-21.5c-5.519531 0-10 4.476562-10 10 0 5.523437 4.480469 10 10 10zm0 0"/><path d="m278.816406 395.917969h-67.121094c-5.519531 0-10 4.476562-10 10 0 5.523437 4.480469 10 10 10h67.121094c5.523438 0 10-4.476563 10-10 0-5.523438-4.476562-10-10-10zm0 0"/><path d="m216.257812 443.917969h-62.5625c-5.519531 0-10 4.476562-10 10 0 5.523437 4.480469 10 10 10h62.5625c5.519532 0 10-4.476563 10-10 0-5.523438-4.480468-10-10-10zm0 0"/><path d="m278.816406 443.917969h-24c-5.519531 0-10 4.476562-10 10 0 5.523437 4.480469 10 10 10h24c5.523438 0 10-4.476563 10-10 0-5.523438-4.476562-10-10-10zm0 0"/><path d="m240.386719 20c2.628906 0 5.199219-1.070312 7.066406-2.929688 1.863281-1.859374 2.921875-4.441406 2.921875-7.070312s-1.058594-5.210938-2.921875-7.070312c-1.867187-1.859376-4.4375-2.929688-7.066406-2.929688-2.640625 0-5.210938 1.070312-7.082031 2.929688-1.859376 1.859374-2.917969 4.441406-2.917969 7.070312s1.058593 5.210938 2.917969 7.070312c1.871093 1.859376 4.441406 2.929688 7.082031 2.929688zm0 0"/></svg>