<svg height="512pt" viewBox="0 0 512 512" width="512pt" xmlns="http://www.w3.org/2000/svg"><path d="m482 502h-340c-11.046875 0-20-8.953125-20-20v-452c0-11.046875 8.953125-20 20-20h340c11.046875 0 20 8.953125 20 20v452c0 11.046875-8.953125 20-20 20zm0 0" fill="#91def5"/><path d="m162 90h300v348h-300zm0 0" fill="#fff"/><path d="m239.855469 477.804688c0 13.363281-10.835938 24.195312-24.195313 24.195312h-181.464844c-13.363281 0-24.195312-10.832031-24.195312-24.195312v-323.609376c0-13.363281 10.832031-24.195312 24.195312-24.195312h181.460938c13.363281 0 24.195312 10.832031 24.195312 24.195312v323.609376zm0 0" fill="#b0e7f8"/><path d="m10 178.390625h229.855469v259.609375h-229.855469zm0 0" fill="#fff"/><path d="m218.554688 362.558594-54-54-75.886719 75.886718-31.113281-31.113281 107-107 54 54 117.386718-117.386719 31.117188 31.109376zm0 0" fill="#fff"/><path d="m382.625 166.957031h-66.332031l17.816406 17.820313-115.554687 115.554687-54-54-107 107 31.113281 31.113281 75.886719-75.886718 54 54 146.667968-146.667969 17.402344 17.402344zm0 0" fill="#f6838d"/><path d="m482 0h-340c-16.542969 0-30 13.457031-30 30v90h-77.804688c-18.855468 0-34.195312 15.339844-34.195312 34.195312v323.609376c0 18.855468 15.339844 34.195312 34.195312 34.195312h447.804688c16.542969 0 30-13.457031 30-30v-181c0-5.523438-4.476562-10-10-10s-10 4.476562-10 10v181c0 5.515625-4.484375 10-10 10h-235.242188c1.980469-4.328125 3.097657-9.132812 3.097657-14.195312v-29.804688h212.144531c5.523438 0 10-4.476562 10-10v-348c0-5.523438-4.476562-10-10-10h-300c-5.523438 0-10 4.476562-10 10v30h-20v-90c0-5.515625 4.484375-10 10-10h340c5.515625 0 10 4.484375 10 10v181c0 5.523438 4.476562 10 10 10s10-4.476562 10-10v-181c0-16.542969-13.457031-30-30-30zm-447.804688 140h181.460938c7.828125 0 14.195312 6.367188 14.195312 14.195312v14.195313h-209.851562v-14.195313c0-7.828124 6.367188-14.195312 14.195312-14.195312zm306.988282 37.707031-.75-.746093h32.191406v32.1875l-.332031-.332032c-3.90625-3.902344-10.234375-3.902344-14.140625 0l-139.597656 139.597656-46.929688-46.925781c-3.90625-3.90625-10.234375-3.90625-14.140625 0l-68.816406 68.816407-16.972657-16.972657 92.859376-92.855469 46.929687 46.925782c3.90625 3.90625 10.234375 3.90625 14.140625 0l115.558594-115.554688c1.875-1.875 2.925781-4.417968 2.925781-7.070312s-1.050781-5.195313-2.925781-7.070313zm-122.628906 108.484375-46.929688-46.929687c-3.902344-3.90625-10.234375-3.90625-14.140625 0l-107 107c-1.875 1.875-2.929687 4.417969-2.929687 7.070312 0 2.652344 1.054687 5.195313 2.929687 7.070313l31.113281 31.113281c1.953125 1.953125 4.511719 2.929687 7.070313 2.929687 2.558593 0 5.117187-.976562 7.070312-2.929687l68.816407-68.816406 46.925781 46.929687c1.878906 1.875 4.421875 2.929688 7.074219 2.929688 2.648437 0 5.191406-1.054688 7.070312-2.929688l4.226562-4.226562v62.597656h-209.851562v-239.609375h209.855469v86.5zm-26.886719 205.808594h-157.472657c-7.828124 0-14.195312-6.367188-14.195312-14.195312v-29.804688h209.855469v29.804688c0 7.828124-6.371094 14.195312-14.195313 14.195312zm-19.667969-392h280v328h-202.144531v-82.597656l115.367187-115.371094 10.332032 10.332031c2.859374 2.859375 7.160156 3.714844 10.898437 2.167969 3.734375-1.550781 6.171875-5.195312 6.171875-9.242188v-66.332031c0-5.523437-4.476562-10-10-10h-66.335938c-4.042968 0-7.6875 2.4375-9.238281 6.175781-1.546875 3.734376-.691406 8.035157 2.167969 10.894532l10.75 10.75-70.113281 70.113281v-100.695313c0-18.855468-15.339844-34.195312-34.195313-34.195312h-43.660156zm0 0"/><path d="m304.929688 462.929688c-1.859376 1.859374-2.929688 4.441406-2.929688 7.070312s1.070312 5.210938 2.929688 7.070312c1.859374 1.859376 4.441406 2.929688 7.070312 2.929688s5.210938-1.070312 7.070312-2.929688c1.859376-1.859374 2.929688-4.441406 2.929688-7.070312s-1.070312-5.210938-2.929688-7.070312c-1.859374-1.859376-4.441406-2.929688-7.070312-2.929688s-5.210938 1.070312-7.070312 2.929688zm0 0"/><path d="m256 40c-5.523438 0-10 4.476562-10 10s4.476562 10 10 10h112c5.523438 0 10-4.476562 10-10s-4.476562-10-10-10zm0 0"/><path d="m124.929688 460c-2.628907 0-5.210938 1.070312-7.070313 2.929688-1.859375 1.859374-2.929687 4.429687-2.929687 7.070312 0 2.628906 1.070312 5.210938 2.929687 7.070312 1.859375 1.859376 4.441406 2.929688 7.070313 2.929688 2.628906 0 5.199218-1.070312 7.070312-2.929688 1.859375-1.859374 2.929688-4.441406 2.929688-7.070312s-1.070313-5.210938-2.929688-7.070312c-1.871094-1.859376-4.441406-2.929688-7.070312-2.929688zm0 0"/><path d="m381.71875 350c0 5.523438 4.476562 10 10 10h29.78125c5.523438 0 10-4.476562 10-10s-4.476562-10-10-10h-29.78125c-5.523438 0-10 4.476562-10 10zm0 0"/><path d="m421.5 380h-119.78125c-5.523438 0-10 4.476562-10 10s4.476562 10 10 10h119.78125c5.523438 0 10-4.476562 10-10s-4.476562-10-10-10zm0 0"/><path d="m346.71875 360c2.632812 0 5.210938-1.070312 7.070312-2.929688 1.859376-1.859374 2.929688-4.441406 2.929688-7.070312s-1.070312-5.210938-2.929688-7.070312c-1.859374-1.859376-4.4375-2.929688-7.070312-2.929688-2.628906 0-5.207031 1.070312-7.070312 2.929688-1.859376 1.859374-2.929688 4.441406-2.929688 7.070312s1.070312 5.210938 2.929688 7.070312c1.863281 1.859376 4.429687 2.929688 7.070312 2.929688zm0 0"/><path d="m301.71875 360c2.632812 0 5.210938-1.070312 7.070312-2.929688 1.859376-1.859374 2.929688-4.441406 2.929688-7.070312s-1.070312-5.210938-2.929688-7.070312c-1.859374-1.859376-4.4375-2.929688-7.070312-2.929688-2.628906 0-5.207031 1.070312-7.070312 2.929688-1.859376 1.859374-2.929688 4.441406-2.929688 7.070312s1.070312 5.210938 2.929688 7.070312c1.863281 1.859376 4.441406 2.929688 7.070312 2.929688zm0 0"/><path d="m86.332031 248.390625h-36c-5.519531 0-10 4.476563-10 10s4.480469 10 10 10h36c5.523438 0 10-4.476563 10-10s-4.476562-10-10-10zm0 0"/><path d="m126.667969 208.390625h-76.335938c-5.519531 0-10 4.476563-10 10s4.480469 10 10 10h76.335938c5.519531 0 10-4.476563 10-10s-4.480469-10-10-10zm0 0"/><path d="m502 246c-2.628906 0-5.210938 1.070312-7.070312 2.929688-1.859376 1.859374-2.929688 4.441406-2.929688 7.070312s1.070312 5.210938 2.929688 7.070312c1.859374 1.859376 4.441406 2.929688 7.070312 2.929688s5.210938-1.070312 7.070312-2.929688c1.859376-1.859374 2.929688-4.441406 2.929688-7.070312s-1.070312-5.210938-2.929688-7.070312c-1.859374-1.859376-4.441406-2.929688-7.070312-2.929688zm0 0"/></svg>